<svg xmlns="http://www.w3.org/2000/svg" width="61.688" height="61.688" viewBox="0 0 61.688 61.688"><defs><style>.a{fill:#25a31c;}</style></defs><path class="a" d="M34.219,3.375A30.844,30.844,0,1,0,65.063,34.219,30.839,30.839,0,0,0,34.219,3.375ZM50.011,25.692,30.185,45.607h-.015a2.678,2.678,0,0,1-1.72.816,2.6,2.6,0,0,1-1.735-.845l-8.3-8.3a.591.591,0,0,1,0-.845l2.64-2.64a.573.573,0,0,1,.83,0l6.584,6.584L46.556,22.148a.586.586,0,0,1,.415-.178h0a.538.538,0,0,1,.415.178l2.6,2.684A.585.585,0,0,1,50.011,25.692Z" transform="translate(-3.375 -3.375)"/></svg>