<svg xmlns="http://www.w3.org/2000/svg" width="144.585" height="22.289" viewBox="0 0 144.585 22.289"><defs><style>.a{isolation:isolate;}.b{fill:#fff;}</style></defs><g transform="translate(-1083.898 -213.475)"><g class="a"><path class="b" d="M1090.93,231.018a10.2,10.2,0,0,1-2.842-.381,10.544,10.544,0,0,1-2.233-.9l-.808.82h-1l-.153-6.012h1.008a15.781,15.781,0,0,0,.867,1.809,8.808,8.808,0,0,0,1.219,1.7,6.32,6.32,0,0,0,1.6,1.28,4.176,4.176,0,0,0,2.068.493,3.485,3.485,0,0,0,2.444-.78,2.552,2.552,0,0,0,.849-1.964,2.133,2.133,0,0,0-.721-1.636,6.006,6.006,0,0,0-2.232-1.146q-.984-.316-1.811-.588t-1.552-.553a5.142,5.142,0,0,1-2.491-1.913,4.971,4.971,0,0,1-.814-2.781,4.357,4.357,0,0,1,.422-1.871,4.952,4.952,0,0,1,1.23-1.613,6.038,6.038,0,0,1,1.981-1.091,7.889,7.889,0,0,1,2.625-.423,8.438,8.438,0,0,1,2.59.387,10.7,10.7,0,0,1,1.9.773l.715-.7h1.02l.093,5.672H1095.9q-.351-.917-.826-1.873a8.1,8.1,0,0,0-1-1.592,4.561,4.561,0,0,0-1.324-1.087,3.645,3.645,0,0,0-1.758-.4,2.987,2.987,0,0,0-2.068.716,2.28,2.28,0,0,0-.8,1.772,2.109,2.109,0,0,0,.7,1.632,6.04,6.04,0,0,0,2.174,1.115q.867.294,1.77.587t1.6.563a5.78,5.78,0,0,1,2.584,1.813,4.869,4.869,0,0,1,.381,4.958,4.848,4.848,0,0,1-1.359,1.678,6.905,6.905,0,0,1-2.168,1.138A9.331,9.331,0,0,1,1090.93,231.018Z"/><path class="b" d="M1112.645,219.792a2.655,2.655,0,0,0-1.026.4,2.357,2.357,0,0,0-.826.984q-1.008,2.133-2.074,4.541t-2.367,5.209a15.325,15.325,0,0,1-1.407,2.508,8.167,8.167,0,0,1-1.277,1.442,3.986,3.986,0,0,1-1.113.679,3.086,3.086,0,0,1-1.114.211,2.575,2.575,0,0,1-1.8-.621,1.851,1.851,0,0,1-.686-1.394,2.326,2.326,0,0,1,.076-.61,1.641,1.641,0,0,1,.322-.586,1.437,1.437,0,0,1,.58-.439,2.079,2.079,0,0,1,.884-.182,2.031,2.031,0,0,1,1.253.457,7.339,7.339,0,0,1,1.241,1.266,10.868,10.868,0,0,0,.956-1.157,5.712,5.712,0,0,0,.836-1.581q-1.392-2.928-2.47-5.077t-2.412-4.795a2.222,2.222,0,0,0-.785-.873,2.531,2.531,0,0,0-1.043-.38v-.856h7.171v.856a3.426,3.426,0,0,0-.918.175c-.346.11-.519.25-.519.422a.7.7,0,0,0,.035.2,3.3,3.3,0,0,0,.128.322q.4.817,1.13,2.273t1.7,3.407q.725-1.659,1.234-2.857t.989-2.355a1.806,1.806,0,0,0,.134-.462q.018-.169.018-.228a.458.458,0,0,0-.2-.369,2.144,2.144,0,0,0-.485-.276,3.593,3.593,0,0,0-.562-.175c-.18-.04-.328-.067-.444-.082v-.856h4.84Z"/><path class="b" d="M1128.359,230.561h-7.043v-.855l.539-.059a1.488,1.488,0,0,0,.481-.117.751.751,0,0,0,.352-.375,1.934,1.934,0,0,0,.1-.727v-5.484a3.038,3.038,0,0,0-.441-1.8,1.506,1.506,0,0,0-1.3-.6,2.646,2.646,0,0,0-.876.14,3.311,3.311,0,0,0-.793.41,2.724,2.724,0,0,0-.546.481c-.138.164-.253.308-.347.433V228.3a1.76,1.76,0,0,0,.117.686.825.825,0,0,0,.387.416,2.219,2.219,0,0,0,.469.187,3.673,3.673,0,0,0,.551.118v.855h-7.125v-.855q.293-.024.591-.065a2.8,2.8,0,0,0,.51-.111.863.863,0,0,0,.516-.4,1.515,1.515,0,0,0,.14-.7v-6.82a1.5,1.5,0,0,0-.187-.715,1.675,1.675,0,0,0-.492-.574,1.958,1.958,0,0,0-.533-.235,3.781,3.781,0,0,0-.709-.128V219.1l5.589-.305.176.176v1.7h.047q.329-.292.8-.7a7.743,7.743,0,0,1,.867-.668,4.229,4.229,0,0,1,1.137-.48,5.475,5.475,0,0,1,1.5-.2,3.618,3.618,0,0,1,2.865,1.084,4.19,4.19,0,0,1,.955,2.877v5.742a1.558,1.558,0,0,0,.129.691.907.907,0,0,0,.481.41,3.907,3.907,0,0,0,.462.164,3.412,3.412,0,0,0,.627.118Z"/><path class="b" d="M1142.047,227.76a7.182,7.182,0,0,1-.99,1.26,6.037,6.037,0,0,1-1.319,1.014,7.232,7.232,0,0,1-1.588.674,6.768,6.768,0,0,1-1.845.228,8.215,8.215,0,0,1-2.994-.492,5.884,5.884,0,0,1-2.081-1.324,5.305,5.305,0,0,1-1.224-1.963,7.234,7.234,0,0,1-.4-2.455,6.163,6.163,0,0,1,1.687-4.243,5.983,5.983,0,0,1,2.01-1.347,6.864,6.864,0,0,1,2.713-.516,7.717,7.717,0,0,1,2.7.4,4.76,4.76,0,0,1,1.746,1.1,4.006,4.006,0,0,1,.973,1.576,5.957,5.957,0,0,1,.3,1.9v.761h-7.921a6.1,6.1,0,0,0,.925,3.657,3.858,3.858,0,0,0,4.922.65,5.647,5.647,0,0,0,1.5-1.529Zm-4.477-4.453q0-.7-.07-1.441a4.814,4.814,0,0,0-.246-1.207,1.859,1.859,0,0,0-.545-.832,1.334,1.334,0,0,0-.873-.282,1.623,1.623,0,0,0-1.441.914,6.207,6.207,0,0,0-.586,2.9Z"/><path class="b" d="M1154.844,221.081a2.4,2.4,0,0,1-.551,1.564,1.785,1.785,0,0,1-1.453.674,2.387,2.387,0,0,1-1.447-.432,1.474,1.474,0,0,1-.592-1.272,2.689,2.689,0,0,1,.058-.636c.039-.151.075-.294.106-.426a2.5,2.5,0,0,0-1.137.372,3.754,3.754,0,0,0-1.055.929v6.434a1.57,1.57,0,0,0,.129.679.909.909,0,0,0,.434.422,3.041,3.041,0,0,0,.838.217q.581.088.838.1v.855h-7.84v-.855q.292-.024.592-.065a2.8,2.8,0,0,0,.509-.111.863.863,0,0,0,.516-.4,1.513,1.513,0,0,0,.141-.7v-6.82a1.447,1.447,0,0,0-.2-.756,1.7,1.7,0,0,0-.48-.533,1.944,1.944,0,0,0-.533-.235,3.767,3.767,0,0,0-.709-.128V219.1l5.59-.305.175.176v1.7h.047a6.9,6.9,0,0,1,1.717-1.47,3.682,3.682,0,0,1,1.893-.533,2.348,2.348,0,0,1,1.752.673A2.382,2.382,0,0,1,1154.844,221.081Z"/><path class="b" d="M1168.777,220.249H1166.2a3.685,3.685,0,0,1,.686,1.084,3.175,3.175,0,0,1,.228,1.189,2.862,2.862,0,0,1-.433,1.518,3.533,3.533,0,0,1-1.137,1.154,5.952,5.952,0,0,1-1.676.715,8.021,8.021,0,0,1-2.086.258h-1.91a1.645,1.645,0,0,0-.31.335.752.752,0,0,0-.17.443.729.729,0,0,0,.41.72,3.976,3.976,0,0,0,1.488.224q1.067.024,2.156.088t1.559.076a4.679,4.679,0,0,1,1.348.276,4.109,4.109,0,0,1,1.16.627,3.289,3.289,0,0,1,.89,1.048,2.994,2.994,0,0,1,.352,1.471,3.455,3.455,0,0,1-.428,1.676,3.832,3.832,0,0,1-1.306,1.359,7.444,7.444,0,0,1-2.221.926,13.269,13.269,0,0,1-3.2.328,11.47,11.47,0,0,1-4.688-.75,2.4,2.4,0,0,1-1.6-2.25,1.787,1.787,0,0,1,.866-1.523,5.108,5.108,0,0,1,2.693-.657v-.14a4.256,4.256,0,0,1-1.679-.969,1.927,1.927,0,0,1-.6-1.4,1.409,1.409,0,0,1,.24-.834,2.43,2.43,0,0,1,.616-.6,3.351,3.351,0,0,1,.8-.382c.313-.105.575-.19.786-.253v-.128a5.7,5.7,0,0,1-2.327-1.43,3.01,3.01,0,0,1-.744-2.063,3.151,3.151,0,0,1,1.588-2.754,7.263,7.263,0,0,1,4.026-1.031,8.62,8.62,0,0,1,1.541.135q.744.135,1.13.24h4.547Zm-3.539,12.082a1.59,1.59,0,0,0-.222-.791,1.675,1.675,0,0,0-.995-.639,11.144,11.144,0,0,0-1.385-.094q-.966-.022-2.65-.023a3.123,3.123,0,0,0-.684.832,2.3,2.3,0,0,0-.275,1.16,1.558,1.558,0,0,0,.163.644,2.014,2.014,0,0,0,.515.657,3.261,3.261,0,0,0,.913.533,4.493,4.493,0,0,0,1.521.193,3.838,3.838,0,0,0,2.3-.586A2.184,2.184,0,0,0,1165.238,232.331Zm-1.957-9.856a4.547,4.547,0,0,0-.435-2.168,1.43,1.43,0,0,0-1.34-.8,1.462,1.462,0,0,0-.8.217,1.588,1.588,0,0,0-.553.627,2.93,2.93,0,0,0-.27.932,8.338,8.338,0,0,0-.07,1.1,4.359,4.359,0,0,0,.446,2.1,1.388,1.388,0,0,0,1.27.82,1.439,1.439,0,0,0,1.3-.738A4,4,0,0,0,1163.281,222.475Z"/><path class="b" d="M1181.457,220.319a5.363,5.363,0,0,1,1.324,1.933,6.41,6.41,0,0,1,.457,2.438,6.68,6.68,0,0,1-.451,2.455,5.372,5.372,0,0,1-1.318,1.975,6.3,6.3,0,0,1-2.209,1.347,8.515,8.515,0,0,1-2.936.469,8.11,8.11,0,0,1-2.631-.41,6.208,6.208,0,0,1-2.127-1.231,5.59,5.59,0,0,1-1.406-1.939,6.266,6.266,0,0,1-.515-2.584,6.519,6.519,0,0,1,.451-2.5,5.615,5.615,0,0,1,1.353-1.951,5.968,5.968,0,0,1,2.139-1.272,9.325,9.325,0,0,1,5.73,0A6.257,6.257,0,0,1,1181.457,220.319Zm-3,8.121a6.824,6.824,0,0,0,.381-1.594,16.948,16.948,0,0,0,.123-2.179,17.209,17.209,0,0,0-.117-1.875,6.932,6.932,0,0,0-.352-1.665,2.777,2.777,0,0,0-.779-1.16,2.128,2.128,0,0,0-2.59.035,2.99,2.99,0,0,0-.768,1.184,6.478,6.478,0,0,0-.339,1.564,17.855,17.855,0,0,0-.094,1.87q0,1.276.082,2.115a6.636,6.636,0,0,0,.4,1.682,2.672,2.672,0,0,0,.774,1.148,1.924,1.924,0,0,0,1.277.422,1.9,1.9,0,0,0,1.207-.393A2.6,2.6,0,0,0,1178.457,228.44Z"/></g><g class="a"><path class="b" d="M1200.212,215.3a5.789,5.789,0,0,1,0,8.436,7.623,7.623,0,0,1-5.04,1.524h-4.512v5.3h-1.776v-16.8h6.288A7.588,7.588,0,0,1,1200.212,215.3Zm-1.272,7.308a3.778,3.778,0,0,0,1.32-3.084,3.837,3.837,0,0,0-1.32-3.132,5.852,5.852,0,0,0-3.816-1.092h-4.464v8.4h4.464A5.846,5.846,0,0,0,1198.94,222.6Z"/><path class="b" d="M1209.824,218.489a6.076,6.076,0,0,1,2.94-.648V219.5l-.408-.024a4.031,4.031,0,0,0-3.12,1.224,4.872,4.872,0,0,0-1.128,3.432v6.432h-1.7V217.937h1.632v2.472A4.129,4.129,0,0,1,1209.824,218.489Z"/><path class="b" d="M1218.788,229.853a6.041,6.041,0,0,1-2.3-2.292,6.957,6.957,0,0,1,0-6.624,5.962,5.962,0,0,1,2.3-2.28,7.032,7.032,0,0,1,6.576,0,5.87,5.87,0,0,1,2.292,2.28,7.045,7.045,0,0,1,0,6.624,5.947,5.947,0,0,1-2.292,2.292,6.942,6.942,0,0,1-6.576,0Zm5.7-1.3a4.274,4.274,0,0,0,1.668-1.74,5.8,5.8,0,0,0,0-5.136,4.274,4.274,0,0,0-1.668-1.74,5.059,5.059,0,0,0-4.824,0,4.355,4.355,0,0,0-1.681,1.74,5.7,5.7,0,0,0,0,5.136,4.355,4.355,0,0,0,1.681,1.74,5.059,5.059,0,0,0,4.824,0Z"/></g></g></svg>