<svg xmlns="http://www.w3.org/2000/svg" width="26.051" height="22.492" viewBox="0 0 26.051 22.492"><defs><style>.a{fill:#800340;}</style></defs><g transform="translate(-140 -554)"><path class="a" d="M1277.953,688.656a2.573,2.573,0,0,0-2.661-2.646h-8.2q-4.353,0-8.706,0a2.516,2.516,0,0,0-2.541,2.063,10.848,10.848,0,0,0-.071,1.762c-.01,1,0,2,0,3.035H1254a2.021,2.021,0,0,0-2.089,2.1q0,1.929,0,3.858c0,2.34,0,4.68,0,7.02a2.555,2.555,0,0,0,2.452,2.632c.542.037,1.089.019,1.633.019q9.616,0,19.233-.006a3.221,3.221,0,0,0,1-.151,2.543,2.543,0,0,0,1.727-2.535q0-4.7,0-9.4C1277.958,693.818,1277.962,691.237,1277.953,688.656Zm-22.192,7.691q0,4.727,0,9.453a.931.931,0,0,1-1.023,1.033c-.071,0-.143,0-.214,0a.9.9,0,0,1-.968-.972q0-3.7,0-7.391,0-1.727,0-3.455c0-.394.1-.491.485-.491h1.724C1255.762,695.155,1255.762,695.751,1255.762,696.348Zm4.352-5.924a.876.876,0,0,1,.945-.929c.785,0,1.57,0,2.355,0v0c.767,0,1.534,0,2.3,0a.882.882,0,0,1,.972.956q.006,1.619,0,3.239a.861.861,0,0,1-.878.915q-2.408.017-4.817,0a.854.854,0,0,1-.88-.911Q1260.1,692.057,1260.114,690.424Zm0,6.7a.617.617,0,0,1,.7-.691c.678,0,1.357,0,2.036,0q4.982,0,9.965,0c.61,0,.76.16.76.763,0,.072,0,.143,0,.214,0,.46-.214.679-.667.68-1.053,0-2.107,0-3.161,0h-2.92v0q-3,0-6,0c-.493,0-.7-.213-.709-.7C1260.111,697.3,1260.109,697.212,1260.11,697.122Zm8.3-3.542a.578.578,0,0,1,.632-.631c.562-.01,1.123-.005,1.685-.006h2.112c.529,0,.731.2.731.72,0,.1,0,.2,0,.294a.576.576,0,0,1-.644.645c-.642.007-1.283,0-1.925,0v0h-1.845c-.541,0-.745-.2-.746-.733C1268.408,693.777,1268.407,693.679,1268.408,693.581Zm5.159,10.829a.578.578,0,0,1-.642.621q-2.382,0-4.764,0h-7.281c-.564,0-.767-.2-.768-.773,0-.08,0-.161,0-.241a.6.6,0,0,1,.657-.643q1.994,0,3.988,0h8.083c.556,0,.735.182.73.739C1273.57,704.214,1273.571,704.312,1273.567,704.41Zm0-3.5a.586.586,0,0,1-.661.635q-2.25,0-4.5,0h-1.58q-3,0-6,0c-.5,0-.713-.217-.716-.718,0-.1,0-.2,0-.295a.6.6,0,0,1,.656-.643H1272.8c.6,0,.768.164.773.754C1273.57,700.735,1273.573,700.825,1273.57,700.914Zm-1-9.756c-1.159-.026-2.319-.005-3.479-.008-.474,0-.662-.215-.687-.688-.042-.806.178-1.008.966-.972.543.025,1.088,0,1.632,0,.642,0,1.284,0,1.927,0a.569.569,0,0,1,.644.637C1273.6,690.911,1273.5,691.179,1272.569,691.158Z" transform="translate(-1111.908 -132.008)"/></g></svg>