<svg xmlns="http://www.w3.org/2000/svg" width="26" height="27.575" viewBox="0 0 26 27.575"><defs><style>.a{fill:#800340;}</style></defs><path class="a" d="M738.329,777.592q0-5.666,0-11.332a1.946,1.946,0,0,0-2.093-2.08H714.42a1.935,1.935,0,0,0-2.09,2.1q0,5.857,0,11.715h0q0,5.857,0,11.715a1.916,1.916,0,0,0,2.059,2.044h13.958q4,0,7.992,0a1.885,1.885,0,0,0,1.925-1.467,4.263,4.263,0,0,0,.06-.925Q738.333,783.477,738.329,777.592Zm-13.92-9.137q2.312,0,4.625,0a.846.846,0,1,1,0,1.683h-2.3c-.775,0-1.551,0-2.326,0a.837.837,0,0,1-.9-.825A.851.851,0,0,1,724.409,768.455Zm-.823,3.765a.828.828,0,0,1,.814-.491q2.3,0,4.6,0v0h4.541a.852.852,0,0,1,.937.845.863.863,0,0,1-.923.841q-4.555,0-9.11,0A.848.848,0,0,1,723.586,772.22Zm-7.5-2.908a1.384,1.384,0,0,1,1.356-1.4c.957-.017,1.915-.016,2.872,0a1.364,1.364,0,0,1,1.357,1.363c.011.556,0,1.112,0,1.669,0,.538.007,1.076,0,1.614a1.374,1.374,0,0,1-1.4,1.4q-1.381.016-2.762,0a1.387,1.387,0,0,1-1.42-1.447Q716.079,770.912,716.087,769.312Zm17.047,18.723q-4.42,0-8.84,0-3.339,0-6.678,0a1.412,1.412,0,0,1-1.532-1.533c0-3.011.016-6.022-.008-9.033a1.475,1.475,0,0,1,1.554-1.545c2.572.028,5.145.009,7.718.009h7.773a1.38,1.38,0,0,1,1.461,1.454q0,4.6,0,9.2A1.4,1.4,0,0,1,733.134,788.035Z" transform="translate(-712.33 -764.18)"/></svg>