<svg xmlns="http://www.w3.org/2000/svg" width="22" height="22" viewBox="0 0 22 22"><defs><style>.a{fill:#800040;}</style></defs><path class="a" d="M5.156,0V18.133H0v.645A3.226,3.226,0,0,0,3.223,22H18.777A3.226,3.226,0,0,0,22,18.777V0ZM3.223,20.711A1.937,1.937,0,0,1,1.4,19.422h14.22a3.21,3.21,0,0,0,.581,1.289ZM18.133,9.044a8.336,8.336,0,0,0-4.939,2.041,7.209,7.209,0,0,1-4.17,1.783v-9h9.109ZM9.023,18.133V14.16a8.336,8.336,0,0,0,4.939-2.041,7.209,7.209,0,0,1,4.17-1.783v8.442a1.94,1.94,0,0,1-.645,1.439,1.929,1.929,0,0,1-.644-1.439v-.645Zm10.4.645c0,1.066.422,1.934-.645,1.934,0,0,1.109.706,1.109,0L19.422,2.578H7.734V18.133h0V2.578H19.422Z"/><path class="a" d="M301,150h1.289v1.289H301Z" transform="translate(-288.066 -143.555)"/><path class="a" d="M361,150h1.289v1.289H361Z" transform="translate(-345.488 -143.555)"/><path class="a" d="M241,150h1.289v1.289H241Z" transform="translate(-230.644 -143.555)"/></svg>