<svg xmlns="http://www.w3.org/2000/svg" width="266" height="149.5" viewBox="0 0 266 149.5">
  <g id="low_risk" data-name="low risk" transform="translate(-194.5 -439)">
    <g id="Group_1632" data-name="Group 1632" transform="translate(-761.461 309.734)">
      <path id="Path_1203" data-name="Path 1203" d="M1102.941,187.863a84.318,84.318,0,0,1,87.738-1.938l24.736-38.076a129.839,129.839,0,0,0-138.725,2.976Z" transform="translate(-59.945)" fill="#fe9104"/>
      <path id="Path_1204" data-name="Path 1204" d="M1037.336,218.058l-26.242-37.026a129.71,129.71,0,0,0-52.633,103.556h45.358a84.336,84.336,0,0,1,33.517-66.53Z" transform="translate(0 -26.246)" fill="#18a378"/>
      <path id="Path_1205" data-name="Path 1205" d="M1391.421,231.6a130.391,130.391,0,0,0-46.959-57.1l-24.722,38.053a85.243,85.243,0,0,1,22.108,22.342,84.089,84.089,0,0,1,14.435,46.381h45.352A129.676,129.676,0,0,0,1391.421,231.6Z" transform="translate(-183.174 -22.934)" fill="#ba0404"/>
    </g>
    <line id="Line_37" data-name="Line 37" x2="260" transform="translate(197.5 585.5)" fill="none" stroke="#e4e4e4" stroke-linecap="round" stroke-width="6"/>
    <g id="Group_1636" data-name="Group 1636" transform="translate(-790.672 280.008)">
      <g id="Group_1633" data-name="Group 1633" transform="translate(1080.597 179.4)">
        <path id="Path_1207" data-name="Path 1207" d="M1151.559,186.671l3.069,9.926-1.007.309-2.459-7.939-1.832,7.883-.5.155-5.948-5.431,2.443,7.9-1.007.311-3.069-9.924.865-.268,6.583,6.026,2-8.678Z" transform="translate(-1141.249 -182.818)" fill="#fff"/>
        <path id="Path_1208" data-name="Path 1208" d="M1171.454,196.226a3.713,3.713,0,0,1-1.666-1.128,4.115,4.115,0,0,1-.888-1.915,3.932,3.932,0,0,1,.135-2.11,3.694,3.694,0,0,1,1.134-1.65,4.181,4.181,0,0,1,1.9-.872,4.061,4.061,0,0,1,2.086.117,3.687,3.687,0,0,1,1.666,1.122,4.053,4.053,0,0,1,.88,1.919,4.257,4.257,0,0,1-.119,2.106,3.74,3.74,0,0,1-1.134,1.658,4.3,4.3,0,0,1-4,.753Zm3.315-1.441a2.769,2.769,0,0,0,.825-1.249,3.62,3.62,0,0,0-.595-3.121,2.681,2.681,0,0,0-1.213-.865,2.96,2.96,0,0,0-1.547-.1,2.926,2.926,0,0,0-1.388.648,2.713,2.713,0,0,0-.825,1.251,3.514,3.514,0,0,0,.587,3.121,2.764,2.764,0,0,0,1.229.863,2.9,2.9,0,0,0,1.531.1A2.99,2.99,0,0,0,1174.77,194.784Z" transform="translate(-1154.203 -183.661)" fill="#fff"/>
        <path id="Path_1209" data-name="Path 1209" d="M1193.7,179.4l1.031,10.965-1.007.1-.143-1.537a3.327,3.327,0,0,1-1.142,1.313,3.678,3.678,0,0,1-1.7.579,3.972,3.972,0,0,1-2.038-.317,3.7,3.7,0,0,1-1.523-1.273,4.249,4.249,0,0,1-.69-2.007,4.368,4.368,0,0,1,.309-2.1,3.608,3.608,0,0,1,1.261-1.527,3.984,3.984,0,0,1,1.935-.682,3.669,3.669,0,0,1,1.737.234,3.243,3.243,0,0,1,1.356,1.027l-.436-4.669Zm-1.539,9.961a2.685,2.685,0,0,0,.928-1.17,3.387,3.387,0,0,0,.238-1.616,3.285,3.285,0,0,0-.531-1.545,2.69,2.69,0,0,0-1.134-.976,2.914,2.914,0,0,0-1.507-.238,2.947,2.947,0,0,0-1.443.518,2.815,2.815,0,0,0-.944,1.168,3.592,3.592,0,0,0,.309,3.162,2.634,2.634,0,0,0,1.134.972,3.074,3.074,0,0,0,2.95-.276Z" transform="translate(-1162.493 -179.4)" fill="#fff"/>
        <path id="Path_1210" data-name="Path 1210" d="M1213.163,189.254l-6.519.105a2.727,2.727,0,0,0,.96,1.953,3.121,3.121,0,0,0,2.157.714,3.368,3.368,0,0,0,1.324-.282,2.951,2.951,0,0,0,1.047-.781l.6.674a3.428,3.428,0,0,1-1.285.97,4.387,4.387,0,0,1-1.705.355,4.329,4.329,0,0,1-2.141-.478,3.609,3.609,0,0,1-1.467-1.4,4.062,4.062,0,0,1-.555-2.036,4.2,4.2,0,0,1,.468-2.058,3.5,3.5,0,0,1,1.34-1.43,4.01,4.01,0,0,1,3.894-.065,3.646,3.646,0,0,1,1.38,1.38,4.2,4.2,0,0,1,.508,2.048Zm-5.695-2.574a2.8,2.8,0,0,0-.841,1.892l5.528-.087a2.81,2.81,0,0,0-.888-1.864,2.69,2.69,0,0,0-1.919-.688A2.623,2.623,0,0,0,1207.468,186.68Z" transform="translate(-1171.479 -182.044)" fill="#fff"/>
        <path id="Path_1211" data-name="Path 1211" d="M1226.327,185.9a3.789,3.789,0,0,1,1.847-.28l-.071,1.021-.254-.03a2.5,2.5,0,0,0-1.974.627,3.013,3.013,0,0,0-.833,2.07l-.277,3.967-1.039-.069.516-7.788,1.007.067-.1,1.525A2.505,2.505,0,0,1,1226.327,185.9Z" transform="translate(-1180.01 -182.226)" fill="#fff"/>
        <path id="Path_1212" data-name="Path 1212" d="M1240.016,187.919a3.031,3.031,0,0,1,.5,2.354l-.658,4.794-1.007-.137.167-1.206a2.376,2.376,0,0,1-1.158.8,3.64,3.64,0,0,1-1.673.115,3.2,3.2,0,0,1-1.975-.9,2.032,2.032,0,0,1-.539-1.737,1.982,1.982,0,0,1,.928-1.491,3.535,3.535,0,0,1,2.356-.291l2.451.335.064-.47a1.983,1.983,0,0,0-.349-1.6,2.315,2.315,0,0,0-1.554-.746,4.231,4.231,0,0,0-1.443.05,3.536,3.536,0,0,0-1.253.512l-.373-.845a4.245,4.245,0,0,1,1.523-.581,5.659,5.659,0,0,1,1.777-.034A3.353,3.353,0,0,1,1240.016,187.919Zm-1.991,5.72a2.445,2.445,0,0,0,1.11-1.039l.167-1.263-2.419-.333c-1.332-.182-2.054.188-2.181,1.11a1.276,1.276,0,0,0,.373,1.138,2.31,2.31,0,0,0,1.38.585A2.738,2.738,0,0,0,1238.025,193.64Z" transform="translate(-1184.675 -182.873)" fill="#fff"/>
        <path id="Path_1213" data-name="Path 1213" d="M1254.653,195.519a1.978,1.978,0,0,1-.809.248,3.007,3.007,0,0,1-.92-.048,2.238,2.238,0,0,1-1.531-.93,2.276,2.276,0,0,1-.246-1.763l.975-4.62-1.364-.287.182-.868,1.364.286.349-1.671,1.031.218-.349,1.67,2.324.488-.182.872-2.324-.488-.96,4.56a1.454,1.454,0,0,0,.127,1.11,1.329,1.329,0,0,0,.9.561,1.991,1.991,0,0,0,.642.028,1.688,1.688,0,0,0,.579-.182Z" transform="translate(-1192.711 -182.438)" fill="#fff"/>
        <path id="Path_1214" data-name="Path 1214" d="M1268.243,197.884l-6.3-1.785a2.861,2.861,0,0,0,.365,2.147,3.148,3.148,0,0,0,1.856,1.3,3.33,3.33,0,0,0,1.348.113,2.938,2.938,0,0,0,1.237-.446l.381.819a3.339,3.339,0,0,1-1.507.559,4.408,4.408,0,0,1-1.745-.155,4.319,4.319,0,0,1-1.9-1.073,3.566,3.566,0,0,1-1-1.759,4,4,0,0,1,.048-2.114,4.272,4.272,0,0,1,1.047-1.834,3.491,3.491,0,0,1,1.7-.983,4,4,0,0,1,3.744,1.065,3.65,3.65,0,0,1,.92,1.719,4.368,4.368,0,0,1-.1,2.11Zm-4.727-4.11a2.816,2.816,0,0,0-1.348,1.568l5.33,1.513a2.811,2.811,0,0,0-.333-2.044,2.6,2.6,0,0,0-1.634-1.212A2.653,2.653,0,0,0,1263.516,193.774Z" transform="translate(-1197.462 -185.588)" fill="#fff"/>
      </g>
      <g id="Group_1634" data-name="Group 1634" transform="translate(1012.188 229.32)">
        <path id="Path_1215" data-name="Path 1215" d="M1012.187,319.424l.389-1.031,8.835,3.315,2.046-5.449.888.337-2.427,6.472Z" transform="translate(-1012.187 -293.638)" fill="#fff"/>
        <path id="Path_1216" data-name="Path 1216" d="M1030.793,305.886a3.763,3.763,0,0,1-1.9.674,4.013,4.013,0,0,1-2.07-.412,3.969,3.969,0,0,1-1.626-1.35,3.564,3.564,0,0,1-.658-1.892,3.958,3.958,0,0,1,.412-2.052,4.087,4.087,0,0,1,1.324-1.618,3.682,3.682,0,0,1,1.88-.674,4.091,4.091,0,0,1,2.078.42,4.163,4.163,0,0,1,1.626,1.342,3.616,3.616,0,0,1,.666,1.888,4.334,4.334,0,0,1-1.737,3.674Zm.785-3.529a2.626,2.626,0,0,0-.531-1.394,3.231,3.231,0,0,0-1.269-1.019,3.308,3.308,0,0,0-1.586-.347,2.626,2.626,0,0,0-1.42.468,3.228,3.228,0,0,0-1.293,2.693,2.732,2.732,0,0,0,.531,1.4,3.54,3.54,0,0,0,2.863,1.366,2.688,2.688,0,0,0,1.42-.474,3.089,3.089,0,0,0,1.285-2.695Z" transform="translate(-1017.984 -285.317)" fill="#fff"/>
        <path id="Path_1217" data-name="Path 1217" d="M1036.16,273.58l5.116,6.6-.516.847-6.734-1.243,4.156,5.447-.524.847-8.185-1.578.524-.86,6.94,1.382-4.346-5.607.476-.773,6.948,1.344-4.354-5.58Z" transform="translate(-1020.311 -273.58)" fill="#fff"/>
      </g>
      <g id="Group_1635" data-name="Group 1635" transform="translate(1200.055 224.765)">
        <path id="Path_1218" data-name="Path 1218" d="M1380.106,272.133l-8.55,5.9-.619-.892,3.95-2.726-3.7-5.347-3.95,2.724-.619-.9,8.55-5.9.634.9-3.823,2.629,3.7,5.349,3.807-2.629Z" transform="translate(-1366.623 -264.987)" fill="#fff"/>
        <path id="Path_1219" data-name="Path 1219" d="M1385.455,285.7l.524.91-6.726,3.928-.555-.908Zm1.666-.984a.672.672,0,0,1,.349-.46.7.7,0,0,1,.555-.071.761.761,0,0,1,.476.363.847.847,0,0,1,.1.585.756.756,0,0,1-.349.45.719.719,0,0,1-.571.083.748.748,0,0,1-.476-.363A.765.765,0,0,1,1387.12,284.715Z" transform="translate(-1372.292 -273.995)" fill="#fff"/>
        <path id="Path_1220" data-name="Path 1220" d="M1390.894,301.089l-6.138,3.04a3.424,3.424,0,0,1-5.235-1.769,5.8,5.8,0,0,1-.619-1.983,4.007,4.007,0,0,1,.079-1.81l.952.125a4.31,4.31,0,0,0-.1,1.578,5.186,5.186,0,0,0,.508,1.648,2.959,2.959,0,0,0,1.586,1.65,2.875,2.875,0,0,0,2.221-.325l.888-.438a3.238,3.238,0,0,1-1.57-.65,4.049,4.049,0,0,1-1.126-1.41,4.125,4.125,0,0,1-.46-2,3.661,3.661,0,0,1,.587-1.862,4.024,4.024,0,0,1,3.521-1.739,3.518,3.518,0,0,1,1.824.662,4.322,4.322,0,0,1,1.316,1.586,4.083,4.083,0,0,1,.428,1.788,3.111,3.111,0,0,1-.46,1.667l1.349-.662Zm-6.661.545a2.581,2.581,0,0,0,1.38.5,2.813,2.813,0,0,0,1.491-.319,2.778,2.778,0,0,0,1.158-.993,2.69,2.69,0,0,0,.444-1.392,3.221,3.221,0,0,0-.365-1.536,3.1,3.1,0,0,0-.984-1.208,2.589,2.589,0,0,0-1.364-.5,2.926,2.926,0,0,0-1.507.317,2.858,2.858,0,0,0-1.158,1,2.45,2.45,0,0,0-.444,1.394,3.138,3.138,0,0,0,.349,1.527A2.989,2.989,0,0,0,1384.232,301.634Z" transform="translate(-1372.367 -279.154)" fill="#fff"/>
        <path id="Path_1221" data-name="Path 1221" d="M1399.209,317.573a3.279,3.279,0,0,1-2.03,1.691l-4.219,1.6-.381-.983,4.14-1.564a2.587,2.587,0,0,0,1.523-1.225,2.344,2.344,0,0,0-.016-1.852,2.71,2.71,0,0,0-1.412-1.6,2.83,2.83,0,0,0-2.189.046l-3.839,1.449-.364-.985,10.294-3.9.381.985-4.283,1.618a2.834,2.834,0,0,1,1.4.738,3.766,3.766,0,0,1,.968,1.493A3.219,3.219,0,0,1,1399.209,317.573Z" transform="translate(-1377.805 -286.259)" fill="#fff"/>
      </g>
    </g>
    <path id="Path_3434" data-name="Path 3434" d="M544.707,148.066l-7.07,78.442c-1.085,10.928,2.376,14.115,7.07,14.115h0c4.693,0,8.154-3.186,7.069-14.115Z" transform="translate(-117.215 957.685) rotate(-65)" fill="#707070"/>
  </g>
</svg>
