<svg xmlns="http://www.w3.org/2000/svg" width="32" height="32" viewBox="0 0 32 32"><defs><style>.a{fill:#800040;}</style></defs><path class="a" d="M16,0A16,16,0,1,0,32,16,16,16,0,0,0,16,0Zm0,29.714A13.714,13.714,0,1,1,29.714,16,13.714,13.714,0,0,1,16,29.714Z"/><g transform="translate(11.429 10.285)"><path class="a" d="M181.976,158.793a1.143,1.143,0,0,0-.513-.513l-9.143-4.571a1.143,1.143,0,0,0-1.654,1.023v9.143a1.143,1.143,0,0,0,1.654,1.023l9.143-4.571A1.143,1.143,0,0,0,181.976,158.793Z" transform="translate(-170.666 -153.587)"/></g></svg>