<svg xmlns="http://www.w3.org/2000/svg" width="75" height="74.176" viewBox="0 0 75 74.176"><defs><style>.a{fill:#800040;}.b{fill:#fff;}</style></defs><g transform="translate(-140 -915)"><rect class="a" width="75" height="74.176" rx="37.088" transform="translate(140 915)"/><g transform="translate(156 932)"><path class="b" d="M211.667,201.415h-4.856v-1.149c.019-.014.042-.049.065-.049,1.63-.007,3.26-.032,4.89-.007a1.206,1.206,0,0,1,1.126,1.348q.007,3.958,0,7.917,0,6.846,0,13.692a4.622,4.622,0,0,1-4.784,4.788q-17.378-.024-34.756-.052a3.059,3.059,0,0,1-3.317-3.344q0-16.346,0-32.693a3.065,3.065,0,0,1,3.357-3.351H201.72a2.9,2.9,0,0,1,3.2,3.206q0,15.694,0,31.389a3.431,3.431,0,0,0,1.48,3.044,3.191,3.191,0,0,0,3.44.232,3.147,3.147,0,0,0,1.85-2.91c.021-7.249.01-14.5.01-21.749C211.691,201.65,211.68,201.574,211.667,201.415Zm-6.449,25.341c-1.438-1.346-1.5-2.979-1.5-4.673q.033-15.183.01-30.366A1.777,1.777,0,0,0,201.7,189.7H173.372a1.907,1.907,0,0,0-2.134,2.118q0,16.417,0,32.834a1.885,1.885,0,0,0,2.086,2.107h31.894Z" transform="translate(-169.757 -188.235)"/><path class="b" d="M208.947,198.694v-.279H204.09v.279h.279v-1.149h-.279l.172.22a.446.446,0,0,0,.042-.038l.008-.009-.064-.065.06.069,0,0-.064-.065.06.069-.131-.153.093.179a.2.2,0,0,0,.038-.025l-.131-.153.093.179-.114-.219v.247a.247.247,0,0,0,.113-.027l-.114-.219v.247c1.11,0,2.219-.018,3.325-.018q.78,0,1.559.011a.784.784,0,0,1,.707.439,1.342,1.342,0,0,1,.144.63q0,1.883,0,3.766,0,2.075,0,4.151,0,3.959,0,7.918,0,2.887,0,5.773a4.343,4.343,0,0,1-4.5,4.509h-.007q-17.378-.024-34.756-.052a3.78,3.78,0,0,1-1.3-.213,2.462,2.462,0,0,1-1.278-1.023,3.427,3.427,0,0,1-.458-1.83v0l-.279,0,.277.032a.272.272,0,0,0,0-.034l-.279,0,.277.032,0-.016v-.016q0-6.961,0-13.922,0-9.385,0-18.771a3.888,3.888,0,0,1,.21-1.321,2.453,2.453,0,0,1,1.021-1.29,3.451,3.451,0,0,1,1.847-.46H199a3.8,3.8,0,0,1,1.269.2,2.447,2.447,0,0,1,.707.384,2.274,2.274,0,0,1,.694.939,3.7,3.7,0,0,1,.246,1.407q0,6.957,0,13.913,0,8.738,0,17.475h0v.005a4.329,4.329,0,0,0,.369,1.841,3.509,3.509,0,0,0,1.232,1.43,3.606,3.606,0,0,0,2.051.676,3.657,3.657,0,0,0,1.674-.427,3.742,3.742,0,0,0,1.47-1.281,3.412,3.412,0,0,0,.533-1.876q.015-5.346.013-10.692,0-5.529,0-11.057c0-.053,0-.1-.008-.151s-.01-.107-.017-.184l-.02-.257h-.258v.279l-.279.022c.007.082.013.144.017.19s.006.076.006.1q0,5.529,0,11.057,0,5.346-.013,10.69a2.852,2.852,0,0,1-.443,1.574,3.184,3.184,0,0,1-1.255,1.087,3.1,3.1,0,0,1-1.419.365,3.044,3.044,0,0,1-1.736-.579,2.946,2.946,0,0,1-1.041-1.2,3.773,3.773,0,0,1-.317-1.605v0h0q.006-8.738,0-17.476,0-6.957,0-13.913a4.388,4.388,0,0,0-.228-1.46,3.017,3.017,0,0,0-.471-.869,2.828,2.828,0,0,0-1.162-.867,4.216,4.216,0,0,0-1.615-.289H170.672a4.468,4.468,0,0,0-1.514.243,3.019,3.019,0,0,0-1.577,1.25,3.989,3.989,0,0,0-.545,2.138q0,9.385,0,18.771,0,6.961,0,13.922h.279l-.278-.032a.28.28,0,0,0,0,.03v0l.275,0h-.275v0l.275,0h-.275a4.417,4.417,0,0,0,.242,1.5,3.037,3.037,0,0,0,1.24,1.573,3.919,3.919,0,0,0,2.114.551q17.378.028,34.756.052h.008a4.9,4.9,0,0,0,5.056-5.067q0-2.887,0-5.774,0-3.959,0-7.918,0-2.075,0-4.151,0-1.883,0-3.767a1.783,1.783,0,0,0-.37-1.135,1.33,1.33,0,0,0-.449-.357,1.37,1.37,0,0,0-.582-.135q-.784-.012-1.568-.011c-1.111,0-2.22.013-3.328.018a.305.305,0,0,0-.1.016.329.329,0,0,0-.095.05.459.459,0,0,0-.053.048l0,0h0l.123.13-.11-.141-.013.011.123.13-.11-.141-.107.084v1.564h5.136v-.279l-.279.022ZM202.5,224.035l.191-.2a4.143,4.143,0,0,1-.775-.969,4.547,4.547,0,0,1-.533-1.6,11.857,11.857,0,0,1-.1-1.78q0-.057,0-.114h0q.016-7.546.014-15.093,0-7.637,0-15.274a3.144,3.144,0,0,0-.139-.98,1.908,1.908,0,0,0-.3-.582,1.765,1.765,0,0,0-.779-.564,3.05,3.05,0,0,0-1.089-.175H170.651a3.11,3.11,0,0,0-1.01.152,2.075,2.075,0,0,0-.606.323,1.927,1.927,0,0,0-.6.808,2.95,2.95,0,0,0-.2,1.114q0,10.492,0,20.984,0,5.925,0,11.85a3.062,3.062,0,0,0,.151,1,2.059,2.059,0,0,0,.32.6,1.912,1.912,0,0,0,.8.6,2.885,2.885,0,0,0,1.1.194h32.6l-.517-.484-.191.2v-.279H170.6a2.429,2.429,0,0,1-.8-.121,1.475,1.475,0,0,1-.432-.234,1.366,1.366,0,0,1-.419-.575,2.408,2.408,0,0,1-.151-.9q0-5.925,0-11.85,0-10.492,0-20.984a2.5,2.5,0,0,1,.123-.82,1.493,1.493,0,0,1,.237-.44,1.376,1.376,0,0,1,.582-.425,2.452,2.452,0,0,1,.913-.153H198.98a2.631,2.631,0,0,1,.81.11,1.363,1.363,0,0,1,.416.213,1.2,1.2,0,0,1,.388.534,2.464,2.464,0,0,1,.139.885q0,7.637,0,15.274,0,7.546-.014,15.091h0c0,.039,0,.077,0,.116a9.882,9.882,0,0,0,.23,2.475,4.758,4.758,0,0,0,.477,1.187,4.7,4.7,0,0,0,.878,1.1l.191-.2v0Z" transform="translate(-167.036 -185.514)"/><path class="b" d="M228.042,253.987H216.069c-.817,0-.97-.155-.97-.981q0-3.912,0-7.823c0-.79.176-.972.946-.972h24.131c.722,0,.9.177.9.916q0,3.981,0,7.963c0,.714-.188.9-.917.9Zm11.816-8.56H216.385v7.345h23.472Z" transform="translate(-210.622 -238.743)"/><path class="b" d="M225.321,251.267v-.279H213.349a2.231,2.231,0,0,1-.438-.031.365.365,0,0,1-.135-.05.139.139,0,0,1-.04-.042.49.49,0,0,1-.056-.182,2.725,2.725,0,0,1-.022-.4q0-2.431,0-4.862,0-1.481,0-2.961a2.054,2.054,0,0,1,.033-.425.4.4,0,0,1,.054-.141.164.164,0,0,1,.046-.046.447.447,0,0,1,.17-.058,2.139,2.139,0,0,1,.363-.024h24.131a1.712,1.712,0,0,1,.38.032.332.332,0,0,1,.12.049.151.151,0,0,1,.04.043.451.451,0,0,1,.054.165,2.108,2.108,0,0,1,.023.349q0,1.8,0,3.6,0,2.18,0,4.36a1.636,1.636,0,0,1-.033.375.339.339,0,0,1-.051.122.165.165,0,0,1-.046.043.454.454,0,0,1-.166.056,2,2,0,0,1-.343.023H225.321v.559h12.112a2.265,2.265,0,0,0,.515-.047.917.917,0,0,0,.321-.138.724.724,0,0,0,.185-.189.965.965,0,0,0,.142-.367,2.381,2.381,0,0,0,.034-.436q0-2.18,0-4.36,0-1.8,0-3.6a2.358,2.358,0,0,0-.046-.517.91.91,0,0,0-.136-.322.709.709,0,0,0-.189-.186.959.959,0,0,0-.367-.139,2.487,2.487,0,0,0-.437-.032H213.324a2.376,2.376,0,0,0-.537.048.908.908,0,0,0-.332.146.729.729,0,0,0-.188.2,1.04,1.04,0,0,0-.137.387,2.884,2.884,0,0,0-.031.469q0,1.48,0,2.961,0,2.431,0,4.862a2.824,2.824,0,0,0,.043.559.93.93,0,0,0,.137.342.7.7,0,0,0,.2.195,1.01,1.01,0,0,0,.392.137,3.13,3.13,0,0,0,.477.029h11.972Zm11.816-8.56v-.279H213.385v7.9h24.031v-7.9h-.279v.279h-.279v7.345h.279v-.279H213.665v.279h.279v-7.345h-.279v.279h23.472v-.279h0Z" transform="translate(-207.902 -236.022)"/><path class="b" d="M222.093,396.8v-1.122h24.75V396.8Z" transform="translate(-216.965 -376.101)"/><path class="b" d="M219.372,394.077h.279v-1.122h-.279v.279h24.75v-.279h-.279v1.122h.279V393.8h-24.75v.279h0v.279H244.4v-1.681H219.093v1.681h.279Z" transform="translate(-214.244 -373.381)"/><path class="b" d="M236.93,510.418H222.67v-1.161h14.26Z" transform="translate(-217.488 -479.103)"/><path class="b" d="M234.21,507.7v-.279h-14.26v.279h.279v-1.161h-.279v.28h14.26v-.28h-.279V507.7h.279v0h.279v-1.44H219.67v1.72h14.819V507.7Z" transform="translate(-214.768 -476.382)"/><path class="b" d="M236.91,453.216H222.652V452.09H236.91Z" transform="translate(-217.472 -427.261)"/><path class="b" d="M234.189,450.5v-.279H219.931v.279h.279v-1.126h-.279v.279h14.258v-.279h-.279V450.5h.279v0h.279V449.09H219.652v1.685h14.817V450.5Z" transform="translate(-214.751 -424.54)"/><path class="b" d="M404.324,510.5v-1.134h7.784V510.5Z" transform="translate(-382.223 -479.199)"/><path class="b" d="M401.6,507.776h.279v-1.134H401.6v.28h7.784v-.28h-.279v1.134h.279V507.5H401.6v.279h0v.279h8.063v-1.693h-8.343v1.693h.279Z" transform="translate(-379.502 -476.479)"/><path class="b" d="M404.51,452.042h7.771v1.12H404.51Z" transform="translate(-382.391 -427.217)"/><path class="b" d="M401.789,449.321v.279h7.771v-.279h-.279v1.12h.279v-.279h-7.771v.279h.279v-1.12h-.279v0h-.279v1.4h8.33v-1.679h-8.33v.279Z" transform="translate(-379.671 -424.497)"/></g></g></svg>