<svg xmlns="http://www.w3.org/2000/svg" width="75" height="74.176" viewBox="0 0 75 74.176"><defs><style>.a{fill:#800040;}.b{fill:#fff;}</style></defs><g transform="translate(-140 -915)"><rect class="a" width="75" height="74.176" rx="37.088" transform="translate(140 915)"/><path class="b" d="M1283.9,689.261a3.161,3.161,0,0,0-3.269-3.25l-10.069,0q-5.347,0-10.694,0a3.091,3.091,0,0,0-3.121,2.534,13.328,13.328,0,0,0-.087,2.164c-.012,1.227,0,2.454,0,3.728h-2.182a2.483,2.483,0,0,0-2.566,2.575q0,2.37,0,4.739c0,2.874,0,5.749,0,8.623a3.139,3.139,0,0,0,3.012,3.233c.666.046,1.337.023,2.006.024q11.813,0,23.625-.007a3.957,3.957,0,0,0,1.226-.186,3.123,3.123,0,0,0,2.121-3.114q.006-5.776,0-11.552C1283.907,695.6,1283.912,692.432,1283.9,689.261Zm-27.26,9.448q0,5.806,0,11.612a1.144,1.144,0,0,1-1.257,1.269c-.088,0-.175,0-.263,0a1.111,1.111,0,0,1-1.189-1.194q-.006-4.54,0-9.079,0-2.122,0-4.244c0-.484.118-.6.6-.6h2.118C1256.642,697.244,1256.642,697.977,1256.642,698.709Zm5.347-7.277a1.076,1.076,0,0,1,1.161-1.141c.964,0,1.929,0,2.893,0v0c.942,0,1.885,0,2.827,0a1.083,1.083,0,0,1,1.194,1.174q.008,1.989,0,3.979a1.058,1.058,0,0,1-1.078,1.124q-2.958.021-5.917,0a1.049,1.049,0,0,1-1.081-1.119Q1261.977,693.438,1261.988,691.432Zm0,8.228a.758.758,0,0,1,.857-.849c.833-.006,1.667,0,2.5,0q6.12,0,12.24,0c.749,0,.933.2.933.937,0,.088,0,.176,0,.263-.005.565-.263.834-.819.836-1.294,0-2.588,0-3.883,0h-3.587v0q-3.685,0-7.37,0c-.605,0-.862-.262-.871-.861C1261.984,699.88,1261.982,699.771,1261.984,699.661Zm10.193-4.351a.71.71,0,0,1,.777-.776c.69-.012,1.379-.006,2.069-.007h2.595c.65,0,.9.247.9.885,0,.12,0,.241,0,.361a.707.707,0,0,1-.791.792c-.788.008-1.577,0-2.365,0v0q-1.133,0-2.266,0c-.664,0-.915-.245-.916-.9C1272.176,695.551,1272.175,695.431,1272.177,695.31Zm6.337,13.3a.71.71,0,0,1-.789.763q-2.926,0-5.852,0-4.472,0-8.943,0c-.693,0-.943-.247-.943-.95,0-.1,0-.2,0-.3a.734.734,0,0,1,.807-.789q2.449,0,4.9,0h9.929c.683,0,.9.224.9.908C1278.517,708.372,1278.518,708.492,1278.514,708.613Zm0-4.294a.72.72,0,0,1-.812.78q-2.764,0-5.528,0h-1.941q-3.685,0-7.37,0c-.615,0-.876-.266-.879-.882,0-.121,0-.241,0-.362a.736.736,0,0,1,.807-.79l9.147,0,5.627,0c.736,0,.943.2.95.926C1278.517,704.1,1278.521,704.209,1278.517,704.318Zm-1.229-11.984c-1.424-.032-2.849-.007-4.273-.01-.583,0-.813-.263-.843-.845-.051-.99.219-1.239,1.187-1.194.667.031,1.337.006,2,.006.789,0,1.578,0,2.367,0a.7.7,0,0,1,.791.782C1278.548,692.031,1278.435,692.36,1277.288,692.334Z" transform="translate(-1089.908 251.992)"/></g></svg>