<svg xmlns="http://www.w3.org/2000/svg" width="32" height="32" viewBox="0 0 32 32"><defs><style>.a{fill:#800040;}.b{fill:#fff;}</style></defs><circle class="a" cx="16" cy="16" r="16"/><g transform="translate(4.638 2.124)"><g transform="translate(4.362 4.876)"><path class="b" d="M23.514,21.331a3.106,3.106,0,0,1-2-2.3,7.205,7.205,0,0,0,2.183-3.4,2.836,2.836,0,0,0,.7-1.64.943.943,0,0,0-.339-.766C23.979,10.35,21.941,8.039,19.421,8c-.02,0-.039,0-.059,0H19.34c-2.5.014-4.539,2.276-4.661,5.116a.95.95,0,0,0-.5.877,3.117,3.117,0,0,0,.946,1.934,7.194,7.194,0,0,0,1.953,3,3.09,3.09,0,0,1-2.023,2.406c-.767.333-2.168.632-2.773.941a10.171,10.171,0,0,0,6.956,2.771h.044a10.16,10.16,0,0,0,7-2.772C25.682,21.963,24.281,21.664,23.514,21.331Z" transform="translate(-12.287 -8)"/></g></g></svg>