<svg xmlns="http://www.w3.org/2000/svg" width="573.978" height="389" viewBox="0 0 573.978 389"><defs><style>.a{fill:#263238;}.b{fill:#eb996e;}.c{fill:#ffbe9d;}.d{fill:#800040;}.e{fill:#e0e0e0;}.f{fill:#455a64;}.g{opacity:0.3;}.h{fill:#fafafa;}.i,.k{fill:#fff;}.i,.j{opacity:0.6;}.l{fill:#b78876;}.m{fill:#aa6550;}.n{fill:#e8505b;}.o{fill:#800340;}.p{fill:#ebebeb;}</style></defs><g transform="translate(-240 -1478)"><g transform="translate(240 1497)"><g transform="translate(0 361.715)"><path class="a" d="M625.045,461.459c0,.127-128.5.229-286.975.229-158.531,0-287-.1-287-.229s128.473-.23,287-.23C496.546,461.229,625.045,461.332,625.045,461.459Z" transform="translate(-51.067 -461.229)"/></g><g transform="translate(284.267 114.539)"><g transform="translate(36.309 20.785)"><g transform="translate(44.203 37.785)"><path class="b" d="M465.519,255.5a11.363,11.363,0,0,1,2.072-8.465c.122.07-.873,1.788-1.434,4.135C465.572,253.507,465.66,255.492,465.519,255.5Z" transform="translate(-465.346 -247.03)"/></g><path class="c" d="M461.64,241.711l-24.431-27.55a4.79,4.79,0,0,1-1.978-2.718,7.743,7.743,0,0,1,.188-2.606,12.079,12.079,0,0,1,1.087-3.091c.549-.851-.2-1.9-1.051-1.564s-2.935,2.575-3.417,5.774a1.315,1.315,0,0,1-1.832.8c-2.105-.734-9.246-3.654-10.521-3.973-1.137-.284-2.5-.243-1.754.6a43.347,43.347,0,0,0,5.044,3.454c-1.889-1.143-5.984-3.5-6.432-2.718-.261.454.247,1.313,1.925,2.513a8.666,8.666,0,0,0-2.725-1.157c-2.191.214,4.54,4.517,4.54,4.517-4.742-2.974-4.514-3.161-5.042-2.611-.4.412.425,1.387,2.754,3.354,1.89,1.6,11.2,9.8,11.2,9.8L447.953,255.4a17.66,17.66,0,0,0,13.233,7.426L499.53,262l4.286-21.523Z" transform="translate(-415.144 -204.117)"/><g transform="translate(1.56 7.492)"><path class="b" d="M423.307,216.867a28.983,28.983,0,0,1-6.387-4.23,29.014,29.014,0,0,1,6.387,4.23Z" transform="translate(-416.916 -212.626)"/></g><g transform="translate(2.205 5.924)"><path class="b" d="M424.728,214.954a32.975,32.975,0,0,1-7.078-4.1,32.975,32.975,0,0,1,7.078,4.1Z" transform="translate(-417.648 -210.845)"/></g><g transform="translate(3.91 4.46)"><path class="b" d="M426.335,212.981a29.533,29.533,0,0,1-6.747-3.786,29.532,29.532,0,0,1,6.747,3.786Z" transform="translate(-419.585 -209.182)"/></g></g><g transform="translate(0 219.757)"><path class="d" d="M397.025,430.089,392.1,445.2s-17.012.07-18.193,2.774l28.952,10.6,8.638-23.226Z" transform="translate(-373.908 -430.089)"/><g transform="translate(25.761 16.927)"><path class="e" d="M405.009,449.518a1.258,1.258,0,0,1,.323,1.648,1.21,1.21,0,0,1-1.631.335,1.328,1.328,0,0,1-.334-1.748,1.256,1.256,0,0,1,1.736-.16" transform="translate(-403.165 -449.313)"/></g><path class="e" d="M402.86,460.854l.859-2.309-28.13-9.341s-1.494.089-1.681,1.05Z" transform="translate(-373.908 -432.373)"/><g transform="translate(17.775 14.743)"><path class="a" d="M394.1,446.88c-.047.144.637.466,1.166,1.176.548.7.682,1.439.833,1.431.14.02.239-.9-.417-1.75S394.114,446.739,394.1,446.88Z" transform="translate(-394.095 -446.833)"/></g><g transform="translate(14.272 14.908)"><path class="a" d="M390.126,447.046c-.083.125.442.59.7,1.364.284.765.168,1.456.311,1.5.125.07.526-.722.183-1.677S390.179,446.913,390.126,447.046Z" transform="translate(-390.117 -447.02)"/></g><g transform="translate(10.957 15.101)"><path class="a" d="M386.621,450.076c.118.077.573-.557.493-1.464s-.628-1.458-.731-1.362c-.122.087.155.66.209,1.405C386.663,449.4,386.486,450.011,386.621,450.076Z" transform="translate(-386.352 -447.239)"/></g><g transform="translate(19.281 11.295)"><path class="a" d="M395.806,443.093c.012.151.733.193,1.512.54.786.331,1.309.827,1.428.733.119-.072-.3-.818-1.22-1.213S395.778,442.957,395.806,443.093Z" transform="translate(-395.805 -442.917)"/></g><g transform="translate(20.33 7.299)"><path class="a" d="M397,439.521a2.9,2.9,0,0,0,1.453.524,6.981,6.981,0,0,0,1.688.089,7.2,7.2,0,0,0,.994-.137,1.885,1.885,0,0,0,.563-.181.657.657,0,0,0,.341-.728.827.827,0,0,0-.5-.55,2.022,2.022,0,0,0-.571-.124,5.558,5.558,0,0,0-1.015-.02,5.435,5.435,0,0,0-1.658.388c-.9.376-1.323.82-1.284.866.047.07.536-.254,1.407-.517a6.17,6.17,0,0,1,1.56-.254,5.657,5.657,0,0,1,.926.048c.336.032.6.125.627.291.01.063.005.085-.092.151a1.553,1.553,0,0,1-.413.131,8.183,8.183,0,0,1-.926.158,8.566,8.566,0,0,1-1.6.024A10.646,10.646,0,0,0,397,439.521Z" transform="translate(-396.997 -438.379)"/></g><g transform="translate(19.487 3.662)"><path class="a" d="M396.993,439.3c.042.04.508-.365.9-1.261a5,5,0,0,0,.336-2.675,1.276,1.276,0,0,0-.657-1.071.721.721,0,0,0-.754.182,2.1,2.1,0,0,0-.343.477,3.423,3.423,0,0,0-.358.977,3.546,3.546,0,0,0,.07,1.724c.291.958.82,1.343.849,1.3a12.572,12.572,0,0,1-.489-1.386,3.55,3.55,0,0,1,.04-1.531,3.19,3.19,0,0,1,.333-.828c.158-.291.365-.5.468-.424.144.05.3.372.333.66a5.1,5.1,0,0,1,.071.918,5.554,5.554,0,0,1-.248,1.55C397.269,438.774,396.925,439.248,396.993,439.3Z" transform="translate(-396.039 -434.248)"/></g></g><g transform="translate(15.622 104.062)"><path class="a" d="M479.927,312.956c-6.045-1.97-29.979-9.324-47.393-13.622a25.3,25.3,0,0,0-19.766,3.81h0a22.174,22.174,0,0,0-9.321,22.683l7.141,44.137,24.624-2.008-3.818-42.5L473.469,338.3l37.5-10.849-.11-1.814-30.927-12.683" transform="translate(-393.009 -298.695)"/><path class="a" d="M487.756,323.706l-52.97,11.483a23.669,23.669,0,0,0-17.122,14.754L391.65,421.723l21.564,6.641,29.3-65.723,42.657-5.243a46.459,46.459,0,0,0,28.854-15.019l7.457-8.278Z" transform="translate(-391.65 -301.684)"/><g transform="translate(18.308 23.93)"><path class="f" d="M480.617,325.876a.868.868,0,0,1-.221.071l-.659.165-2.544.59-9.373,2.085-13.913,3.034-8.22,1.776c-2.846.633-5.818,1.2-8.8,1.979a27.064,27.064,0,0,0-8.22,3.448,21.43,21.43,0,0,0-5.774,5.922c-2.967,4.446-4.445,9.1-5.72,12.93-1.239,3.858-2.293,6.975-3.2,9.06-.444,1.045-.824,1.842-1.1,2.374l-.32.6a.117.117,0,1,1-.041-.021l.277-.619c.244-.544.6-1.35,1.013-2.4.85-2.1,1.852-5.219,3.053-9.092,1.237-3.842,2.686-8.541,5.677-13.066a21.741,21.741,0,0,1,5.875-6.061,27.319,27.319,0,0,1,8.353-3.518c3.006-.787,5.972-1.347,8.82-1.975l8.225-1.75,13.934-2.937,9.4-1.942,2.561-.505.668-.121A.865.865,0,0,1,480.617,325.876Z" transform="translate(-412.443 -325.873)"/></g></g><g transform="translate(137.324 109.995)"><path class="b" d="M538.14,305.448a42.56,42.56,0,0,1-8.273,3.068,42.56,42.56,0,0,1,8.273-3.068Z" transform="translate(-529.866 -305.433)"/></g><g transform="translate(94.414 50.887)"><path class="d" d="M514.323,241.524l-12.109,48.482-13.16,15.362,45.616,18.87,16.4-36.032,13.107-39.963c-3.637-6.72-10.628-8.336-12.96-8.616L532.4,238.3Z" transform="translate(-482.08 -238.304)"/><path class="d" d="M513.377,241.961l-32.243,3.117,2.217,25.292,24.495-2.033,4.246-20.467Z" transform="translate(-481.133 -238.741)"/><g transform="translate(20.129 13.319)"><path class="a" d="M513.455,253.431a10.022,10.022,0,0,1-.285,1.529c-.239,1.049-.557,2.443-.942,4.13-.815,3.482-1.972,8.287-3.278,13.586s-2.513,10.092-3.408,13.556c-.443,1.674-.809,3.055-1.084,4.094a10.044,10.044,0,0,1-.458,1.486,10.089,10.089,0,0,1,.284-1.53c.24-1.049.557-2.443.943-4.13.815-3.482,1.972-8.286,3.278-13.586s2.512-10.09,3.408-13.552c.443-1.674.809-3.056,1.084-4.1A10.1,10.1,0,0,1,513.455,253.431Z" transform="translate(-503.994 -253.431)"/></g><g transform="translate(20.134 51.331)"><path class="a" d="M518.951,300.084c-.049.06-.719-.516-1.963-1.164a16.546,16.546,0,0,0-5.2-1.622,32.482,32.482,0,0,0-5.49-.288,12.27,12.27,0,0,1-2.3-.039,10.763,10.763,0,0,1,2.286-.285,24.876,24.876,0,0,1,5.573.158,14.582,14.582,0,0,1,5.288,1.792A5.764,5.764,0,0,1,518.951,300.084Z" transform="translate(-504 -296.601)"/></g><g transform="translate(40.726 2.305)"><path class="a" d="M527.407,244.1c.033,0,.071.324.277.873a5.933,5.933,0,0,0,1.3,2.058,3.88,3.88,0,0,0,3.347.739,10.411,10.411,0,0,0,2.008-.773c.694-.313,1.408-.651,2.138-1l7.457-3.637,2.27-1.085a3.633,3.633,0,0,1,.86-.346,3.607,3.607,0,0,1-.778.5c-.515.3-1.268.713-2.2,1.215-1.874,1-4.478,2.358-7.406,3.762-.733.35-1.45.687-2.152,1a10.447,10.447,0,0,1-2.107.777,4.162,4.162,0,0,1-3.654-.918,5.531,5.531,0,0,1-1.242-2.238A1.872,1.872,0,0,1,527.407,244.1Z" transform="translate(-527.385 -240.922)"/></g><g class="g" transform="translate(20.134 50.642)"><path d="M504,296.878a40.284,40.284,0,0,1,14.494-.705,5.664,5.664,0,0,1,3.078,1.121,2.156,2.156,0,0,1,.372,2.955,2.213,2.213,0,0,1-2.206.423c-.755-.224-1.677-1.38-2.344-1.8-3.731-2.348-8.411-2.469-13.1-1.993" transform="translate(-504 -295.818)"/></g><g class="g" transform="translate(58.405 10.936)"><path d="M548.481,252.711c-3.834,10.882,3.894,23.074,11.145,32.048l1.861-5.548S552.317,241.826,548.481,252.711Z" transform="translate(-547.464 -250.724)"/></g><g transform="translate(25.621 31.787)"><path class="h" d="M554.246,288.179a9.887,9.887,0,0,0-1.281-1.635,8.807,8.807,0,0,0-5.052-2.28,17.483,17.483,0,0,0-8.182,1.485c-2.961,1.11-6.154,2.789-9.9,3.231a18.162,18.162,0,0,1-10.218-1.809,17.723,17.723,0,0,1-8.945-10.708,12.966,12.966,0,0,1-.364-1.519,2.493,2.493,0,0,1-.069-.541c.044-.009.176.73.6,2.006a18.421,18.421,0,0,0,2.609,5.021,17.485,17.485,0,0,0,6.356,5.362,17.935,17.935,0,0,0,9.975,1.732c3.635-.424,6.806-2.067,9.8-3.171a17.506,17.506,0,0,1,8.373-1.411,8.772,8.772,0,0,1,5.137,2.475,6.479,6.479,0,0,1,.934,1.261A2.368,2.368,0,0,1,554.246,288.179Z" transform="translate(-510.231 -274.404)"/></g><g transform="translate(28.102 16.615)"><path class="h" d="M513.052,260.083a1.136,1.136,0,0,1,.091-.387,3.22,3.22,0,0,1,.587-.982,4.842,4.842,0,0,1,3.826-1.537,11.486,11.486,0,0,1,5.694,2.367c1.94,1.279,3.951,2.846,6.166,4.313a22.45,22.45,0,0,0,6.684,3.221,13.366,13.366,0,0,0,6,.2,9.057,9.057,0,0,0,3.7-1.647l.5-.4.341-.328c.186-.177.29-.266.3-.255s-.069.119-.235.318l-.313.365-.484.445a8.748,8.748,0,0,1-3.742,1.824,13.387,13.387,0,0,1-6.178-.106,22.261,22.261,0,0,1-6.835-3.248c-2.238-1.483-4.238-3.057-6.15-4.345a11.4,11.4,0,0,0-5.477-2.393,4.749,4.749,0,0,0-3.675,1.333A4.859,4.859,0,0,0,513.052,260.083Z" transform="translate(-513.049 -257.173)"/></g><g transform="translate(10.571 5.664)"><path class="h" d="M495.832,269.415a3.208,3.208,0,0,1-.763-.76,7.714,7.714,0,0,1-1.336-2.62,7.968,7.968,0,0,1-.048-4.365,31.874,31.874,0,0,1,2.288-4.791,9.7,9.7,0,0,0,.835-5.038,10.819,10.819,0,0,0-1.225-4.031,13.53,13.53,0,0,0-2.44-3.071c.01-.012.092.035.242.14a5.281,5.281,0,0,1,.628.492,9.066,9.066,0,0,1,1.853,2.281,10.678,10.678,0,0,1,1.362,4.145,9.884,9.884,0,0,1-.838,5.274,35,35,0,0,0-2.3,4.715,7.864,7.864,0,0,0-.045,4.162A9.8,9.8,0,0,0,495.832,269.415Z" transform="translate(-493.139 -244.737)"/></g><g transform="translate(24.458 3.752)"><path class="h" d="M514.791,242.566a12.692,12.692,0,0,1-1.374,2.648,38.014,38.014,0,0,0-3.366,6.274,10.954,10.954,0,0,0-.714,3.785,8.029,8.029,0,0,0,.625,3.067,8.465,8.465,0,0,0,1.665,2.387,1.977,1.977,0,0,1-.66-.466,5.929,5.929,0,0,1-1.3-1.787,7.9,7.9,0,0,1-.753-3.194,10.847,10.847,0,0,1,.705-3.948,31.254,31.254,0,0,1,3.524-6.29C514.165,243.517,514.733,242.537,514.791,242.566Z" transform="translate(-508.911 -242.565)"/></g><g transform="translate(14.207 59.127)"><path class="h" d="M517.346,314.211c-.077.054-.769-1.043-2.223-2.508a20.116,20.116,0,0,0-2.775-2.311,20.351,20.351,0,0,0-8.135-3.305,19.974,19.974,0,0,0-3.6-.28c-2.064.035-3.325.337-3.342.246a3.446,3.446,0,0,1,.874-.249,7.321,7.321,0,0,1,1.05-.187,12.221,12.221,0,0,1,1.408-.134,18.138,18.138,0,0,1,3.68.187,19.4,19.4,0,0,1,8.309,3.377,18.181,18.181,0,0,1,2.767,2.433,12.1,12.1,0,0,1,.916,1.078,7.3,7.3,0,0,1,.622.866A3.453,3.453,0,0,1,517.346,314.211Z" transform="translate(-497.268 -305.454)"/></g></g><g transform="translate(84.306 115.132)"><path class="f" d="M498.5,372.561l-.879,67.93-27.97,10.683,64.149-.31-28.31-10.778-.258-67.526Z" transform="translate(-469.654 -318.59)"/><path class="f" d="M479.274,359.847c8.03,3.132,16.341,5.978,24.955,6.272s17.681-2.285,23.553-8.594c4.7-5.051,6.9-11.872,8.962-18.456l4.464-14.248c1.234-3.94,3.084-8.553.842-10.666-3.16-2.977-11.611-4.119-14.793-1.164-4.748,4.409-4.96,6.238-7.108,10.011-4.944,8.689-9.239,16.61-18.547,20.257-4.487,1.758-9.473,1.9-13.982,3.6s-9.1,8.228-8.346,12.988" transform="translate(-470.793 -311.266)"/></g><g transform="translate(125.941)"><g transform="translate(2.69 9.073)"><path class="c" d="M546.175,234.939l-13.97,6.889a3.861,3.861,0,0,1-5.441-3.844l.966-11.333s-7.573-1.119-7.723-8.682,1.03-24.938,1.03-24.938h0a26.285,26.285,0,0,1,26.436,3.122l1.127.854Z" transform="translate(-519.994 -190.816)"/><g transform="translate(7.72 32.849)"><path class="b" d="M528.765,231a17.589,17.589,0,0,0,9.839-2.876s-2.29,5.46-9.842,4.836Z" transform="translate(-528.762 -228.123)"/></g><g transform="translate(27.494 13.781)"><path class="c" d="M551.458,206.718c.129-.057,5.185-1.576,5.059,3.6s-5.293,3.978-5.3,3.829S551.458,206.718,551.458,206.718Z" transform="translate(-551.219 -206.467)"/><g transform="translate(1.623 1.687)"><path class="b" d="M553.067,212.451c.023-.016.088.065.239.139a.9.9,0,0,0,.674.03,2.23,2.23,0,0,0,1.08-1.975,2.978,2.978,0,0,0-.221-1.3,1.041,1.041,0,0,0-.66-.708.459.459,0,0,0-.538.234c-.073.143-.042.247-.07.254s-.108-.089-.062-.3a.576.576,0,0,1,.211-.32.679.679,0,0,1,.5-.119,1.267,1.267,0,0,1,.922.824,3.064,3.064,0,0,1,.277,1.449,2.341,2.341,0,0,1-1.369,2.2.965.965,0,0,1-.821-.157C553.073,212.576,553.049,212.46,553.067,212.451Z" transform="translate(-553.062 -208.383)"/></g></g><g transform="translate(2.537 7.533)"><g transform="translate(0 4.158)"><g transform="translate(0.262 1.055)"><path class="a" d="M523.174,206.276a1.079,1.079,0,0,0,1.05,1.082,1.033,1.033,0,0,0,1.106-.982,1.081,1.081,0,0,0-1.049-1.083A1.034,1.034,0,0,0,523.174,206.276Z" transform="translate(-523.174 -205.293)"/></g><path class="a" d="M522.894,205.246c.135.14.948-.472,2.111-.477,1.161-.023,2.018.569,2.143.425.062-.063-.077-.316-.45-.584a2.961,2.961,0,0,0-1.717-.515,2.839,2.839,0,0,0-1.679.556C522.946,204.927,522.827,205.183,522.894,205.246Z" transform="translate(-522.876 -204.095)"/><g transform="translate(11.426 0.131)"><g transform="translate(0.22 1.051)"><path class="a" d="M536.1,206.421a1.08,1.08,0,0,0,1.05,1.082,1.033,1.033,0,0,0,1.106-.983,1.081,1.081,0,0,0-1.049-1.082A1.034,1.034,0,0,0,536.1,206.421Z" transform="translate(-536.102 -205.438)"/></g><path class="a" d="M535.869,205.395c.136.14.95-.472,2.112-.477,1.161-.023,2.018.569,2.143.425.062-.063-.076-.316-.45-.584a2.96,2.96,0,0,0-1.717-.515,2.844,2.844,0,0,0-1.679.556C535.923,205.076,535.8,205.332,535.869,205.395Z" transform="translate(-535.852 -204.244)"/></g><g transform="translate(4.322 0.245)"><path class="a" d="M530.752,214.06a7.726,7.726,0,0,0-1.891-.326c-.3-.029-.578-.085-.63-.288a1.505,1.505,0,0,1,.191-.881q.411-1.08.861-2.266a38.831,38.831,0,0,0,1.927-5.926,38.886,38.886,0,0,0-2.4,5.757q-.431,1.193-.823,2.28a1.715,1.715,0,0,0-.145,1.166.743.743,0,0,0,.491.43,2,2,0,0,0,.5.067A7.544,7.544,0,0,0,530.752,214.06Z" transform="translate(-527.785 -204.373)"/></g><g transform="translate(7.035 10.711)"><path class="a" d="M534.547,216.259c-.189-.01-.182,1.252-1.255,2.156s-2.417.775-2.426.952c-.017.079.3.242.869.254a3.14,3.14,0,0,0,2.025-.723,2.736,2.736,0,0,0,.971-1.807C534.776,216.563,534.633,216.251,534.547,216.259Z" transform="translate(-530.865 -216.259)"/></g></g><g transform="translate(11.102)"><path class="a" d="M535.491,200.26c.117.315,1.276.157,2.641.311,1.368.127,2.471.518,2.649.232.079-.136-.114-.431-.561-.734a4.62,4.62,0,0,0-4.03-.415C535.691,199.861,535.441,200.111,535.491,200.26Z" transform="translate(-535.485 -199.372)"/></g><g transform="translate(0.389 0.723)"><path class="a" d="M523.348,201.413c.207.262,1-.018,1.968-.037.962-.055,1.78.164,1.964-.114.082-.135-.048-.4-.407-.645a2.849,2.849,0,0,0-3.169.122C523.366,201.012,523.257,201.285,523.348,201.413Z" transform="translate(-523.317 -200.194)"/></g></g></g><path class="a" d="M516.952,187.053a2.792,2.792,0,0,1,1.013-2.5,1.979,1.979,0,0,1,2.567.173,2.312,2.312,0,0,1,1.966-2.818c1.233-.087,2.291.836,3.486,1.154a5.606,5.606,0,0,0,3.527-.434c1.116-.459,2.157-1.089,3.288-1.511a9.67,9.67,0,0,1,12.412,5.586,4.292,4.292,0,0,1,4.566,1.689,7.044,7.044,0,0,1,1.116,4.955,15.765,15.765,0,0,1-.839,3.4c0,.1.011.193.01.29-.047,4.16-.481,9.047-2.254,9.088-3.092.07-2.4-5.761-2.4-5.761-3.806-1.438-2.435-7.135-3.39-7.99s-2.956-2.845-10.871,1.275a15.384,15.384,0,0,1-9.419,1.091c-.066-.014-.133-.024-.2-.039l-.046-.009c-.025-.006-.042-.019-.066-.026a7.163,7.163,0,0,1-2.045-.849,4.032,4.032,0,0,1-1.693-1.854,2.208,2.208,0,0,1,.416-2.371A4.845,4.845,0,0,1,516.952,187.053Z" transform="translate(-516.939 -180.512)"/></g><g transform="translate(131.244 53.736)"><path class="c" d="M550.011,262.033l12.67,26.862-20.134,8.656-3.986-1.229a9.76,9.76,0,0,0-9.339,2.013l-6.261,5.535h58.128a35.771,35.771,0,0,0,.1-23.414l-9.975-25.228c-2.825-6.85-10.176-12.43-16.938-9.4h0C547.711,248.771,547.139,255.432,550.011,262.033Z" transform="translate(-522.961 -241.951)"/><g transform="translate(22.804)"><path class="d" d="M552.067,263.066c3.751,6.368,9.611,16.231,9.611,16.231l21.708-8.976s-9.378-17.715-12.391-22.235c-1.221-1.831-3.923-5.588-11.883-6.545a16.167,16.167,0,0,0-2.464.634,10.519,10.519,0,0,0-7.314,8.039l-.188.953A20.6,20.6,0,0,0,552.067,263.066Z" transform="translate(-548.884 -241.54)"/><g transform="translate(0 2.381)"><path class="a" d="M561.654,279.62a10.31,10.31,0,0,1-.9-1.281l-2.3-3.583-3.355-5.344c-1.243-2.023-2.681-4.2-3.967-6.645a21.436,21.436,0,0,1-1.551-3.727,17.422,17.422,0,0,1-.646-3.708,19.043,19.043,0,0,1,.418-6.327,8.455,8.455,0,0,1,1.967-3.788l.483-.471.4-.288a1.318,1.318,0,0,1,.346-.212c.009.012-.092.111-.289.285l-.368.315-.442.49a8.705,8.705,0,0,0-1.786,3.747,19.439,19.439,0,0,0-.312,6.212,17.384,17.384,0,0,0,.656,3.615,21.539,21.539,0,0,0,1.528,3.645c1.265,2.409,2.7,4.6,3.921,6.637l3.271,5.395,2.171,3.658A10.028,10.028,0,0,1,561.654,279.62Z" transform="translate(-548.859 -244.243)"/></g><g transform="translate(0.773 12.764)"><path class="h" d="M575.792,257.888c-.033.036-.317-.247-.925-.608a6.8,6.8,0,0,0-2.827-.857,11.015,11.015,0,0,0-4.357.568,33.905,33.905,0,0,0-4.949,2.325,21.033,21.033,0,0,1-5.143,2.1,9.493,9.493,0,0,1-4.548-.087,5.876,5.876,0,0,1-2.656-1.529,4,4,0,0,1-.513-.661c-.1-.162-.147-.25-.134-.259.041-.029.251.314.771.792a6.1,6.1,0,0,0,2.616,1.345,9.482,9.482,0,0,0,4.372-.012,21.766,21.766,0,0,0,5.021-2.1,31.6,31.6,0,0,1,5.034-2.322,10.9,10.9,0,0,1,4.521-.488,6.468,6.468,0,0,1,2.888,1.028,4.255,4.255,0,0,1,.643.535C575.739,257.8,575.8,257.876,575.792,257.888Z" transform="translate(-549.737 -256.036)"/></g><g transform="translate(9.046 29.097)"><path class="h" d="M573.013,278.962c-.064.055-.611-.609-1.695-1.434a12.367,12.367,0,0,0-2.03-1.246,12.6,12.6,0,0,0-5.641-1.271,12.3,12.3,0,0,0-2.369.254c-1.332.281-2.111.646-2.146.569-.014-.028.171-.138.52-.313a7.843,7.843,0,0,1,1.552-.571,10.869,10.869,0,0,1,2.434-.362,11.835,11.835,0,0,1,5.839,1.316,10.9,10.9,0,0,1,2.044,1.37,7.941,7.941,0,0,1,1.157,1.182C572.919,278.764,573.038,278.943,573.013,278.962Z" transform="translate(-559.133 -274.585)"/></g></g><g transform="translate(39.342 46.315)"><path class="b" d="M581.85,300.982c-.072.037-.469-.83-1.419-2a11.852,11.852,0,0,0-10.361-4.411c-1.5.129-2.4.444-2.428.366a1.736,1.736,0,0,1,.612-.276,9.482,9.482,0,0,1,1.781-.412,11.274,11.274,0,0,1,10.653,4.536,9.514,9.514,0,0,1,.939,1.569A1.745,1.745,0,0,1,581.85,300.982Z" transform="translate(-567.642 -294.14)"/></g></g></g><g transform="translate(60.595 27.569)"><g transform="translate(0 303.482)"><path class="f" d="M77.37,426.4l-5.184,20.569L63.4,462.06a2.173,2.173,0,0,0,.914,3.042h0a2.159,2.159,0,0,0,1.989-.032c3.947-2.13,18.429-10.037,18.724-11.563.342-1.768,6.909-21.334,6.909-21.334Z" transform="translate(-63.1 -426.404)"/><path class="i" d="M64.474,468.593l21.1-12.974-.239.866a3.277,3.277,0,0,1-1.313,1.838c-1.721,1.167-6.54,4.285-17.492,10.256a2.172,2.172,0,0,1-2.051.014Z" transform="translate(-63.264 -429.895)"/><g class="j" transform="translate(19.081 17.893)"><path class="k" d="M85.621,446.8a1.314,1.314,0,0,0-.8,1.559,1.264,1.264,0,0,0,1.538.811,1.387,1.387,0,0,0,.844-1.655,1.312,1.312,0,0,0-1.694-.667" transform="translate(-84.769 -446.725)"/></g><g transform="translate(4.77 27.77)"><path class="a" d="M72.1,461.23a6.623,6.623,0,0,0-1.353-2.086,6.634,6.634,0,0,0-2.229-1.1c0-.055.3-.142.8-.078a3.463,3.463,0,0,1,2.771,2.465C72.206,460.916,72.155,461.227,72.1,461.23Z" transform="translate(-68.517 -457.942)"/></g><g transform="translate(2.646 31.096)"><path class="a" d="M69.6,464.016c-.122.062-.593-.785-1.567-1.38a17.807,17.807,0,0,0-1.926-.81,2.413,2.413,0,0,1,2.173.415C69.384,462.926,69.72,463.991,69.6,464.016Z" transform="translate(-66.104 -461.72)"/></g><g transform="translate(6.92 24.424)"><path class="a" d="M76.072,458.015a21.735,21.735,0,0,0-2.275-2.292,21.683,21.683,0,0,0-2.838-1.546,5.942,5.942,0,0,1,5.113,3.838Z" transform="translate(-70.958 -454.143)"/></g><g transform="translate(8.862 20.297)"><path class="a" d="M78.434,451.335c-.088.107-1.087-.677-2.542-1.137-1.449-.479-2.718-.428-2.727-.567a5.393,5.393,0,0,1,5.269,1.7Z" transform="translate(-73.165 -449.455)"/></g><g transform="translate(10.291 14.338)"><path class="a" d="M80.3,444.527a10.617,10.617,0,0,0-2.615-1.253,10.593,10.593,0,0,0-2.9-.069c-.021-.052.273-.247.82-.389a4.732,4.732,0,0,1,4.141.993C80.171,444.183,80.346,444.49,80.3,444.527Z" transform="translate(-74.787 -442.688)"/></g><g transform="translate(10.954 9.775)"><path class="a" d="M78.13,441.522a1.822,1.822,0,0,1,.186-.781,5.572,5.572,0,0,1,1.175-1.855,2.47,2.47,0,0,1,1.336-.855.872.872,0,0,1,.9.45,1.421,1.421,0,0,1,.068,1.012,3.072,3.072,0,0,1-3.352,2.023,3.563,3.563,0,0,1-2.877-2.73,1.233,1.233,0,0,1,.217-1.006.857.857,0,0,1,.985-.2,3.038,3.038,0,0,1,1.153,1.072,6.233,6.233,0,0,1,.956,1.974,1.907,1.907,0,0,1,.119.793,9.928,9.928,0,0,0-1.338-2.568,2.843,2.843,0,0,0-1.028-.91.457.457,0,0,0-.538.1.85.85,0,0,0-.1.67,3.179,3.179,0,0,0,2.522,2.337,2.667,2.667,0,0,0,2.87-1.676,1.036,1.036,0,0,0-.018-.709.474.474,0,0,0-.492-.254,2.234,2.234,0,0,0-1.145.7A8.235,8.235,0,0,0,78.13,441.522Z" transform="translate(-75.54 -437.505)"/></g></g><g transform="translate(62.811 308.453)"><path class="f" d="M150.519,432.6l-1.1,15.853s15.745,6.44,15.827,9.39l-30.815-1.026.7-24.771Z" transform="translate(-134.434 -432.049)"/><g transform="translate(4.565 14.71)"><path class="e" d="M140.557,448.8a1.261,1.261,0,0,0-.918,1.408,1.212,1.212,0,0,0,1.387.922,1.33,1.33,0,0,0,.965-1.5,1.256,1.256,0,0,0-1.549-.8" transform="translate(-139.619 -448.756)"/></g><path class="e" d="M134.434,459.844l.168-2.495,29.481,1.916s1.352.643,1.165,1.6Z" transform="translate(-134.434 -435.072)"/><g transform="translate(12.628 16.11)"><path class="a" d="M151.639,450.5c-.01.151-.764.194-1.521.652-.769.439-1.172,1.079-1.308,1.014-.138-.033.116-.926,1.042-1.466S151.676,450.364,151.639,450.5Z" transform="translate(-148.775 -450.345)"/></g><g transform="translate(16.569 17.644)"><path class="a" d="M155.362,452.154c.03.147-.63.381-1.163,1-.55.6-.7,1.287-.851,1.276-.143.018-.217-.866.46-1.624S155.363,452.01,155.362,452.154Z" transform="translate(-153.251 -452.087)"/></g><g transform="translate(20.224 19.082)"><path class="a" d="M157.565,456.279c-.138.027-.322-.732.092-1.543s1.128-1.116,1.188-.988c.081.126-.391.553-.72,1.224C157.779,455.636,157.715,456.268,157.565,456.279Z" transform="translate(-157.402 -453.72)"/></g><g transform="translate(12.133 12.035)"><path class="a" d="M151.422,446.308c-.068.135-.751-.1-1.6-.066-.853.012-1.524.276-1.6.144-.084-.112.581-.647,1.586-.668S151.5,446.192,151.422,446.308Z" transform="translate(-148.213 -445.717)"/></g><g transform="translate(10.877 6.812)"><path class="a" d="M151.414,442.4a2.894,2.894,0,0,1-1.544-.059,6.975,6.975,0,0,1-1.6-.549,7.3,7.3,0,0,1-.87-.5,1.893,1.893,0,0,1-.454-.379.657.657,0,0,1-.042-.8.827.827,0,0,1,.671-.321,2.024,2.024,0,0,1,.576.1,5.469,5.469,0,0,1,2.34,1.343c.693.686.918,1.256.866,1.284-.07.048-.4-.436-1.111-1.006a6.194,6.194,0,0,0-1.351-.822,5.825,5.825,0,0,0-.876-.3c-.324-.1-.6-.108-.69.033-.033.055-.037.077.028.174a1.541,1.541,0,0,0,.334.276,8.166,8.166,0,0,0,.8.493,8.608,8.608,0,0,0,1.472.622A10.767,10.767,0,0,1,151.414,442.4Z" transform="translate(-146.787 -439.785)"/></g><g transform="translate(14.942 4.776)"><path class="a" d="M151.762,442.33a2.466,2.466,0,0,1-.357-1.5,5,5,0,0,1,.691-2.607,1.276,1.276,0,0,1,1.01-.746.72.72,0,0,1,.63.452,2.1,2.1,0,0,1,.14.571,3.453,3.453,0,0,1-.034,1.04,3.557,3.557,0,0,1-.711,1.573c-.63.778-1.263.937-1.274.886-.048-.077.487-.35.973-1.1a3.56,3.56,0,0,0,.536-1.434,3.184,3.184,0,0,0,0-.892c-.038-.329-.151-.6-.276-.568-.152-.008-.422.23-.556.487a5.128,5.128,0,0,0-.41.824,5.538,5.538,0,0,0-.35,1.529C151.7,441.741,151.845,442.31,151.762,442.33Z" transform="translate(-151.404 -437.473)"/></g></g><g transform="translate(6.591)"><g transform="translate(36.033)"><path class="a" d="M115.792,104.409a37.127,37.127,0,0,1-2.154-5.693c-.323-1.492-.829-3.729-.261-5.145a3.6,3.6,0,0,1,3.835-2.46,8.707,8.707,0,0,1,4.865-6.95,22.188,22.188,0,0,1,8.287-2.377,7.073,7.073,0,0,1,3.136.314,4,4,0,0,1,1.93,1.979,6.905,6.905,0,0,1,6.1-1.137c2.309.567,4.959,1.74,6.019,3.867a6.718,6.718,0,0,1,.309,5.082c-.411,1.412-1.838,3.649-3.23,3.171" transform="translate(-111.701 -81.74)"/><g transform="translate(0 5.067)"><g transform="translate(0 2.96)"><g transform="translate(4.243)"><path class="l" d="M118.446,144.6l20.692-.95c.117-2.194-1-15.778-1-15.778s7.821-1.216,7.918-9.036-1.259-25.775-1.259-25.775h0A27.175,27.175,0,0,0,117.486,96.5l-1.159.892Z" transform="translate(-116.327 -90.857)"/><g transform="translate(11.626 34.01)"><path class="m" d="M139.726,132.379a18.181,18.181,0,0,1-10.195-2.9s2.41,5.627,10.212,4.923Z" transform="translate(-129.531 -129.482)"/></g></g><g transform="translate(0 14.387)"><path class="l" d="M116.715,107.443c-.134-.058-5.373-1.589-5.2,3.756s5.5,4.072,5.507,3.918S116.715,107.443,116.715,107.443Z" transform="translate(-111.508 -107.196)"/><g transform="translate(1.361 1.75)"><path class="m" d="M115.506,113.381c-.024-.017-.091.069-.246.145a.934.934,0,0,1-.7.037,2.3,2.3,0,0,1-1.132-2.034,3.078,3.078,0,0,1,.217-1.342,1.077,1.077,0,0,1,.678-.737.474.474,0,0,1,.557.238c.077.147.046.255.075.263s.112-.093.062-.313a.591.591,0,0,0-.221-.328.709.709,0,0,0-.52-.12,1.309,1.309,0,0,0-.946.86,3.161,3.161,0,0,0-.276,1.5,2.42,2.42,0,0,0,1.433,2.266,1,1,0,0,0,.847-.169C115.5,113.511,115.526,113.39,115.506,113.381Z" transform="translate(-113.055 -109.183)"/></g></g><g transform="translate(14.244 7.823)"><g transform="translate(0.759 4.212)"><g transform="translate(11.813)"><g transform="translate(1.941 1.42)"><path class="a" d="M146.4,107.147a1.118,1.118,0,0,1-1.077,1.127,1.069,1.069,0,0,1-1.152-1.007,1.117,1.117,0,0,1,1.076-1.127A1.069,1.069,0,0,1,146.4,107.147Z" transform="translate(-144.167 -106.138)"/></g><path class="a" d="M146.376,105.7c-.138.145-.984-.481-2.186-.477-1.2-.014-2.082.6-2.212.457-.064-.065.077-.328.461-.608a3.066,3.066,0,0,1,1.772-.546,2.946,2.946,0,0,1,1.74.562C146.32,105.37,146.445,105.634,146.376,105.7Z" transform="translate(-141.963 -104.525)"/></g><g transform="translate(0 0.225)"><g transform="translate(1.986 1.478)"><path class="a" d="M133.031,107.467a1.117,1.117,0,0,1-1.077,1.127,1.069,1.069,0,0,1-1.151-1.007,1.117,1.117,0,0,1,1.076-1.127A1.068,1.068,0,0,1,133.031,107.467Z" transform="translate(-130.802 -106.458)"/></g><path class="a" d="M132.962,105.954c-.139.145-.986-.481-2.187-.477-1.2-.014-2.082.6-2.213.457-.063-.065.076-.328.461-.608a3.057,3.057,0,0,1,1.772-.546,2.934,2.934,0,0,1,1.74.562C132.9,105.625,133.03,105.889,132.962,105.954Z" transform="translate(-128.547 -104.78)"/></g><g transform="translate(8.213 0.297)"><path class="a" d="M138.438,114.875a7.921,7.921,0,0,1,1.951-.352c.307-.032.6-.092.649-.3a1.562,1.562,0,0,0-.205-.91q-.432-1.115-.907-2.337a40.28,40.28,0,0,1-2.038-6.112,40.17,40.17,0,0,1,2.525,5.934q.454,1.23.869,2.35a1.775,1.775,0,0,1,.159,1.2.771.771,0,0,1-.5.448,2.116,2.116,0,0,1-.521.073A7.862,7.862,0,0,1,138.438,114.875Z" transform="translate(-137.874 -104.862)"/></g><g transform="translate(5.044 11.141)"><path class="a" d="M134.471,117.178c.2-.011.2,1.293,1.315,2.219s2.505.782,2.515.964c.018.082-.31.254-.9.269a3.24,3.24,0,0,1-2.1-.732,2.829,2.829,0,0,1-1.019-1.861C134.235,117.493,134.382,117.17,134.471,117.178Z" transform="translate(-134.275 -117.178)"/></g></g><path class="a" d="M133.169,100.642c-.119.327-1.318.172-2.728.343-1.414.141-2.551.554-2.738.261-.084-.14.114-.447.574-.763a4.778,4.778,0,0,1,4.164-.46C132.959,100.231,133.22,100.487,133.169,100.642Z" transform="translate(-127.685 -99.741)"/><g transform="translate(12.452 0.663)"><path class="a" d="M145.919,101.739c-.212.273-1.039-.011-2.035-.023-.995-.048-1.839.183-2.032-.1-.085-.138.048-.411.416-.67a2.947,2.947,0,0,1,3.277.1C145.9,101.325,146.012,101.606,145.919,101.739Z" transform="translate(-141.827 -100.494)"/></g></g></g><g transform="translate(3.663)"><path class="a" d="M115.827,96.632c.106,2.278-.4,4.816,0,7.054.061.338.938,1.241,1.015,1.575.461,1.981,1.281,2.83,2.459.786a17.906,17.906,0,0,0,.92-3.857q.712-3.61,1.423-7.221a12.486,12.486,0,0,0,5.944,1.411,6.077,6.077,0,0,0,5.081-3,6.306,6.306,0,0,0,9.784,1.284,2.633,2.633,0,0,0,3.482.743,3.127,3.127,0,0,0,1.271-3.45c-.539-1.908-2.582-2.944-4.484-3.5-7.437-2.188-15.662-.474-22.347,3.45a11.351,11.351,0,0,0-2.7,2.034c-.763.834-1.822,1.815-1.854,2.945" transform="translate(-115.669 -87.495)"/></g></g><g transform="translate(1.847 14.234)"><path class="f" d="M121.207,98.093a3.825,3.825,0,0,0-1.208.225,4.129,4.129,0,0,0-1.1.747c-.371.34-.741.787-1.184,1.222a3.928,3.928,0,0,1-1.5.992,2.7,2.7,0,0,1-1.48.057c-.833-.21-1.173-.658-1.133-.686a8.886,8.886,0,0,0,1.193.368,2.639,2.639,0,0,0,1.28-.137,3.884,3.884,0,0,0,1.315-.922c.424-.415.8-.858,1.227-1.212a3.845,3.845,0,0,1,1.262-.733C120.719,97.746,121.244,98.055,121.207,98.093Z" transform="translate(-113.605 -97.905)"/></g><g transform="translate(2.716 16.683)"><path class="f" d="M120.47,100.784a2.392,2.392,0,0,0-.837.4,4.388,4.388,0,0,0-.66.79,3.647,3.647,0,0,1-3.415,1.548c-.645-.081-.986-.31-.964-.358.025-.068.392.042.984.034a4.01,4.01,0,0,0,2.15-.637c.752-.451,1.112-1.271,1.715-1.64S120.51,100.727,120.47,100.784Z" transform="translate(-114.593 -100.687)"/></g><g transform="translate(25.564 1.034)"><path class="f" d="M143.8,82.945c0-.025.251-.071.688.048a2.989,2.989,0,0,1,1.535,1.093c.992,1.317,1.27,3.694.587,6.016a8.487,8.487,0,0,1-3.71,4.8,7.555,7.555,0,0,1-1.692.773,1.644,1.644,0,0,1-.67.129,22.675,22.675,0,0,0,2.186-1.175,8.664,8.664,0,0,0,3.446-4.663,7.192,7.192,0,0,0-.412-5.693,3.068,3.068,0,0,0-1.33-1.114C144.045,83,143.8,82.983,143.8,82.945Z" transform="translate(-140.541 -82.915)"/></g><g transform="translate(30.19 4.147)"><path class="f" d="M150.984,86.45a3.4,3.4,0,0,1-.029,1.507,9.32,9.32,0,0,1-3.81,6.052,3.408,3.408,0,0,1-1.347.678,15.162,15.162,0,0,0,3.467-3.569A15.214,15.214,0,0,0,150.984,86.45Z" transform="translate(-145.795 -86.45)"/></g></g><g transform="translate(0 134.87)"><path class="a" d="M150.913,234.911,145.956,419.4l-24.308-.73,1.867-158.34L92.54,423.07l-21.955-5.73L98.93,235.263Z" transform="translate(-70.585 -234.911)"/></g><g transform="translate(137.851 52.033)"><path class="l" d="M244.477,144.628l1.168-.422s9.973,1.5,9.447-.3c-.7-2.376-9.668-3.163-10.5-3.067-1.384.161-9.415,2.273-10.475,3.067s-6.975,8.615-6.975,8.615L237.2,160.3s2.383-.1,5.1-3.23c1.378-1.587,3.36-4.325,3.36-4.325s-.21-.66-.04-.947c.509-.859-.012-1.273-.012-1.273a1.608,1.608,0,0,0,.991-1.419,1.182,1.182,0,0,0-.358-.848c-.621-.424-.848-.306-.848-.306a2.356,2.356,0,0,0,1.3-1.743c.074-1.13-1.592-1.4-1.592-1.4" transform="translate(-227.142 -140.834)"/><g transform="translate(13.716 2.861)"><path class="m" d="M256.829,144.758a5.252,5.252,0,0,1-2.074.536,12.131,12.131,0,0,1-2.338.058c-.865-.111-1.809-.26-2.8-.414l-2.109-.344.128-.01a30.426,30.426,0,0,1-4.913,1.452,30.51,30.51,0,0,1,4.749-1.934l.056-.02.071.011,2.093.318,2.77.453a14.939,14.939,0,0,0,2.263.055C256.015,144.851,256.811,144.677,256.829,144.758Z" transform="translate(-242.719 -144.083)"/></g><g transform="translate(12.847 4.056)"><path class="l" d="M245.708,145.813l-2.7,2.922a3.444,3.444,0,0,0-.784,1.116,1.175,1.175,0,0,0,.237,1.27,1.147,1.147,0,0,0,1.042.186,2.934,2.934,0,0,0,.962-.526,34.1,34.1,0,0,0,3.325-2.7" transform="translate(-241.781 -145.485)"/><path class="m" d="M247.941,147.863a9.6,9.6,0,0,1-1.431,1.5,12.546,12.546,0,0,1-1.762,1.433,5.757,5.757,0,0,1-1.223.632,1.9,1.9,0,0,1-.781.1,1.093,1.093,0,0,1-.776-.422,1.476,1.476,0,0,1,0-1.591,6.885,6.885,0,0,1,.841-1.08c.563-.635,1.088-1.188,1.54-1.642a6.847,6.847,0,0,1,1.573-1.356,14.681,14.681,0,0,1-1.336,1.577l-1.456,1.7a7.173,7.173,0,0,0-.767,1.019,1.047,1.047,0,0,0-.026,1.1.924.924,0,0,0,1.055.166,5.731,5.731,0,0,0,1.133-.562,15.205,15.205,0,0,0,1.772-1.319A9.12,9.12,0,0,1,247.941,147.863Z" transform="translate(-241.732 -145.44)"/></g><path class="l" d="M247.658,149.2s.807-1.07,1.218-1.07a1.259,1.259,0,0,1,1.367.7c.3.618.068.889-.886,2.325" transform="translate(-229.593 -141.706)"/><g transform="translate(14.822 7.214)"><path class="l" d="M247.263,149.349l-2.2,2.512a2.957,2.957,0,0,0-.639.959,1.049,1.049,0,0,0,.194,1.091.894.894,0,0,0,.85.16,2.354,2.354,0,0,0,.784-.452,28.182,28.182,0,0,0,2.714-2.318" transform="translate(-244.02 -149.066)"/><path class="m" d="M249.885,149.633a3.878,3.878,0,0,1-.919,1.772,10.8,10.8,0,0,1-2.556,2.328,3.14,3.14,0,0,1-1.338.571.994.994,0,0,1-.814-.279,1.094,1.094,0,0,1-.282-.773,2.085,2.085,0,0,1,.565-1.264c.515-.632,1-1.172,1.42-1.62a6.274,6.274,0,0,1,1.47-1.337,13.423,13.423,0,0,1-1.226,1.551c-.384.471-.845,1.033-1.331,1.667a1.724,1.724,0,0,0-.449,1,.533.533,0,0,0,.61.594,2.843,2.843,0,0,0,1.135-.492,11.4,11.4,0,0,0,1.011-.717,11.941,11.941,0,0,0,1.536-1.439C249.516,150.3,249.815,149.6,249.885,149.633Z" transform="translate(-243.975 -149.027)"/></g><g transform="translate(3.503 6.868)"><g transform="translate(0.002 0.256)"><path class="l" d="M231.122,154.82a2.261,2.261,0,0,0,2.634.04c.816-.473,1.448-1.208,2.228-1.738,2.332-1.586,5.647-1.146,7.9-2.841.314-.236.628-.626.463-.984-.152-.331-.6-.376-.96-.372l-9.341.07" transform="translate(-231.122 -148.925)"/></g><path class="m" d="M234.045,148.96a3.715,3.715,0,0,1,1.01-.111c.65-.037,1.591-.073,2.753-.106l4.085-.088,1.181-.018a1.856,1.856,0,0,1,1.367.307.787.787,0,0,1,.137.873,1.61,1.61,0,0,1-.478.6,6.125,6.125,0,0,1-1.184.7,35.785,35.785,0,0,1-4.86,1.3,7.015,7.015,0,0,0-1.931.84c-.549.36-1.01.8-1.477,1.164a3.289,3.289,0,0,1-2.64.885c-.689-.145-.908-.523-.885-.524a2.746,2.746,0,0,0,.915.319,3.187,3.187,0,0,0,2.372-.972c.437-.366.884-.829,1.469-1.238a7.275,7.275,0,0,1,2.037-.945,41.549,41.549,0,0,0,4.779-1.317,5.72,5.72,0,0,0,1.073-.63c.306-.239.461-.565.3-.695-.157-.169-.586-.166-.986-.16H241.9l-4.086-.026c-1.163-.016-2.1-.037-2.755-.064A3.756,3.756,0,0,1,234.045,148.96Z" transform="translate(-231.12 -148.634)"/></g><path class="l" d="M248.914,152.359s.6-.793.9-.793a.933.933,0,0,1,1.013.516c.22.459.051.66-.656,1.724" transform="translate(-229.743 -142.116)"/><g transform="translate(16.709 10.031)"><path class="l" d="M248.621,152.467l-1.632,1.861a2.211,2.211,0,0,0-.475.711.782.782,0,0,0,.144.809.665.665,0,0,0,.63.119,1.76,1.76,0,0,0,.581-.335,21.075,21.075,0,0,0,2.011-1.719" transform="translate(-246.159 -152.255)"/><path class="m" d="M250.558,152.677a2.538,2.538,0,0,1-.649,1.339,7.375,7.375,0,0,1-1.124,1.172,7.558,7.558,0,0,1-.772.576,2.37,2.37,0,0,1-1.018.433.8.8,0,0,1-.651-.224.87.87,0,0,1-.226-.614,1.59,1.59,0,0,1,.434-.97c.405-.451.78-.843,1.1-1.172.635-.654,1.046-1.033,1.089-.987a4.872,4.872,0,0,1-.85,1.206l-1,1.212a1.223,1.223,0,0,0-.317.711c.008.255.136.405.389.38a2.082,2.082,0,0,0,.815-.356,8.451,8.451,0,0,0,.746-.525,9.18,9.18,0,0,0,1.14-1.05C250.256,153.156,250.49,152.648,250.558,152.677Z" transform="translate(-246.118 -152.227)"/></g><g transform="translate(10.614 10.943)"><path class="m" d="M241.088,157.029a11.45,11.45,0,0,0-.582-2.055c-.516-1.056-1.374-1.574-1.307-1.691.026-.122,1.118.278,1.716,1.484A2.393,2.393,0,0,1,241.088,157.029Z" transform="translate(-239.196 -153.262)"/></g></g><g transform="translate(4.893 52.88)"><g transform="translate(15.238 0.295)"><path class="f" d="M154.34,230.768s-1.707-49.87-2.207-57.233c12.288,6.861,31.371,15.636,33.43,16.069,3.692.777,36.52-28.413,36.52-28.413l-11.759-9.214-27.152,15.287L147.6,146.03l0,.012a18.521,18.521,0,0,0-8.686-3.458l-.247-.03c-1.263-.15-1.882-.332-2.64-.424h0c-5.623,4.229-15.245,4.5-20.767.137h0s-4.187.947-6.688,1.426c-7.877,1.509-13.546,7.247-15.12,12.544l9.858,22.738,1.89,21.6-4.983,27.77,54.127,2.422" transform="translate(-93.448 -142.131)"/></g><g class="g" transform="translate(24.842 49.927)"><path d="M104.58,216.881a9.221,9.221,0,0,0,8.027,2.306c2.023-.409,3.943-1.509,6-1.375,2.254.147,4.117,1.726,6.174,2.658,3.841,1.74,8.322,1.183,12.4.1,1.874-.5,3.831-1.177,5.04-2.693a9.022,9.022,0,0,0,1.551-4.186,43.208,43.208,0,0,0,.608-8.3,7.955,7.955,0,0,0-1.339-4.946,5.72,5.72,0,0,0-3.717-1.875,14.615,14.615,0,0,0-4.241.237,70.081,70.081,0,0,0-30.726,13.178" transform="translate(-104.355 -198.498)"/></g><g transform="translate(0 13.411)"><path class="f" d="M121.015,202.755s-25.844,11.559-28.472,12.136c-8.724,1.915-18.7-6.327-15.929-15.722,1.03-3.493,14.935-42.142,14.935-42.142l13.233,18.287-5.6,18.716,14.66-.973Z" transform="translate(-76.142 -157.027)"/></g><g transform="translate(37.412)"><path class="n" d="M118.631,141.8h0Z" transform="translate(-118.631 -141.796)"/></g><g transform="translate(74.858 6.894)"><path class="n" d="M161.158,149.626" transform="translate(-161.158 -149.626)"/></g><g transform="translate(22.733 31.698)"><path class="a" d="M115.734,195.692a5.076,5.076,0,0,1-1.021.142l-2.827.24c-2.406.187-5.771.42-9.6.663l-.322.02.092-.31c.278-.934.567-1.9.862-2.9,1.308-4.369,2.516-8.317,3.411-11.168.438-1.36.8-2.493,1.085-3.37a7.082,7.082,0,0,1,.457-1.218,7.091,7.091,0,0,1-.286,1.269l-.945,3.411c-.816,2.875-1.975,6.837-3.283,11.206l-.869,2.894-.23-.29c3.833-.224,7.2-.4,9.612-.507l2.836-.106A5.01,5.01,0,0,1,115.734,195.692Z" transform="translate(-101.96 -177.796)"/></g><g transform="translate(17.592 50.401)"><path class="a" d="M96.141,205.165a2.686,2.686,0,0,1,.281-1.264,8.306,8.306,0,0,1,4.2-4.487,2.688,2.688,0,0,1,1.242-.365,16.02,16.02,0,0,0-3.436,2.519A16.01,16.01,0,0,0,96.141,205.165Z" transform="translate(-96.122 -199.036)"/></g><g transform="translate(16.47 60.643)"><path class="a" d="M120.364,210.672c.048.117-5.625,2.567-12.67,5.47s-12.8,5.163-12.846,5.046,5.624-2.566,12.671-5.47S120.315,210.555,120.364,210.672Z" transform="translate(-94.848 -210.668)"/></g><g transform="translate(72.468 24.241)"><path class="a" d="M161.279,209.5a1.433,1.433,0,0,1-.054-.409c-.017-.322-.038-.709-.063-1.174-.043-1.094-.1-2.55-.17-4.316-.142-3.644-.345-8.678-.667-14.231s-.718-10.577-1.118-14.2c-.193-1.811-.4-3.27-.541-4.279a10.418,10.418,0,0,1-.215-1.57,1.411,1.411,0,0,1,.123.392c.073.315.162.693.268,1.147.2,1,.452,2.46.687,4.271.483,3.622.932,8.648,1.254,14.211s.475,10.6.534,14.249c.026,1.824.037,3.3.025,4.322-.009.465-.017.852-.023,1.175A1.394,1.394,0,0,1,161.279,209.5Z" transform="translate(-158.444 -169.327)"/></g><g transform="translate(18.645 14.275)"><path class="h" d="M108.984,158.012c.036.071-.718.4-1.7,1.245a8.861,8.861,0,0,0-2.721,4.182l-.127.437-.281-.37-.179-.234a6.647,6.647,0,0,0-4.457-2.438,14.421,14.421,0,0,0-2.2.042c-.008-.026.189-.119.569-.22a5.568,5.568,0,0,1,1.655-.145,6.605,6.605,0,0,1,4.793,2.48l.192.254-.408.067a8.447,8.447,0,0,1,2.96-4.3A4.69,4.69,0,0,1,108.984,158.012Z" transform="translate(-97.318 -158.008)"/></g><g transform="translate(35.383 24.918)"><path class="h" d="M127.992,170.1c.036.071-.718.4-1.7,1.245a8.849,8.849,0,0,0-2.72,4.182l-.128.436-.281-.369-.179-.235a6.651,6.651,0,0,0-4.457-2.438,14.536,14.536,0,0,0-2.2.042c-.009-.026.188-.118.568-.22a5.6,5.6,0,0,1,1.655-.145,6.61,6.61,0,0,1,4.793,2.48l.192.254-.408.067a8.449,8.449,0,0,1,2.96-4.3A4.68,4.68,0,0,1,127.992,170.1Z" transform="translate(-116.327 -170.096)"/></g><g transform="translate(12.53 32.776)"><path class="h" d="M102.322,180.282c.01.079-.811.135-2.024.6a8.854,8.854,0,0,0-3.969,3.022l-.266.368-.141-.442-.089-.282a6.648,6.648,0,0,0-3.377-3.8,14.431,14.431,0,0,0-2.082-.7,1.381,1.381,0,0,1,.608-.016,5.612,5.612,0,0,1,1.609.42,6.61,6.61,0,0,1,3.678,3.948l.1.3-.407-.075a8.451,8.451,0,0,1,4.235-3.053A4.685,4.685,0,0,1,102.322,180.282Z" transform="translate(-90.373 -179.019)"/></g><g transform="translate(6.971 46.076)"><path class="h" d="M96.008,195.387c.01.079-.81.135-2.023.6a8.85,8.85,0,0,0-3.969,3.022l-.267.368-.14-.442-.09-.281a6.645,6.645,0,0,0-3.376-3.8,14.371,14.371,0,0,0-2.083-.7,1.406,1.406,0,0,1,.609-.016,5.607,5.607,0,0,1,1.608.42,6.607,6.607,0,0,1,3.678,3.949c.033.1.065.208.1.3l-.407-.075a8.449,8.449,0,0,1,4.235-3.053A4.682,4.682,0,0,1,96.008,195.387Z" transform="translate(-84.059 -194.125)"/></g><g transform="translate(5.939 59.67)"><path class="h" d="M94.836,210.826c.01.078-.811.134-2.024.6a8.848,8.848,0,0,0-3.969,3.022l-.266.368-.141-.443-.089-.281a6.649,6.649,0,0,0-3.377-3.8,14.43,14.43,0,0,0-2.082-.7,1.37,1.37,0,0,1,.608-.017A5.583,5.583,0,0,1,85.1,210a6.607,6.607,0,0,1,3.678,3.948l.1.3-.407-.075a8.453,8.453,0,0,1,4.235-3.054A4.676,4.676,0,0,1,94.836,210.826Z" transform="translate(-82.887 -209.563)"/></g><g transform="translate(43.665 11.593)"><path class="h" d="M137.4,154.967c.035.071-.719.4-1.7,1.245a8.85,8.85,0,0,0-2.721,4.182l-.127.437-.282-.37-.178-.234a6.645,6.645,0,0,0-4.457-2.438,14.5,14.5,0,0,0-2.2.041c-.008-.026.189-.118.568-.219a5.577,5.577,0,0,1,1.656-.145,6.6,6.6,0,0,1,4.792,2.48l.193.254-.409.067a8.453,8.453,0,0,1,2.961-4.3A4.67,4.67,0,0,1,137.4,154.967Z" transform="translate(-125.733 -154.963)"/></g><g transform="translate(56.624 5.062)"><path class="h" d="M152.3,149.547c0,.079-.817.083-2.058.469a8.852,8.852,0,0,0-4.152,2.766l-.289.351-.113-.451c-.023-.091-.047-.188-.071-.286a6.65,6.65,0,0,0-3.13-4,14.44,14.44,0,0,0-2.035-.829,1.393,1.393,0,0,1,.609.022,5.6,5.6,0,0,1,1.578.521,6.608,6.608,0,0,1,3.422,4.173l.077.309-.4-.1a8.444,8.444,0,0,1,4.419-2.781A4.667,4.667,0,0,1,152.3,149.547Z" transform="translate(-140.45 -147.546)"/></g><g transform="translate(29.55 4.208)"><path class="h" d="M121.368,146.58c.035.07-.718.4-1.7,1.245a8.851,8.851,0,0,0-2.721,4.181l-.127.437-.281-.37-.179-.234A6.649,6.649,0,0,0,111.9,149.4a14.414,14.414,0,0,0-2.2.042c-.008-.026.189-.118.568-.22a5.577,5.577,0,0,1,1.656-.145,6.6,6.6,0,0,1,4.792,2.48l.193.254-.409.067a8.452,8.452,0,0,1,2.961-4.3A4.66,4.66,0,0,1,121.368,146.58Z" transform="translate(-109.702 -146.576)"/></g><g transform="translate(57.202 27.599)"><path class="h" d="M152.773,173.145c.035.071-.719.4-1.7,1.245a8.85,8.85,0,0,0-2.721,4.182l-.127.437-.281-.37-.179-.234a6.645,6.645,0,0,0-4.457-2.438,14.5,14.5,0,0,0-2.2.041c-.008-.026.189-.118.568-.219a5.577,5.577,0,0,1,1.656-.145,6.6,6.6,0,0,1,4.792,2.48l.193.254-.408.067a8.443,8.443,0,0,1,2.96-4.3A4.67,4.67,0,0,1,152.773,173.145Z" transform="translate(-141.107 -173.141)"/></g><g transform="translate(32.558 63.516)"><path class="h" d="M124.784,213.935c.036.071-.718.4-1.7,1.245a8.849,8.849,0,0,0-2.72,4.182l-.127.437-.282-.37-.179-.234a6.645,6.645,0,0,0-4.457-2.438,14.493,14.493,0,0,0-2.2.041c-.008-.026.188-.118.568-.219a5.571,5.571,0,0,1,1.655-.145,6.6,6.6,0,0,1,4.793,2.48l.192.254-.408.067a8.447,8.447,0,0,1,2.96-4.3A4.676,4.676,0,0,1,124.784,213.935Z" transform="translate(-113.119 -213.931)"/></g><g transform="translate(22.931 54.933)"><path class="h" d="M113.851,204.188c.035.071-.718.4-1.7,1.245a8.85,8.85,0,0,0-2.721,4.182l-.127.436-.281-.369-.179-.235a6.651,6.651,0,0,0-4.457-2.438,14.557,14.557,0,0,0-2.2.042c-.008-.026.189-.118.569-.22a5.572,5.572,0,0,1,1.655-.144,6.606,6.606,0,0,1,4.792,2.48l.193.254-.408.067a8.443,8.443,0,0,1,2.96-4.3A4.67,4.67,0,0,1,113.851,204.188Z" transform="translate(-102.185 -204.184)"/></g><g transform="translate(62.165 56.097)"><path class="h" d="M158.467,208.136c0,.08-.821.039-2.081.359a8.849,8.849,0,0,0-4.294,2.538l-.307.335-.088-.457-.056-.289a6.644,6.644,0,0,0-2.91-4.164,14.426,14.426,0,0,0-1.987-.938,1.4,1.4,0,0,1,.607.055,5.611,5.611,0,0,1,1.548.606,6.605,6.605,0,0,1,3.193,4.351l.06.313-.4-.121a8.452,8.452,0,0,1,4.563-2.539A4.686,4.686,0,0,1,158.467,208.136Z" transform="translate(-146.743 -205.506)"/></g><g transform="translate(43.554 76.236)"><path class="h" d="M137.617,228.39c.019.077-.789.229-1.94.834a8.85,8.85,0,0,0-3.585,3.469l-.221.4-.192-.424-.122-.268a6.649,6.649,0,0,0-3.8-3.372,14.517,14.517,0,0,0-2.15-.449,1.392,1.392,0,0,1,.6-.087,5.572,5.572,0,0,1,1.647.227,6.6,6.6,0,0,1,4.118,3.487l.131.291-.413-.026a8.451,8.451,0,0,1,3.845-3.532A4.681,4.681,0,0,1,137.617,228.39Z" transform="translate(-125.607 -228.378)"/></g><g transform="translate(55.591 66.743)"><path class="h" d="M151,220.226c0,.08-.822.039-2.081.358a8.858,8.858,0,0,0-4.294,2.539l-.307.335-.088-.456c-.018-.092-.037-.19-.056-.289a6.647,6.647,0,0,0-2.91-4.164,14.428,14.428,0,0,0-1.987-.938,1.4,1.4,0,0,1,.607.055,5.621,5.621,0,0,1,1.548.606,6.605,6.605,0,0,1,3.193,4.351l.059.313-.4-.121a8.452,8.452,0,0,1,4.563-2.539A4.686,4.686,0,0,1,151,220.226Z" transform="translate(-139.277 -217.596)"/></g><g transform="translate(25.942 77.669)"><path class="h" d="M117.328,232.636c0,.079-.821.039-2.08.358a8.844,8.844,0,0,0-4.294,2.539l-.307.335-.089-.456-.055-.29a6.647,6.647,0,0,0-2.911-4.164,14.392,14.392,0,0,0-1.986-.938,1.389,1.389,0,0,1,.607.055,5.585,5.585,0,0,1,1.548.6,6.609,6.609,0,0,1,3.193,4.351c.02.107.04.214.059.313l-.4-.122a8.45,8.45,0,0,1,4.563-2.539A4.665,4.665,0,0,1,117.328,232.636Z" transform="translate(-105.605 -230.005)"/></g><g transform="translate(61.452 78.801)"><path class="h" d="M157.731,231.3c.033.073-.737.362-1.765,1.156a8.841,8.841,0,0,0-2.932,4.036l-.15.429-.262-.383-.166-.244a6.649,6.649,0,0,0-4.326-2.664,14.529,14.529,0,0,0-2.2-.071c-.006-.026.195-.108.578-.19a5.6,5.6,0,0,1,1.662-.06,6.6,6.6,0,0,1,4.658,2.723c.062.09.122.181.18.263l-.411.046a8.45,8.45,0,0,1,3.178-4.143A4.677,4.677,0,0,1,157.731,231.3Z" transform="translate(-145.934 -231.291)"/></g><g transform="translate(57.747 42.327)"><path class="h" d="M153.392,189.871c.035.071-.719.4-1.7,1.245a8.85,8.85,0,0,0-2.721,4.182l-.127.437-.282-.37-.178-.234a6.645,6.645,0,0,0-4.457-2.438,14.5,14.5,0,0,0-2.2.041c-.008-.026.189-.118.568-.219a5.577,5.577,0,0,1,1.656-.145,6.6,6.6,0,0,1,4.792,2.48l.193.254-.409.067a8.457,8.457,0,0,1,2.96-4.3A4.676,4.676,0,0,1,153.392,189.871Z" transform="translate(-141.726 -189.867)"/></g><g transform="translate(68.685 13.442)"><path class="h" d="M165.813,157.067c.036.071-.718.4-1.7,1.245a8.843,8.843,0,0,0-2.721,4.182l-.127.437-.282-.37-.179-.234a6.642,6.642,0,0,0-4.456-2.438,14.5,14.5,0,0,0-2.2.041c-.008-.026.188-.118.568-.219a5.573,5.573,0,0,1,1.655-.145,6.6,6.6,0,0,1,4.793,2.48l.193.254-.409.067a8.452,8.452,0,0,1,2.96-4.3A4.682,4.682,0,0,1,165.813,157.067Z" transform="translate(-154.148 -157.063)"/></g><g transform="translate(94.925 27.945)"><path class="h" d="M195.615,173.538c.035.071-.718.4-1.7,1.245a8.848,8.848,0,0,0-2.721,4.182l-.127.437-.282-.37-.178-.234a6.649,6.649,0,0,0-4.457-2.438,14.415,14.415,0,0,0-2.2.042c-.008-.026.189-.119.568-.22a5.577,5.577,0,0,1,1.656-.145,6.6,6.6,0,0,1,4.792,2.48l.193.254-.409.067a8.452,8.452,0,0,1,2.96-4.3A4.69,4.69,0,0,1,195.615,173.538Z" transform="translate(-183.949 -173.534)"/></g><g transform="translate(114.8 25.346)"><path class="h" d="M218.187,170.586c.035.071-.719.4-1.7,1.245a8.854,8.854,0,0,0-2.721,4.182l-.127.437-.281-.37-.179-.234a6.647,6.647,0,0,0-4.457-2.438,14.411,14.411,0,0,0-2.2.042c-.008-.027.189-.119.568-.22a5.577,5.577,0,0,1,1.656-.145,6.6,6.6,0,0,1,4.792,2.48l.193.254-.408.067a8.447,8.447,0,0,1,2.96-4.3A4.69,4.69,0,0,1,218.187,170.586Z" transform="translate(-206.521 -170.582)"/></g><g transform="translate(123.907 14.275)"><path class="h" d="M228.529,158.012c.036.071-.718.4-1.7,1.245a8.854,8.854,0,0,0-2.72,4.182l-.127.437-.282-.37-.179-.234a6.647,6.647,0,0,0-4.457-2.438,14.4,14.4,0,0,0-2.2.042c-.009-.026.188-.119.568-.22a5.571,5.571,0,0,1,1.655-.145,6.6,6.6,0,0,1,4.793,2.48l.192.254-.408.067a8.447,8.447,0,0,1,2.96-4.3A4.69,4.69,0,0,1,228.529,158.012Z" transform="translate(-216.864 -158.008)"/></g><g transform="translate(77.549 27.844)"><path class="h" d="M176.168,173.427c.025.076-.768.295-1.863.993a8.848,8.848,0,0,0-3.282,3.757l-.187.414-.227-.405-.144-.257a6.648,6.648,0,0,0-4.07-3.041,14.519,14.519,0,0,0-2.181-.268,1.409,1.409,0,0,1,.593-.137,5.567,5.567,0,0,1,1.66.089,6.6,6.6,0,0,1,4.4,3.13l.155.278-.413.009a8.453,8.453,0,0,1,3.535-3.842A4.7,4.7,0,0,1,176.168,173.427Z" transform="translate(-164.215 -173.419)"/></g><g transform="translate(101.449 39.143)"><path class="h" d="M203.31,186.259c.026.075-.767.294-1.862.992a8.855,8.855,0,0,0-3.283,3.757l-.187.415-.226-.406-.144-.257a6.648,6.648,0,0,0-4.07-3.041,14.415,14.415,0,0,0-2.18-.267c0-.028.2-.091.593-.138a5.6,5.6,0,0,1,1.66.089,6.607,6.607,0,0,1,4.4,3.13c.053.1.106.19.154.279l-.413.008a8.447,8.447,0,0,1,3.536-3.841A4.667,4.667,0,0,1,203.31,186.259Z" transform="translate(-191.358 -186.251)"/></g><g transform="translate(104.224 25.27)"><path class="a" d="M195.744,179.386a11.716,11.716,0,0,1-.642-8.89c.138.028-.29,2.014-.1,4.476C195.169,177.434,195.877,179.338,195.744,179.386Z" transform="translate(-194.509 -170.495)"/></g><g class="g" transform="translate(25.568 33.787)"><path d="M106.281,196.833a14.334,14.334,0,0,0,1.461-16.665c.052.326-2.561,8.976-2.561,8.976l.668,7.394" transform="translate(-105.18 -180.168)"/></g><g transform="translate(36.599 37.282)"><g transform="translate(0.197)"><path class="o" d="M120,195.593l-2.041-9.923a1.275,1.275,0,0,1,1.256-1.532l25.686.12a1.275,1.275,0,0,1,1.261,1.423l-2.652,22.735a1.772,1.772,0,0,1-1.774,1.567l-16.749-.13a1.771,1.771,0,0,1-1.7-1.336Z" transform="translate(-117.932 -184.137)"/></g><g transform="translate(0 6.23)"><path class="l" d="M117.708,191.212h0a2.7,2.7,0,0,1,2.523,1.723,5.843,5.843,0,0,0,1.72,2.749c1.262.688,3.44,1.236,4.587.675s5.733-4.689,6.535-4.23,1.491,1.491.689,2.407-5.045,3.669-4.242,4.587,9.746-3.12,11.121-2.764,2.179,1.2,1.376,1.754-6.879,2.844-7.224,3.647c0,0,9.173-2.408,9.517-1.834s.918,1.49,0,1.834-8.828,2.408-9.517,2.752a16.648,16.648,0,0,1-3.536,1.032,37.953,37.953,0,0,0-3.695,1.172,8.1,8.1,0,0,1-5.7-.152l-.929-.379a3.643,3.643,0,0,1-2.261-3.591l.188-3.127-1-2.581Z" transform="translate(-117.708 -191.212)"/></g><path class="h" d="M134.961,188.352a.933.933,0,1,1-.933-.933A.933.933,0,0,1,134.961,188.352Z" transform="translate(-119.547 -184.529)"/></g></g></g></g><g transform="translate(159.354 219.453)"><g transform="translate(65.863 33.278)"><path class="d" d="M306.846,379.794c7.373,2.575,16.99.274,23.3-4.331s10.844-11.2,14.867-17.9c1.717-2.856,3.393-5.834,3.935-9.122s-.257-6.987-2.806-9.132c-3.963-3.335-10.034-1.643-14.535.92a50.125,50.125,0,0,0-24.757,39.562" transform="translate(-306.846 -337.456)"/></g><g transform="translate(73.779 81.567)"><path class="d" d="M315.836,403.992c4.427,5.84,12.034,8.441,19.356,8.78s14.556-1.685,21.4-4.311c2.483-.953,5.2-2.259,6.051-4.778a6.077,6.077,0,0,0-1.3-5.636,12.643,12.643,0,0,0-4.941-3.368,33.758,33.758,0,0,0-21.54-1.166c-7.086,1.838-13.277,5.947-19.029,10.478" transform="translate(-315.836 -392.298)"/></g><g transform="translate(62.702)"><path class="d" d="M306.31,343.695c6.1.122,10.722-5.224,13.485-10.667a39.537,39.537,0,0,0,3.635-24.653c-.558-3.119-1.737-6.481-4.528-7.981-2.836-1.525-6.526-.52-8.9,1.65s-3.68,5.268-4.631,8.345c-3.275,10.6-2.569,22.782.943,33.306" transform="translate(-303.256 -299.662)"/></g><g transform="translate(35.813 11.774)"><path class="d" d="M282.615,379.048c10.405-17.709,12.139-39.377,5.994-58.976-1-3.179-2.878-6.817-6.2-7.028-3.682-.233-5.99,3.872-7.007,7.419-3.568,12.445-2.809,25.665-2.021,38.587.486,7.96,3.22,14.765,9.238,20" transform="translate(-272.717 -313.034)"/></g><g transform="translate(0 57.352)"><path class="d" d="M266.935,392.515a42.56,42.56,0,0,0-25.25-26.775c-2.763-1.04-6.276-1.633-8.337.481-2.022,2.074-1.4,5.54-.1,8.13,2.095,4.182,5.5,7.543,8.884,10.768,3.082,2.933,6.284,5.877,10.182,7.582s11.058,2.139,14.622-.186" transform="translate(-232.045 -364.797)"/></g><g transform="translate(51.624 39.574)"><path class="a" d="M338.451,344.607c.005.007-.056.063-.181.162l-.561.435-2.181,1.631L333.945,348c-.568.44-1.162.949-1.814,1.477-1.287,1.076-2.811,2.235-4.342,3.691l-2.453,2.229c-.849.78-1.666,1.66-2.548,2.531-1.791,1.722-3.526,3.733-5.391,5.808a114.564,114.564,0,0,0-19.018,30.769c-1.023,2.6-2.045,5.047-2.785,7.419-.385,1.18-.807,2.3-1.124,3.411s-.612,2.174-.9,3.191c-.618,2.022-.973,3.9-1.36,5.534-.181.82-.371,1.578-.51,2.283-.123.7-.236,1.352-.337,1.937q-.308,1.7-.483,2.68c-.056.282-.1.511-.138.695a.9.9,0,0,1-.064.235.959.959,0,0,1,.014-.241c.024-.187.054-.418.09-.7q.144-.984.394-2.7.133-.884.3-1.949c.126-.71.3-1.472.471-2.3.363-1.642.7-3.534,1.294-5.567q.416-1.536.87-3.21c.309-1.115.723-2.245,1.1-3.432.726-2.386,1.738-4.852,2.753-7.464a112.117,112.117,0,0,1,19.094-30.89c1.883-2.076,3.635-4.082,5.444-5.8.893-.869,1.72-1.745,2.578-2.52l2.482-2.214c1.551-1.444,3.094-2.588,4.4-3.646.662-.52,1.265-1.019,1.843-1.448l1.611-1.136,2.237-1.558.589-.4A.958.958,0,0,1,338.451,344.607Z" transform="translate(-290.674 -344.606)"/></g><g transform="translate(52.06 86.726)"><path class="a" d="M352.289,400.1a4.1,4.1,0,0,1-.714-.12c-.466-.084-1.14-.263-2.026-.41a57.079,57.079,0,0,0-7.534-.922,54.969,54.969,0,0,0-44.633,18.573,57.01,57.01,0,0,0-4.656,5.994c-.52.732-.867,1.337-1.137,1.727a4.053,4.053,0,0,1-.418.59,3.894,3.894,0,0,1,.334-.641c.242-.407.564-1.03,1.062-1.78a50.687,50.687,0,0,1,4.555-6.117A54.082,54.082,0,0,1,342.037,398.3a50.846,50.846,0,0,1,7.55,1.08c.883.177,1.552.387,2.012.5A3.883,3.883,0,0,1,352.289,400.1Z" transform="translate(-291.17 -398.156)"/></g><g transform="translate(51.623 7.802)"><path class="a" d="M313.8,308.523a1.131,1.131,0,0,1-.04.275l-.166.8c-.164.731-.393,1.751-.684,3.048-.6,2.646-1.513,6.464-2.662,11.176-2.292,9.428-5.624,22.408-9.094,36.793-1.724,7.2-3.286,14.072-4.632,20.342-1.32,6.274-2.445,11.937-3.283,16.712-.449,2.383-.787,4.55-1.107,6.449s-.579,3.537-.776,4.879c-.2,1.313-.365,2.346-.48,3.086-.056.329-.1.593-.136.8a1.162,1.162,0,0,1-.064.27,1.2,1.2,0,0,1,.014-.277c.023-.21.052-.475.089-.807l.389-3.1c.166-1.346.391-2.991.693-4.895s.608-4.077,1.036-6.466c.8-4.787,1.887-10.462,3.183-16.746,1.323-6.279,2.871-13.162,4.6-20.363,3.472-14.391,6.857-27.358,9.235-36.762,1.181-4.676,2.14-8.473,2.813-11.138.328-1.287.587-2.3.773-3.026.088-.323.159-.581.213-.785A1.22,1.22,0,0,1,313.8,308.523Z" transform="translate(-290.674 -308.523)"/></g><g transform="translate(43.662 25.106)"><path class="a" d="M288.828,414.075a.8.8,0,0,1-.066-.214l-.145-.638q-.188-.906-.512-2.465c-.441-2.142-1.026-5.252-1.692-9.105-1.334-7.7-2.916-18.4-3.889-30.3-.471-5.952-.733-11.636-.849-16.807-.085-5.172-.04-9.832.121-13.74.048-1.956.177-3.72.262-5.272s.188-2.885.29-3.974q.145-1.585.231-2.508c.029-.262.053-.475.073-.651a.725.725,0,0,1,.041-.22.813.813,0,0,1,.008.225c-.006.176-.014.391-.024.654q-.052.923-.139,2.513c-.071,1.09-.152,2.424-.206,3.976s-.164,3.314-.189,5.267c-.117,3.905-.126,8.557-.015,13.72.139,5.162.415,10.835.886,16.777.971,11.881,2.5,22.575,3.742,30.287.623,3.858,1.154,6.975,1.537,9.127q.265,1.568.422,2.481c.039.261.07.474.1.648A.741.741,0,0,1,288.828,414.075Z" transform="translate(-281.632 -328.175)"/></g><g transform="translate(9.649 64.625)"><path class="a" d="M284.983,421.687a3.428,3.428,0,0,1-.271-.612c-.174-.453-.4-1.044-.685-1.781l-.489-1.287-.668-1.5-.763-1.721c-.269-.61-.618-1.224-.947-1.886s-.694-1.347-1.062-2.064l-1.265-2.176c-.836-1.527-1.916-3.045-2.959-4.7a110.963,110.963,0,0,0-7.837-10.016,123.169,123.169,0,0,0-8.994-9c-1.5-1.261-2.865-2.523-4.248-3.579l-1.97-1.57-1.869-1.379c-1.18-.9-2.29-1.644-3.268-2.3s-1.813-1.228-2.524-1.654l-1.612-1.021a3.5,3.5,0,0,1-.546-.386,3.35,3.35,0,0,1,.6.3l1.662.945c.727.4,1.59.939,2.575,1.588s2.123,1.366,3.32,2.246l1.9,1.359,1.994,1.553c1.4,1.048,2.785,2.3,4.3,3.56a116.651,116.651,0,0,1,9.06,9.016,105.793,105.793,0,0,1,7.845,10.088c1.039,1.669,2.112,3.2,2.937,4.746l1.247,2.2,1.04,2.089c.321.67.66,1.293.919,1.91l.733,1.744.634,1.518q.244.711.45,1.308c.248.751.447,1.354.6,1.816A3.428,3.428,0,0,1,284.983,421.687Z" transform="translate(-243.004 -373.056)"/></g><g transform="translate(73.615 59.955)"><path class="a" d="M337.576,367.912c0,.078-1.261.078-3.287.191a58.81,58.81,0,0,0-15.511,2.946c-1.926.638-3.1,1.1-3.128,1.028a3.091,3.091,0,0,1,.781-.424c.515-.247,1.277-.568,2.231-.93a46.8,46.8,0,0,1,15.614-2.966c1.021-.012,1.847.006,2.417.048A3.123,3.123,0,0,1,337.576,367.912Z" transform="translate(-315.649 -367.753)"/></g><g transform="translate(92.981 87.239)"><path class="a" d="M348.054,409.954a23.881,23.881,0,0,0-10.409-11.209,7.3,7.3,0,0,1,2.115.935,18.687,18.687,0,0,1,7.518,8.1A7.291,7.291,0,0,1,348.054,409.954Z" transform="translate(-337.643 -398.74)"/></g><g transform="translate(69.01 22.175)"><path class="a" d="M318.033,324.851c.1.106-1.817,2-3.908,4.578s-3.576,4.824-3.7,4.748a29.268,29.268,0,0,1,7.607-9.326Z" transform="translate(-310.42 -324.847)"/></g><g transform="translate(70.296 11.321)"><path class="a" d="M311.921,312.52a36.163,36.163,0,0,1,1.412,8.3,36.286,36.286,0,0,1-1.412-8.3Z" transform="translate(-311.88 -312.52)"/></g><g transform="translate(44.336 45.389)"><path class="a" d="M288.933,351.212a102.73,102.73,0,0,1-6.528,12.594,102.713,102.713,0,0,1,6.528-12.594Z" transform="translate(-282.398 -351.211)"/></g><g transform="translate(39.275 33.823)"><path class="a" d="M276.66,338.077a57.414,57.414,0,0,1,4.725,9.492,57.309,57.309,0,0,1-4.725-9.492Z" transform="translate(-276.649 -338.076)"/></g><g transform="translate(12.895 72.396)"><path class="a" d="M256.053,382.868c-.033.14-2.1-.262-4.675-.438s-4.676-.083-4.689-.227a18.77,18.77,0,0,1,9.363.665Z" transform="translate(-246.69 -381.882)"/></g><g transform="translate(33.887 108.354)"><path class="a" d="M270.53,422.72l5.792,30.464a4.271,4.271,0,0,0,4.2,3.473h17.113a4.272,4.272,0,0,0,4.213-3.572l5.035-30.365Z" transform="translate(-270.53 -422.72)"/><g transform="translate(0)"><path class="f" d="M272.413,432.621H305.14l1.739-9.9H270.53Z" transform="translate(-270.53 -422.72)"/></g><g transform="translate(1.883 9.901)"><path class="h" d="M272.668,433.964l.686,3.61h31.54l.5-3.61Z" transform="translate(-272.668 -433.964)"/></g></g></g><g transform="translate(413.654 161.599)"><g transform="translate(75.066)"><rect class="p" width="74.18" height="56.912" rx="10.644"/><rect class="h" width="74.18" height="56.912" rx="10.644" transform="translate(4.46)"/><path class="p" d="M641.912,286.264l-.8,22.283h18.4V286.507Z" transform="translate(-610.288 -240.207)"/><path class="p" d="M656.107,264.481a3.255,3.255,0,1,1-3.255-3.255A3.255,3.255,0,0,1,656.107,264.481Z" transform="translate(-611.301 -237.216)"/></g><g transform="translate(0 68.603)"><rect class="a" width="66.561" height="131.743" transform="translate(87.376)"/><rect class="f" width="152.796" height="11.205" transform="translate(1.141)"/><rect class="a" width="66.561" height="131.743"/></g></g></g><path class="h" d="M40.45-63C18.105-63.02,0-76.668,0-93.5S18.132-124,40.5-124,81-110.345,81-93.5c0,15.038-14.451,27.535-33.467,30.042.151,4.855,4.511,9.978,4.426,10.02C45.063-53.438,41.843-59.128,40.45-63Z" transform="translate(570 1679)"/><path class="h" d="M40.45,9.562C18.105,9.582,0,23.23,0,40.062s18.132,30.5,40.5,30.5S81,56.906,81,40.062C81,25.024,66.549,12.527,47.533,10.02,47.684,5.165,52.044.041,51.959,0,45.063,0,41.843,5.69,40.45,9.562Z" transform="translate(473 1548.562) rotate(180)"/></g></svg>