<svg xmlns="http://www.w3.org/2000/svg" width="584" height="385.42" viewBox="0 0 584 385.42"><defs><style>.a,.i{fill:#e8dae1;}.a{opacity:0.95;}.b{fill:#263238;}.c{fill:#800040;}.d{fill:#e4e4e4;}.e{fill:#0e2d3d;}.f{fill:#163342;}.g{fill:#ffbe9d;}.h{fill:#800340;}.j{fill:#5f012f;}.k{fill:#616161;}.l{fill:#f5f3f5;}.m{fill:#eb996e;}.n{fill:#fff;}.o{fill:#455a64;}.p{fill:#292c47;}.q{fill:#424773;}.r{fill:#3a3f47;}.s{fill:#e2d2ca;}.t{fill:#323657;}.u{fill:#2f3e45;}</style></defs><g transform="translate(-498.839 -328.64)"><rect class="a" width="146.876" height="146.876" rx="10" transform="translate(710.784 328.64)"/><rect class="b" width="68.001" height="3.359" transform="translate(750.222 442.077)"/><rect class="b" width="48.738" height="3.359" transform="translate(759.853 452.662)"/><rect class="a" width="201.017" height="235.948" rx="10" transform="translate(881.823 379.58)"/><g transform="translate(972.965 518.774)"><rect class="c" width="15.943" height="2.953" transform="translate(0 0)"/></g><g transform="translate(912.437 545.831)"><rect class="b" width="92.772" height="5.717"/><rect class="b" width="75.02" height="5.717" transform="translate(0 27.446)"/><rect class="b" width="43.98" height="5.717" transform="translate(0 13.723)"/></g><g transform="translate(914.034 403.11)"><path class="c" d="M2105.339,763.9v2.887h17v15.955h2.887V763.9ZM1989.9,782.744h2.887V766.789h17V763.9H1989.9Zm132.445,82.328v15.961h-17v2.887h19.888V865.072Zm-129.558,0H1989.9V883.92h19.887v-2.887h-17Z" transform="translate(-1989.895 -763.902)"/></g><g transform="translate(1023.364 545.412)"><g transform="translate(0 0)"><path class="c" d="M2399.525,1308.943a17,17,0,1,1,17-17A17.021,17.021,0,0,1,2399.525,1308.943Zm0-30.713a13.711,13.711,0,1,0,13.711,13.711A13.727,13.727,0,0,0,2399.525,1278.23Z" transform="translate(-2382.523 -1274.94)"/></g><g transform="translate(8.193 11.473)"><path class="c" d="M2419.671,1328.363l-7.724-7.724,2.327-2.327,5.4,5.4,7.566-7.566,2.327,2.327Z" transform="translate(-2411.947 -1316.143)"/></g></g><path class="d" d="M1050.59,1863.457c0,1.531-123.514,2.772-275.875,2.772s-275.875-1.241-275.875-2.772,123.514-2.772,275.875-2.772S1050.59,1861.926,1050.59,1863.457Z" transform="translate(0 -1152.168)"/><g transform="translate(684.713 433.215)"><g transform="translate(25.047)"><path class="e" d="M1279.069,873.962s8.854,4.331,6.665,16.111-3.158,13.369-.709,17.972,5.338,24.24,3.134,27.962-27.276-16.356-30.753-33.2,2.2-24.338,4.211-27.129S1271.254,870,1279.069,873.962Z" transform="translate(-1256.304 -872.019)"/></g><g transform="translate(42.397 250.866)"><path class="f" d="M1320.686,1797.418h2.007v-9.463a26.874,26.874,0,0,1,6.405,6.251c2.47,3.627,5.865,3.318,11.035,3.087s4.939-2.315,4.476-5.248-5.711-3.858-7.409-4.322-5.551-7.1-6.791-8.72a22.156,22.156,0,0,1-2.585-4.321s-.965-3.936-5.749,0-3.4,11.5-2.855,12.192S1320.686,1797.418,1320.686,1797.418Z" transform="translate(-1318.611 -1772.933)"/></g><g transform="translate(44.774 251.575)"><path class="g" d="M1336.956,1789.561c1.775,1.158,6.405,0,6.405,0-1.312-1.7-9.376-13.042-9.376-13.042-4.9-2.855-6.837,1.074-6.837,1.074C1329.147,1778.2,1335.181,1788.4,1336.956,1789.561Z" transform="translate(-1327.148 -1775.48)"/></g><g transform="translate(105.924 85.759)"><path class="g" d="M1547.008,1185.325s3.212.616,4.31-.894a10.488,10.488,0,0,1,3.723-2.573c.878-.407,3.106-2.662,3.631-1.56s-3.5,3.893-4.221,4.646,3.941,1.087,4.747,1.82-.185,8.432-3.362,7.833-6.175-3.337-6.755-3.332a19.816,19.816,0,0,1-2.329-.345Z" transform="translate(-1546.752 -1179.997)"/></g><g transform="translate(115.16 92.21)"><path class="g" d="M1582.421,1203.166s9.6,2.481,10.106,3.182.336,1.214-.571,1.019-9.349-2.129-9.349-2.129,10.874,4.847,11.41,5.331c.314.284.053,1.295-.442,1.236s-11.548-4.247-11.548-4.247,10.144,4.544,10.472,5.083a.765.765,0,0,1-.961,1.054c-.775-.285-10.429-3.97-10.429-3.97s7.176,3.771,7.184,4.391c.005.379-.18,1.263-2,.233s-6.373-3.012-6.373-3.012Z" transform="translate(-1579.92 -1203.166)"/></g><g transform="translate(17.909 258.564)"><path class="f" d="M1231.236,1818.011h1.235v-6.945a15.107,15.107,0,0,1,3.2,5.577c1,3.319,4.6,4.3,10.074,4.148s5.556-2.317,5.093-5.558-5.093-4.939-5.093-4.939c-2.084-1.852-7.254-9.531-7.254-9.531a7.227,7.227,0,0,0-5.922,1.215c-2.6,2.1-1.795,6.85-1.717,8.084S1231.236,1818.011,1231.236,1818.011Z" transform="translate(-1230.671 -1800.578)"/></g><g transform="translate(11.02 107.804)"><path class="b" d="M1217.166,1261.907s-6.529,8.488-8.3,18.559,1.046,43.871.969,48.849-4.708,17.363-3.781,26.739,4.581,56.043,4.581,56.043l10-1.985s-.579-47.575,0-51.511,1.74-18.282,1.972-19.9,14.7-44.174,14.7-51.435S1232.909,1250.061,1217.166,1261.907Z" transform="translate(-1205.931 -1259.166)"/></g><g transform="translate(32.604 111.738)"><path class="b" d="M1305.891,1275.418s10.727,40.938,12,46.611,3.118,10.35,3.118,12.758c0,5.588-2.076,14.56-2.076,14.56l-13.621,65.146h-12.973s7.228-39.083,7.422-46.726c.195-7.659,6.091-18.536,4.933-21.777s-18.636-40.63-18.636-40.63S1272.824,1263.534,1305.891,1275.418Z" transform="translate(-1283.443 -1273.293)"/></g><g transform="translate(19.806 258.75)"><path class="g" d="M1250.657,1810.776l-7.254-9.53-5.922,1.215a26.856,26.856,0,0,0,4.473,7.475C1245.363,1813.737,1250.657,1810.776,1250.657,1810.776Z" transform="translate(-1237.481 -1801.246)"/></g><g transform="translate(46.727 44.293)"><path class="h" d="M1338.058,1031.084a13.383,13.383,0,0,1,7.764,4,51.245,51.245,0,0,1,7.353,11.2c.875,1.91,13.143,19.606,13.78,20s6.8,2.458,10.889,3.833c6.306,2.122,18.945,6.716,18.945,6.716l-2.51,7.948s-23.768-7.777-29.72-9.243c-7.278-1.793-24.035-23.29-24.035-23.29S1328.033,1037.608,1338.058,1031.084Z" transform="translate(-1334.162 -1031.084)"/></g><g transform="translate(12.2 40.89)"><path class="i" d="M1240.873,1019.165s5.729,2.705,7.718,3.1,9.707,10.423,11.059,14.083,0,9.15-2.785,15.594-.159,8.593-1.432,15.037-.864,30.554-.625,34.134-37.24,9.007-44.64,2.483c0,0,5.009-21.728,10.94-27.93,1.283-1.341,1.147-10.279.272-12.507s-10.741-18.856-10.741-18.856-.724-16.866,3.581-20.209c3.739-2.9,13.931-3.939,15.761-4.576S1237.134,1018.608,1240.873,1019.165Z" transform="translate(-1210.169 -1018.865)"/></g><g transform="translate(32.013 26.74)"><path class="g" d="M1294.948,975.887s-.171,1.577-.369,3.709c-.076.843-.16,1.775-.235,2.728a64.41,64.41,0,0,0-.3,7.494s-5.955,5.966-12.723-6.962a17.765,17.765,0,0,0,.7-12.589C1279.881,963.005,1294.948,975.887,1294.948,975.887Z" transform="translate(-1281.321 -968.047)"/></g><g transform="translate(59.478 61.02)"><path class="j" d="M1382.777,1106.481s1.433-9.53-.091-15.327a37.015,37.015,0,0,1-2.732,12.061Z" transform="translate(-1379.954 -1091.154)"/></g><g transform="translate(27.439 41.4)"><path class="g" d="M1264.894,1021.76s4.095,12.094,15.337,11.2,5.329-10.212,5.329-10.212a24.813,24.813,0,0,0-3.59-1.758c-.789-.152-12.43-.3-12.43-.3Z" transform="translate(-1264.894 -1020.695)"/></g><g transform="translate(48.105 43.458)"><path class="h" d="M1339.112,1028.084s5.888,16.288,5.888,32.889.474,43.643,2.53,52.183,7.907,34.949,7.907,34.949l4.586-2.372s-11.028-42.149-11.861-45.188.633-35.148,1.424-37.836,4.154-14.656,3.631-17.976c-.659-4.185-4.576-10.378-10.9-15.7Z" transform="translate(-1339.112 -1028.084)"/></g><g transform="translate(4.812 41.956)"><path class="h" d="M1208.483,1022.691a169.339,169.339,0,0,1,5.515,26.727c1.854,15.008-5.693,84.674-10.753,100.488l-19.61-3.163s4.221-49.242,9.952-58.2,7.553-16.89,1.368-35.594,2.711-27.968,2.711-27.968S1206.763,1022.885,1208.483,1022.691Z" transform="translate(-1183.634 -1022.691)"/></g><g transform="translate(0.608 75.795)"><path class="k" d="M1218.746,1160.07l-23.777,41.182-26.432-15.26,22.744-41.778Z" transform="translate(-1168.537 -1144.214)"/></g><g transform="translate(3.358 78.985)"><path class="l" d="M1223.007,1169.755l-21.117,36.575-23.475-13.554,20.2-37.1Z" transform="translate(-1178.415 -1155.672)"/></g><g transform="translate(30.298 81.736)"><path class="k" d="M1285.024,1173.6l1.482-2.567-9.49-5.479-1.853,2.353Z" transform="translate(-1275.163 -1165.549)"/></g><g transform="translate(28.124 106.201)"><path class="g" d="M1278.258,1266.209a4.92,4.92,0,0,1-1.555-.224s-.83-.482-1.441-.789a4.446,4.446,0,0,0-.482-.216,9.014,9.014,0,0,1-2.651-1.121,60.334,60.334,0,0,1-4.774-5.039l1.758-2.674,1.29-2.738s7.817.5,8.875,1.071a3.049,3.049,0,0,1,.292.177,11.465,11.465,0,0,1,1.655,1.692c.15.129,1.56,1.508,1.511,2.1a1.926,1.926,0,0,1-.936,1.622,4.606,4.606,0,0,1-.986,2.333,2.863,2.863,0,0,1-1.378,2.119S1279.126,1265.995,1278.258,1266.209Z" transform="translate(-1267.355 -1253.408)"/></g><g transform="translate(0 44.051)"><path class="h" d="M1189.269,1030.457s-7.22-2.069-11.358,5.888-4.117,11.351-4.67,15.236c-.522,3.668-2.879,13.684-3.118,14.719s-5.577,13.368-3.129,17.679c2.46,4.333,27.451,17.088,27.292,18.042s4.328-9.643,4.328-9.643-10.112-5.636-11.768-7.371c-2.69-2.819-8.365-5.856-7.2-9.353,1.37-4.108,5.484-17.967,6.438-20S1195.356,1033.042,1189.269,1030.457Z" transform="translate(-1166.355 -1030.215)"/></g><g transform="translate(29.574 2.875)"><path class="g" d="M1289.517,882.717s12.855,4.04,5.876,26.223-24.534-2.571-22.7-16.086S1289.517,882.717,1289.517,882.717Z" transform="translate(-1272.563 -882.342)"/></g><g transform="translate(28.561 1.093)"><path class="e" d="M1294.081,891.044A29,29,0,0,1,1277,898.1s-4.108,4.817-4.424,6.707c0,0-9.537-16.256,2.186-26S1298.39,887.029,1294.081,891.044Z" transform="translate(-1268.922 -875.943)"/></g><g transform="translate(32.31 19.248)"><path class="g" d="M1286.85,945.58c-.083-1.615-1.077-5.289-3.477-4.26s.147,8.51,1.738,8.05C1285.111,949.37,1287.045,949.4,1286.85,945.58Z" transform="translate(-1282.389 -941.141)"/></g><g transform="translate(35.57 32.239)"><path class="m" d="M1303.8,993.845c-.076.843-.16,1.775-.236,2.728,0,0-5.674-.338-9.466-8.778C1294.342,988.164,1298.5,994.27,1303.8,993.845Z" transform="translate(-1294.095 -987.795)"/></g></g><g transform="translate(531.866 501.898)"><g transform="translate(56.576 38.981)"><path class="c" d="M821.406,1392.152c8.242-5.8,17.889-46.192,18.464-70.252.295-12.325,3.938-17.459,7.152-21.99,3.073-4.331,5.726-8.07,4.18-16.657-2.954-16.411,4.813-23.495,4.891-23.564l-.9-1.025c-.346.3-8.434,7.609-5.334,24.831,1.444,8.023-.936,11.379-3.95,15.627-3.163,4.458-7.1,10-7.4,22.746-.618,25.821-10.48,63.962-17.886,69.17Z" transform="translate(-820.622 -1258.664)"/></g><g transform="translate(0 94.548)"><path class="c" d="M657.529,1524.355c-.778-1.764-1.583-3.587-2.495-5.511-4.708-9.939-8.879-11.576-15.79-14.288-1.689-.663-3.6-1.414-5.7-2.358-9.9-4.448-7.982-11-6.291-16.788.236-.809.472-1.616.677-2.414.871-3.4-.8-5.108-3.334-7.691a28.876,28.876,0,0,1-6.029-8.084c-1.976-4.13-.969-6.345.224-7.476,2.511-2.38,8.3-1.942,13.768,1.043a19.9,19.9,0,0,1,4.577,3.941c3.485,3.649,7.822,8.191,18.792,8.242,6.255.029,9.681.893,11.455,2.887,2.014,2.263,1.634,5.65,1.109,10.339-.182,1.622-.388,3.46-.513,5.446a31.768,31.768,0,0,0,6.317,20.478c4.179,4.975,9.326,15.3,7.1,21.652-.931,2.664-3.014,4.34-6.191,4.982a17.635,17.635,0,0,1-3.485.378C664.049,1539.132,661.241,1532.769,657.529,1524.355ZM631.9,1461.984c-4.882-2.665-10.117-3.2-12.177-1.25-1.566,1.484-.828,4.026.068,5.9a27.332,27.332,0,0,0,5.773,7.718c2.649,2.7,4.742,4.838,3.681,8.984-.208.813-.448,1.635-.689,2.458-1.684,5.76-3.274,11.2,5.542,15.162,2.071.931,3.968,1.675,5.643,2.332,6.975,2.738,11.584,4.546,16.524,14.974.919,1.94,1.728,3.772,2.51,5.544,4.264,9.665,6.838,15.5,16.16,13.613,2.672-.54,4.413-1.918,5.175-4.1,1.958-5.6-2.727-15.4-6.863-20.328a32.559,32.559,0,0,1-6.632-21.438c.127-2.019.335-3.875.519-5.511.486-4.338.837-7.472-.772-9.281-1.471-1.653-4.692-2.4-10.443-2.429-11.549-.054-16.108-4.828-19.771-8.664a18.671,18.671,0,0,0-4.244-3.686Z" transform="translate(-617.446 -1458.216)"/></g><g transform="translate(10.573 105.434)"><path class="c" d="M702.456,1575.21l1.361-.072c-.067-1.279-1.784-31.425-13.888-40.248-13.28-9.68-17.466-20.082-19.46-27.064-2.35-8.227-14.309-10.426-14.817-10.516l-.237,1.342c.116.021,11.628,2.142,13.743,9.548,2.049,7.176,6.349,17.863,19.968,27.791C700.711,1544.436,702.44,1574.9,702.456,1575.21Z" transform="translate(-655.415 -1497.31)"/></g><g transform="translate(44.798)"><path class="c" d="M788.838,1308.787c-2.848-1.418-2.745-7.121-2.589-15.753.2-10.908.468-25.846-5.242-39.587-6.066-14.6-.656-18.863,4.576-22.989,5.86-4.621,11.394-8.985.772-28.685-4.879-9.048-6.427-15.168-4.874-19.26,1.535-4.044,5.842-5.62,10.4-7.289,7.87-2.88,16.79-6.145,15.638-22.8-.353-5.106.247-8.246,1.889-9.882,1.784-1.777,4.414-1.584,7.457-1.362,4.6.336,9.809.718,14.348-5.2.472-1.48,4.811-14.687,10-16.948a3.676,3.676,0,0,1,3.175.017h0c3.583,1.714,5.663,3.746,6.357,6.214,1.208,4.292-1.935,9.133-5.576,14.738-5.721,8.809-12.205,18.792-5.48,30.673,8.892,15.709,4.2,21.207-2.3,28.816-3.724,4.359-7.944,9.3-10.766,17.358-2.269,6.481,1.6,12.661,5.346,18.637,4.7,7.5,9.552,15.248-.672,21.975-16.9,11.122-33.6,47.424-33.765,47.79l-.069.15-.131.1c-3.114,2.441-5.381,3.606-7.088,3.606A3.1,3.1,0,0,1,788.838,1308.787Zm41.707-52.471c9.111-5.994,5.012-12.537.266-20.112-3.733-5.958-7.963-12.712-5.477-19.811,2.906-8.3,7.215-13.344,11.017-17.793,6.369-7.455,10.576-12.381,2.155-27.259-7.132-12.6-.115-23.406,5.523-32.088,3.46-5.327,6.448-9.928,5.407-13.626-.582-2.068-2.424-3.819-5.633-5.354h0a2.335,2.335,0,0,0-2.042,0c-4.816,2.1-9.238,16.079-9.282,16.22l-.035.113-.071.094c-5,6.61-10.88,6.18-15.6,5.833-2.823-.207-5.052-.37-6.4.968-1.323,1.318-1.811,4.2-1.492,8.822,1.223,17.679-8.62,21.282-16.529,24.177-4.444,1.626-8.282,3.031-9.6,6.492-1.4,3.7.123,9.456,4.8,18.129,11.166,20.708,4.916,25.637-1.128,30.4-5.055,3.987-9.831,7.753-4.161,21.4,5.819,14,5.546,29.107,5.346,40.135-.137,7.528-.244,13.474,1.833,14.509,1.216.606,3.541-.417,6.913-3.04C797.711,1301.589,813.7,1267.4,830.545,1256.316Z" transform="translate(-778.327 -1118.674)"/></g><path class="c" d="M694.721,1232.279c8.6-2.95,6.816,13.632,10.451,25.9s40.441,5.352,24.992,36.074,19.539,10.274,9.088,37.083-.909,55.482-12.269,48.189-6.382-41.053-18.2-45.065-13.742-8.69-2.045-19.6-30.651-21.732-20.2-43.753S684.781,1235.687,694.721,1232.279Z" transform="translate(-666.093 -1200.396)"/><g transform="translate(34.265 69.864)"><path class="n" d="M763.163,1477.077c1.082-4.59,10.321-44.979,1.7-49.861-7.6-4.3-7.411-21.039-6.226-36.843,1.049-13.99-16.918-20.529-17.684-20.8l-.456,1.284c.178.063,17.751,6.464,16.78,19.414-1.217,16.23-1.348,33.453,6.914,38.132,6.546,3.707.519,36.167-2.355,48.362Z" transform="translate(-740.498 -1369.572)"/></g><path class="o" d="M803.676,1704l-12.283,46.6h-27.45L751.66,1704Z" transform="translate(-714.287 -1541.009)"/><path class="b" d="M803.676,1704s-27.041,5.077-27.041,46.6H763.943L751.66,1704Z" transform="translate(-714.287 -1541.009)"/></g><g transform="translate(778.506 425.666)"><rect class="c" width="11.432" height="2.117" transform="translate(0 0)"/></g><g transform="translate(735.703 343.897)"><path class="c" d="M1432.248,551.257v2.07h12.19v11.44h2.07v-13.51Zm-82.778,13.51h2.07v-11.44h12.19v-2.07h-14.26Zm94.968,59.031v11.445h-12.19v2.07h14.26V623.8Zm-92.9,0h-2.07v13.515h14.26v-2.07h-12.19Z" transform="translate(-1349.47 -551.257)"/></g><g transform="translate(812.845 433.216)"><g transform="translate(0 32.44)"><path class="p" d="M1678.077,1025.894l-25.732,14.145L1626.5,999.373l31.254-10.857Z" transform="translate(-1626.504 -988.517)"/></g><g transform="translate(1.712 33.641)"><path class="n" d="M1680.88,1027.785l-24.064,13.228-24.166-38.029,29.228-10.153Z" transform="translate(-1632.65 -992.83)"/></g><g transform="translate(28.243 53.032)"><path class="g" d="M1758.442,1070.919s-4.479-2.142-6.445-3.262-7.023-2.656-7.431-3.021-14.99-1.264-15.875-2.028-1.744,1.788,2.035,2.616,9.039,2.852,9.326,4.329-3.882,1.827-4.3,3.044.118.943.716,1.2,4.96-2.155,6.877-1.469,4.85-.264,6.32.24,8.618,2.908,8.618,2.908Z" transform="translate(-1727.931 -1062.468)"/></g><g transform="translate(4.883 53.073)"><path class="g" d="M1663.744,1088.4s-3.763-3.387-5.583-4.8-5.238-5.584-5.741-5.827-7.029-13.634-8.093-14.17,1.006-2.34,3.258.9,6.208,7.407,7.711,7.1.21-4.37,1.192-5.242.936-.256,1.414.206-.1,5.512,1.294,7.053,1.64,4.673,2.687,5.863,6.1,6.989,6.1,6.989Z" transform="translate(-1644.04 -1062.617)"/></g><g transform="translate(105.619 259.134)"><path class="q" d="M2005.8,1803.354s.814,5.649.916,6.5,9.054-.5,9.054-.5l.725-6.725S2006.924,1802.557,2005.8,1803.354Z" transform="translate(-2005.805 -1802.625)"/></g><g transform="translate(90.904 265.26)"><path class="p" d="M1968.495,1825.008a24.163,24.163,0,0,1-5.58,4.888c-2.744,1.484-7.055,2.072-8.677,3.607-1.171,1.109-4.265,5.882,7.129,5.786s16.888.674,18.108-1.156-1.766-13.508-1.766-13.508S1975.01,1825.6,1968.495,1825.008Z" transform="translate(-1952.959 -1824.625)"/></g><g transform="translate(41.474 259.134)"><path class="q" d="M1775.445,1803.354s.814,5.649.916,6.5,9.054-.5,9.054-.5l.725-6.725S1776.564,1802.557,1775.445,1803.354Z" transform="translate(-1775.445 -1802.625)"/></g><g transform="translate(21.496 265.26)"><path class="p" d="M1724.5,1825.008a24.164,24.164,0,0,1-5.58,4.888c-2.743,1.484-12.839,2.7-14.461,4.238-1.171,1.109-3.118,5.572,12.913,5.155,11.39-.3,16.887.674,18.108-1.156s-1.766-13.508-1.766-13.508S1731.17,1825.662,1724.5,1825.008Z" transform="translate(-1703.7 -1824.625)"/></g><g transform="translate(77.665 114.698)"><path class="b" d="M1925.958,1283.926s8.412,13.365,7.784,25.446,3.05,25.271,4.314,37.891c1.409,14.069,7.174,47.376,7.383,54.9s-.9,31.557-.9,31.557l-11.541.264s-9.693-58.229-12.2-64.171-14.959-48.3-15.377-53.052S1925.958,1283.926,1925.958,1283.926Z" transform="translate(-1905.418 -1283.926)"/></g><g transform="translate(39.914 112.396)"><path class="b" d="M1783.854,1279.771s-6.339,33.112-7.176,40.506-1.395,35.782-1.813,40.4-2.789,60.474-5.021,67.339H1784.6s11.325-40.6,11.325-59.813,8.75-41.763,14.4-54.438,18.576-12.975,22.048-36.492C1832.37,1277.276,1788.555,1272.313,1783.854,1279.771Z" transform="translate(-1769.845 -1275.658)"/></g><g transform="translate(64.06 1.301)"><path class="g" d="M1876.665,877.724s-11.29-4.217-16.5,4.377-4.7,25.8.987,27.917,14.241,1.009,17.155-4.369,5.544-13.153,5.418-18.349S1879.63,879.225,1876.665,877.724Z" transform="translate(-1856.556 -876.69)"/></g><g transform="translate(69.549 24.307)"><path class="g" d="M1876.605,970.027s.47,3.048-.307,4.55,14.627,1.541,14.627,1.541a101.542,101.542,0,0,1,3.621-15.069C1896.918,954.147,1876.605,970.027,1876.605,970.027Z" transform="translate(-1876.27 -959.311)"/></g><g transform="translate(64.544)"><path class="r" d="M1881.579,898.064s-1.062,1.754-5.4,1.073-9.635-6.454-11.447-7.088-1.829-1.7-1.829-1.7l-1.134,1.657-1.925.121s1.755-5.165-.893-7.271S1861.7,868.14,1875.615,873c0,0,10.69,2.947,10.3,9.026S1883.971,895.036,1881.579,898.064Z" transform="translate(-1858.297 -872.019)"/></g><g transform="translate(68.663 35.172)"><path class="s" d="M1873.088,1002.55s.049-2.869,1.349-3.144,14.355-1.53,15.951-.9v3.342S1887.313,1003.738,1873.088,1002.55Z" transform="translate(-1873.088 -998.33)"/></g><g transform="translate(69.094 13.904)"><path class="g" d="M1874.976,924.168c.244-1.02,2.837-3.934,3.83-.814s-1.5,7.317-2.891,6.958S1874.359,926.753,1874.976,924.168Z" transform="translate(-1874.635 -921.951)"/></g><g transform="translate(16.799 73.29)"><path class="t" d="M1686.886,1135.222a.036.036,0,0,1,.021,0C1686.818,1135.26,1686.8,1135.263,1686.886,1135.222Z" transform="translate(-1686.832 -1135.22)"/></g><g transform="translate(16.875 38.687)"><path class="o" d="M1777.926,1118.8a119.419,119.419,0,0,1-18.732,3.34c-11.808,1.3-41.31-.47-41.5-1.864s6.346-51.944,5.975-54.548-.571-11.878-.571-11.878c-.146,2.541-2.735,12.923-5.86,18.582-1.13,2.045-4.918,8.453-6.743,7-8.839-7.057-22.525-33.649-23.392-33.873.729-.317,6.486-2.968,7.294-3.237.708-.236,7.084,6.515,10.947,10.7,1.723,1.866,2.946,3.221,2.946,3.221,1.116-2.51,5.179-18.323,6.442-23.8,2.849-12.342,2.41-12.855,2.41-12.855,8.638-2.613,21.75-7.932,21.75-7.932l17.3-.7s15.878,3.5,22.131,6.32c.593.268.6,14.165,2.224,17.81l-5.185,10.938s-2.995,21.666-3.616,31.3C1771.464,1081.747,1777.926,1118.8,1777.926,1118.8Z" transform="translate(-1687.105 -1010.954)"/></g><g transform="translate(91.777 45.007)"><path class="o" d="M1975.357,1069.5c-.452,1.458-2.5,2.69-3.835,3.229a4.956,4.956,0,0,1-2.77.279l-.678-.125h0l-11.856-2.2s-2.594-29.877,16.2-37.035C1972.912,1033.813,1979.507,1056.125,1975.357,1069.5Z" transform="translate(-1956.097 -1033.65)"/></g><g transform="translate(103.755 68.974)"><path class="u" d="M2002.558,1134.834h0a4.957,4.957,0,0,1-2.77.279l-.678-.125h0l1.169-15.267Z" transform="translate(-1999.111 -1119.72)"/></g><g transform="translate(35.113 80.754)"><path class="u" d="M1755.551,1165.244l-1.449,6.137s-1.573-6.158-1.5-9.358C1754.328,1163.889,1755.551,1165.244,1755.551,1165.244Z" transform="translate(-1752.603 -1162.023)"/></g><g transform="translate(87.384 3.318)"><path class="r" d="M1940.32,883.965s14.8-1.853.251,22.864Z" transform="translate(-1940.32 -883.934)"/></g><g transform="translate(10.392 34.442)"><path class="p" d="M1665.326,1002.381l-1.5-2.584,11.847-4.088,1.5,2.57Z" transform="translate(-1663.822 -995.709)"/></g></g></g></svg>