<svg xmlns="http://www.w3.org/2000/svg" width="75" height="75" viewBox="0 0 75 75"><defs><style>.a{fill:#800040;}.b{fill:#fff;}</style></defs><g transform="translate(-140 -915)"><rect class="a" width="75" height="75" rx="37.5" transform="translate(140 915)"/><g transform="translate(154.604 930)"><path class="b" d="M48.75,36.25a.75.75,0,0,0,.75-.75v-.75a.75.75,0,0,0-1.5,0v.75A.75.75,0,0,0,48.75,36.25Z" transform="translate(-13.5 -10)"/><path class="b" d="M44.75,36.25a.75.75,0,0,0,.75-.75v-.75a.75.75,0,1,0-1.5,0v.75A.75.75,0,0,0,44.75,36.25Z" transform="translate(-12.5 -10)"/><path class="b" d="M47.22,39.22a1.373,1.373,0,0,1-1.939,0A.75.75,0,1,0,44.22,40.28a2.873,2.873,0,0,0,4.061,0A.75.75,0,1,0,47.22,39.22Z" transform="translate(-12.5 -11.25)"/><path class="b" d="M41.75,35.75H39.5a.75.75,0,0,1-.75-.75v-.945A5.258,5.258,0,0,0,41,29.75a2.257,2.257,0,0,0,2.25-2.25v-.75a2.24,2.24,0,0,0-.75-1.665V21.5a3.75,3.75,0,0,0-3.75-3.75V16.58l1.177.63a2.6,2.6,0,0,0,2.685.128,2.633,2.633,0,0,0,.15-4.552L23.36,2.09a.765.765,0,0,0-.72,0L3.185,12.815a2.636,2.636,0,0,0,.2,4.522,2.7,2.7,0,0,0,1.26.315,2.429,2.429,0,0,0,1.365-.405L7.25,16.58V32H6.118a2.25,2.25,0,0,0-2.2,2.738l2.34,10.5A2.232,2.232,0,0,0,8.45,47h37.8a.75.75,0,0,0,.75-.75V41a5.256,5.256,0,0,0-5.25-5.25Zm-2.61,1.463a4.506,4.506,0,0,1-6.78,0A2.242,2.242,0,0,0,34.25,35v-.218a5.281,5.281,0,0,0,3,0V35a2.243,2.243,0,0,0,1.89,2.212Zm.36-7.463a3.75,3.75,0,1,1-7.5,0l.06-5.25a3.818,3.818,0,0,0,1.7-.405l.488-.255.435.233a3.825,3.825,0,0,0,1.74.427H39.5Zm2.25-3v.75a.75.75,0,0,1-.75.75V26A.75.75,0,0,1,41.75,26.75ZM41,21.5v3A1.5,1.5,0,0,0,39.5,23H36.425a2.3,2.3,0,0,1-1.042-.255l-.78-.413a.75.75,0,0,0-.69,0l-.833.42A2.272,2.272,0,0,1,32,23a1.5,1.5,0,0,0-1.5,1.5v-3A1.5,1.5,0,0,1,32,20h.75a.75.75,0,0,1,.75.75.75.75,0,0,0,1.5,0V20a.75.75,0,0,1,.75-.75h3A2.257,2.257,0,0,1,41,21.5ZM5.248,15.965A1.125,1.125,0,0,1,3.5,15.02a1.111,1.111,0,0,1,.457-.915L23,3.6l18.99,10.47a1.133,1.133,0,0,1-.082,1.942,1.175,1.175,0,0,1-1.215-.09L23.353,6.59a.735.735,0,0,0-.705,0ZM8.45,45.5a.739.739,0,0,1-.728-.585L5.39,34.415a.75.75,0,0,1,.142-.638.767.767,0,0,1,.585-.278H22.55a.739.739,0,0,1,.727.585L25.813,45.5Zm17.182-7.725-.892-4.013A2.232,2.232,0,0,0,22.55,32H8.75V16.137a.782.782,0,0,0-.075-.323L23,8.1,37.25,15.77v1.98h-1.5a2.25,2.25,0,0,0-1.9,1.043,2.2,2.2,0,0,0-1.1-.293H32a3,3,0,0,0-3,3v3.585a2.24,2.24,0,0,0-.75,1.665v.75a2.257,2.257,0,0,0,2.25,2.25,5.258,5.258,0,0,0,2.25,4.305V35a.75.75,0,0,1-.75.75H29.75a5.281,5.281,0,0,0-4.117,2.025ZM30.5,26v2.25a.75.75,0,0,1-.75-.75v-.75A.75.75,0,0,1,30.5,26Zm3,19.5H27.35L27.02,44H35a1.5,1.5,0,0,1-1.5,1.5Zm12,0h-3V41.75a.75.75,0,1,0-1.5,0V45.5H36.08A2.93,2.93,0,0,0,36.5,44v-.75a.75.75,0,0,0-.75-.75H26.683l-.548-2.468A3.765,3.765,0,0,1,29.75,37.25h.825a5.963,5.963,0,0,0,10.35,0h.825A3.75,3.75,0,0,1,45.5,41Z" transform="translate(-2 -2)"/><path class="b" d="M19.25,53.5a2.25,2.25,0,1,1,2.25-2.25A2.25,2.25,0,0,1,19.25,53.5Zm0-3a.75.75,0,1,0,.75.75A.75.75,0,0,0,19.25,50.5Z" transform="translate(-5.75 -13.75)"/><path class="b" d="M15.25,32h4.235l3.525,2.834a.748.748,0,0,0,1.217-.578L24.244,32H27.25a2.25,2.25,0,0,0,2.25-2.25v-7.5A2.25,2.25,0,0,0,27.25,20h-12A2.25,2.25,0,0,0,13,22.25v7.5A2.25,2.25,0,0,0,15.25,32Zm-.75-9.75a.75.75,0,0,1,.75-.75h12a.75.75,0,0,1,.75.75v7.5a.75.75,0,0,1-.75.75H23.5a.75.75,0,0,0-.75.744l-.011,1.449L20.22,30.668a.75.75,0,0,0-.47-.168h-4.5a.75.75,0,0,1-.75-.75Z" transform="translate(-4.75 -6.5)"/><path class="b" d="M17.75,25.5h.75a.75.75,0,0,0,0-1.5h-.75a.75.75,0,0,0,0,1.5Z" transform="translate(-5.75 -7.5)"/><path class="b" d="M21.75,25.5h6a.75.75,0,0,0,0-1.5h-6a.75.75,0,0,0,0,1.5Z" transform="translate(-6.75 -7.5)"/><path class="b" d="M21.75,28.5h6a.75.75,0,0,0,0-1.5h-6a.75.75,0,0,0,0,1.5Z" transform="translate(-6.75 -8.25)"/><path class="b" d="M17.75,28.5h.75a.75.75,0,0,0,0-1.5h-.75a.75.75,0,1,0,0,1.5Z" transform="translate(-5.75 -8.25)"/><path class="b" d="M17.75,31.5h.75a.75.75,0,0,0,0-1.5h-.75a.75.75,0,1,0,0,1.5Z" transform="translate(-5.75 -9)"/><path class="b" d="M21.75,31.5h6a.75.75,0,0,0,0-1.5h-6a.75.75,0,1,0,0,1.5Z" transform="translate(-6.75 -9)"/></g></g></svg>