<svg xmlns="http://www.w3.org/2000/svg" width="75" height="75" viewBox="0 0 75 75"><defs><style>.a{fill:#800040;}.b{fill:#fff;}</style></defs><g transform="translate(-140 -915)"><rect class="a" width="75" height="75" rx="37.5" transform="translate(140 915)"/><g transform="translate(104.74 839.698)"><g transform="translate(59.26 99.302)"><path class="b" d="M76.546,116.108H69.992V127.3H67.82q-2.351,0-4.7,0c-.769,0-1.144-.388-1.145-1.206q0-6.181,0-12.361v-.366a1.342,1.342,0,0,0-.169.1,1.475,1.475,0,0,1-2.184-.193,1.712,1.712,0,0,1,.246-2.352q2.4-2.181,4.815-4.355,3.742-3.383,7.484-6.766a1.457,1.457,0,0,1,2.2,0q4.748,4.286,9.488,8.581c.944.854,1.891,1.7,2.831,2.563a1.67,1.67,0,0,1,.49,1.812,1.5,1.5,0,0,1-2.281.838c-.1-.07-.2-.148-.348-.262v.493q0,6.131,0,12.262c0,.8-.353,1.206-1.075,1.207q-3.325.008-6.65,0c-.08,0-.159-.011-.27-.02Z" transform="translate(-59.26 -99.302)"/></g></g></g></svg>