<svg xmlns="http://www.w3.org/2000/svg" width="75" height="74.176" viewBox="0 0 75 74.176"><defs><style>.a{fill:#800040;}.b{fill:#fff;}</style></defs><g transform="translate(-140 -1489)"><rect class="a" width="75" height="74.176" rx="37.088" transform="translate(140 1489)"/><g transform="translate(155 1504)"><path class="b" d="M42.887,15.936A7.452,7.452,0,0,0,46,9.887v-.3a5.638,5.638,0,0,0-1.46-3.8A5.087,5.087,0,0,0,39.468,1H33.646a3.6,3.6,0,0,0-1.777,6.746,13.059,13.059,0,0,0-1.837,6.318v.523l2.177.726v1.354a3.173,3.173,0,0,0,2.851,3.17A5.157,5.157,0,0,1,33.87,22.5,12.928,12.928,0,0,0,30.8,30.032H28.881l-.827-.827a2.132,2.132,0,0,0-3.413.551l-.154.3a2.068,2.068,0,0,0-.262-.027H22.5l-.136-.273a2.134,2.134,0,0,0-3.416-.555l-.827.827h-1.97L16,29.012a12.961,12.961,0,0,0-2.875-6.468,5.335,5.335,0,0,1-1.175-2.709,3.172,3.172,0,0,0,2.84-3.169V15.314l2.177-.726v-.523a13.054,13.054,0,0,0-1.837-6.318,3.618,3.618,0,0,0,1.837-3.133V2.752a1.752,1.752,0,0,0-2.991-1.239,3.182,3.182,0,0,1-2.266.938H6.081A3.634,3.634,0,0,0,2.464,5.778,5.638,5.638,0,0,0,1,9.586v.3a7.45,7.45,0,0,0,3.113,6.05l1.968,1.405V20.9a3.557,3.557,0,0,0-2.169,3.323H3.9V46H16.242V37.29h1.449a1.453,1.453,0,0,0,1.452-1.452h8.713a1.453,1.453,0,0,0,1.452,1.452h1.452V46H40.919a2.906,2.906,0,0,0,2.9-2.9V41.443a1.447,1.447,0,0,0,.726-1.25V24.226A3.633,3.633,0,0,0,40.919,20.6V17.342ZM14.563,29.218l.109.763a3.611,3.611,0,0,1-3-2.979l-.48-2.867c.462.049.926.078,1.389.083a11.514,11.514,0,0,1,1.987,5Zm-1.224-14.95v2.4a1.763,1.763,0,0,1-.514,1.239,1.737,1.737,0,0,1-1.238.512h-2.6v1.452h1.5a6.8,6.8,0,0,0,.984,2.839c-.232-.022-.462-.057-.693-.091A3.621,3.621,0,0,0,7.532,20.6V14.365a1.442,1.442,0,0,0-.425-1.026l-.726-.726a1.034,1.034,0,0,1-.3-.726.727.727,0,0,1,.726-.726h.726V9.71A1.453,1.453,0,0,1,8.984,8.258h4.152a4.344,4.344,0,0,0,.583-.04A12.178,12.178,0,0,1,15.5,13.547Zm-8.382.487a5.994,5.994,0,0,1-2.5-4.868v-.3A4.2,4.2,0,0,1,3.691,6.594L3.9,6.381v-.3A2.18,2.18,0,0,1,6.081,3.9h5.63A4.625,4.625,0,0,0,15,2.539a.312.312,0,0,1,.513.213V4.614A2.17,2.17,0,0,1,13.935,6.7a2.969,2.969,0,0,1-.8.11H8.984a2.906,2.906,0,0,0-2.9,2.9v.124a2.182,2.182,0,0,0-1.452,2.053,2.46,2.46,0,0,0,.726,1.752l.726.726v1.193Zm5.479,29.794A1.453,1.453,0,0,1,11.887,43.1V41.645a2.906,2.906,0,0,0-2.9,2.9H5.355V40.194H14.79v4.355Zm4.355-5.806H5.355V31.786a9.5,9.5,0,0,0,8.571,5.5h.864Zm2.9-2.9H13.926a8.031,8.031,0,0,1-7.9-6.828l-.647-4.417a2.34,2.34,0,0,1,.277-1.481,2.186,2.186,0,0,1,1.63-1.052,2.105,2.105,0,0,1,.249-.014,2.187,2.187,0,0,1,2.163,1.96l.541,3.235a5.065,5.065,0,0,0,5.012,4.242H17.69v4.354ZM33.646,2.452h5.822A3.633,3.633,0,0,1,43.1,6.081v.3l.213.213a4.2,4.2,0,0,1,1.239,2.992v.3a5.993,5.993,0,0,1-2.5,4.868l-1.124.8V14.365l.726-.726a2.461,2.461,0,0,0,.726-1.752,2.182,2.182,0,0,0-1.452-2.053V9.71a2.906,2.906,0,0,0-2.9-2.9H33.864a3,3,0,0,1-.8-.109,2.163,2.163,0,0,1,.581-4.246Zm.721,21.771a14.85,14.85,0,0,0,2.955-.319c-.009.108-.033.212-.033.322V38.742H32.21V30.918A11.483,11.483,0,0,1,34.367,24.222ZM43.1,40.194H38.742V38.742H43.1ZM19.142,34.387V31.059l.827-.827a.705.705,0,0,1,1.091.176l.538,1.076h2.627a.727.727,0,0,1,.727.726,2.181,2.181,0,0,1-2.178,2.177Zm6.516,0A3.592,3.592,0,0,0,26.4,32.21,2.167,2.167,0,0,0,25.79,30.7l.148-.292a.7.7,0,0,1,1.089-.177l.827.827v3.329Zm3.648,1.452V31.484h1.452v4.355Zm2.9,4.355H37.29a1.447,1.447,0,0,0,.726,1.25V43.1a2.873,2.873,0,0,0,.4,1.452H32.21Zm8.71,4.355A1.453,1.453,0,0,1,39.468,43.1V41.645h2.9V43.1A1.453,1.453,0,0,1,40.919,44.548ZM43.1,24.226V37.29H38.742V24.226a2.177,2.177,0,0,1,4.355,0ZM40.619,12.613l-.726.726a1.442,1.442,0,0,0-.425,1.026V20.9a3.647,3.647,0,0,0-1.6,1.37,13.47,13.47,0,0,1-2.355.435,6.609,6.609,0,0,0,1.005-2.838h1.5V18.419h-2.6a1.74,1.74,0,0,1-1.239-.513,1.764,1.764,0,0,1-.513-1.239v-2.4L31.5,13.547a12.179,12.179,0,0,1,1.781-5.329,4.344,4.344,0,0,0,.583.04h4.152A1.453,1.453,0,0,1,39.468,9.71v1.452h.726a.727.727,0,0,1,.726.726A1.034,1.034,0,0,1,40.619,12.613Z" transform="translate(-1 -1)"/></g></g></svg>