<svg xmlns="http://www.w3.org/2000/svg" width="75" height="74.176" viewBox="0 0 75 74.176"><defs><style>.a{fill:#800040;}.b{fill:#fff;}</style></defs><g transform="translate(-140 -1489)"><rect class="a" width="75" height="74.176" rx="37.088" transform="translate(140 1489)"/><g transform="translate(-1688.832 1327.537)"><g transform="translate(1846.832 187.463)"><path class="b" d="M1937.46,225.347h3.239a17.045,17.045,0,0,0-.855,1.63,14.045,14.045,0,0,0-.826,2.524,3.137,3.137,0,0,0,.21,1.661,1.929,1.929,0,0,0,2.53,1.143,10.72,10.72,0,0,0,1.824-.942c.45-.261.853-.6,1.3-.868a2.269,2.269,0,0,1,2.487.011,6.742,6.742,0,0,1,1.405,1.061q3.152,3.343,6.239,6.747c.7.778.3,1.7-.771,1.842a1.813,1.813,0,0,1-1.8-.622c-.781-.948-1.637-1.834-2.482-2.727-.117-.124-.351-.137-.531-.2.044.188.028.429.141.556.892,1.009,1.771,2.035,2.735,2.974a1.2,1.2,0,0,1-.21,1.715,1.3,1.3,0,0,1-1.719-.19l-2.9-3.1c-.034-.037-.062-.094-.1-.108-.181-.057-.366-.1-.55-.15.045.171.037.391.142.507.907,1,1.811,2,2.766,2.947a.725.725,0,0,1,.09,1.051,1.622,1.622,0,0,1-2.505.208c-.737-.715-1.453-1.453-2.178-2.181a3.281,3.281,0,0,0-.47-.456,1.937,1.937,0,0,0-.515-.163c.04.176.025.4.13.518.5.547,1.033,1.062,1.553,1.591.113.115.218.239.328.359l-.017.162c-.755.084-1.509.214-2.266.23a1.619,1.619,0,0,1-.97-.355q-4.055-3.3-8.064-6.656a.666.666,0,0,1-.1-.562c.74-2.81,1.5-5.616,2.252-8.423C1937.145,226.5,1937.3,225.921,1937.46,225.347Z" transform="translate(-1925.816 -221.51)"/><path class="b" d="M1858.044,190.716c-.177.676-.4,1.538-.627,2.4q-1.149,4.284-2.3,8.567a1.7,1.7,0,0,1-2.292,1.336q-2.315-.611-4.626-1.235a1.681,1.681,0,0,1-1.287-2.2q1.43-5.384,2.873-10.763a1.7,1.7,0,0,1,2.2-1.284q2.341.61,4.675,1.246A1.753,1.753,0,0,1,1858.044,190.716Z" transform="translate(-1846.831 -187.463)"/><path class="b" d="M2118.364,206.383a1.65,1.65,0,0,1-.941,1.608c-1.59.725-3.189,1.433-4.8,2.108a1.673,1.673,0,0,1-2.239-1.061q-1.873-4.271-3.74-8.544c-.236-.539-.479-1.075-.707-1.617a1.668,1.668,0,0,1,.878-2.311q2.3-1.033,4.619-2.021a1.645,1.645,0,0,1,2.234.868q2.292,5.188,4.551,10.392A3.073,3.073,0,0,1,2118.364,206.383Z" transform="translate(-2079.541 -193.689)"/><path class="b" d="M1998.532,233.978l-.95.679c-.69-.8-1.338-1.61-2.054-2.358q-2.129-2.225-4.326-4.385a5.457,5.457,0,0,0-1.2-.829,2.7,2.7,0,0,0-2.79-.008c-.452.258-.873.57-1.312.85s-.868.582-1.331.816a1.631,1.631,0,0,1-1.815-.006,1.923,1.923,0,0,1-.752-1.875,10.448,10.448,0,0,1,1.47-3.78,1.281,1.281,0,0,1,1.277-.749c.772-.006,1.541-.149,2.314-.181a20.989,20.989,0,0,1,5.736,1.023,2.181,2.181,0,0,1,1.676,1.459C1995.769,227.751,1997.157,230.832,1998.532,233.978Z" transform="translate(-1968.297 -218.632)"/></g></g></g></svg>