<svg xmlns="http://www.w3.org/2000/svg" width="34" height="34" viewBox="0 0 34 34"><defs><style>.a{fill:#fff;}.b{fill:#2d142c;}</style></defs><rect class="a" width="34" height="34" rx="17"/><path class="b" d="M7.617,13H4.7c0-.065.038-7.956,0-8.77H7.617v1.24l-.005.008A.246.246,0,0,1,7.6,5.5h.02V5.47a2.917,2.917,0,0,1,2.628-1.449c2.1,0,3.356,1.476,3.356,3.948V13H10.685V8.306c0-1.3-.511-1.983-1.477-1.983a1.6,1.6,0,0,0-1.5,1.066,2.042,2.042,0,0,0-.1.711V13Zm-4.53,0H.172V4.229H3.087V13ZM1.63,3.03H1.61A1.519,1.519,0,1,1,1.649,0,1.52,1.52,0,1,1,1.63,3.03Z" transform="translate(10.2 10.2)"/></svg>