<svg xmlns="http://www.w3.org/2000/svg" width="22" height="35.316" viewBox="0 0 22 35.316"><defs><style>.a{fill:#fff;}</style></defs><path class="a" d="M403.346,585c.577.13,1.16.24,1.73.393a10.992,10.992,0,0,1,8.154,10.583c.015,4.316-.045,8.633.017,12.949a11.065,11.065,0,0,1-9.58,11.281,1.541,1.541,0,0,0-.321.11h-2.2c-.533-.116-1.071-.215-1.6-.351a11,11,0,0,1-8.283-10.626q-.034-6.681,0-13.362a11.007,11.007,0,0,1,9.427-10.849,3.6,3.6,0,0,0,.458-.128Zm-9.905,17.587h.025c0,2.5-.153,5.021.033,7.512a8.792,8.792,0,0,0,17.551-.82q.015-6.584,0-13.169a8.8,8.8,0,1,0-17.608,0C393.434,598.267,393.441,600.427,393.441,602.587Z" transform="translate(-391.249 -585)"/><path class="a" d="M459.353,652.389c0,.389.018.78,0,1.168a2.185,2.185,0,0,1-4.364.068,23.926,23.926,0,0,1,0-2.473,2.184,2.184,0,0,1,4.366.069C459.364,651.609,459.352,652,459.353,652.389Z" transform="translate(-446.165 -640.231)"/></svg>