<svg xmlns="http://www.w3.org/2000/svg" width="75" height="75" viewBox="0 0 75 75"><defs><style>.a{fill:#800040;}.b{fill:#fff;}</style></defs><g transform="translate(-694 -917)"><rect class="a" width="75" height="75" rx="37.5" transform="translate(694 917)"/><g transform="translate(712.5 937.333)"><g transform="translate(6.924 13.008)"><path class="b" d="M7.323,10.5h-2.5a.75.75,0,0,1,0-1.5h2.5a.75.75,0,0,1,0,1.5Z" transform="translate(-4.073 -9)"/></g><g transform="translate(21.408 13.008)"><path class="b" d="M19.323,10.5h-7.5a.75.75,0,0,1,0-1.5h7.5a.75.75,0,0,1,0,1.5Z" transform="translate(-11.073 -9)"/></g><g transform="translate(6.924 19.512)"><path class="b" d="M7.323,14.5h-2.5a.75.75,0,0,1,0-1.5h2.5a.75.75,0,0,1,0,1.5Z" transform="translate(-4.073 -13)"/></g><g transform="translate(21.408 19.512)"><path class="b" d="M19.323,14.5h-7.5a.75.75,0,0,1,0-1.5h7.5a.75.75,0,1,1,0,1.5Z" transform="translate(-11.073 -13)"/></g><g transform="translate(6.924 26.016)"><path class="b" d="M7.323,18.5h-2.5a.75.75,0,0,1,0-1.5h2.5a.75.75,0,0,1,0,1.5Z" transform="translate(-4.073 -17)"/></g><g transform="translate(21.408 26.016)"><path class="b" d="M19.323,18.5h-7.5a.75.75,0,0,1,0-1.5h7.5a.75.75,0,1,1,0,1.5Z" transform="translate(-11.073 -17)"/></g><path class="b" d="M33.646,35.833H4.354A4.358,4.358,0,0,1,0,31.479V5.354A4.358,4.358,0,0,1,4.354,1H33.646A4.358,4.358,0,0,1,38,5.354V31.479A4.358,4.358,0,0,1,33.646,35.833ZM4.354,3.375A1.982,1.982,0,0,0,2.375,5.354V31.479a1.982,1.982,0,0,0,1.979,1.979H33.646a1.982,1.982,0,0,0,1.979-1.979V5.354a1.982,1.982,0,0,0-1.979-1.979Z" transform="translate(0 -1)"/><g transform="translate(0 5.691)"><path class="b" d="M36.813,6H1.188C.532,6,0,5.664,0,5.25S.532,4.5,1.188,4.5H36.813c.655,0,1.188.336,1.188.75S37.468,6,36.813,6Z" transform="translate(0 -4.5)"/></g></g></g></svg>