<svg xmlns="http://www.w3.org/2000/svg" width="75" height="75" viewBox="0 0 75 75"><defs><style>.a{fill:#800040;}.b{fill:#fff;}</style></defs><g transform="translate(-694 -917)"><rect class="a" width="75" height="75" rx="37.5" transform="translate(694 917)"/><path class="b" d="M742.5,779.744q0-6.575,0-13.15a2.258,2.258,0,0,0-2.428-2.414H714.755a2.245,2.245,0,0,0-2.425,2.437q0,6.8,0,13.595h0q0,6.8,0,13.595a2.223,2.223,0,0,0,2.389,2.372h16.2q4.637,0,9.274,0a2.188,2.188,0,0,0,2.234-1.7,4.949,4.949,0,0,0,.069-1.073Q742.5,786.573,742.5,779.744Zm-16.154-10.6q2.683-.005,5.367,0a.982.982,0,1,1,0,1.954h-2.667c-.9,0-1.8,0-2.7,0a.972.972,0,0,1-1.042-.958A.987.987,0,0,1,726.347,769.141Zm-.956,4.369a.961.961,0,0,1,.945-.57q2.667,0,5.333,0v0h5.27a.989.989,0,0,1,1.087.98,1,1,0,0,1-1.071.976q-5.286,0-10.572,0A.984.984,0,0,1,725.391,773.51Zm-8.7-3.375a1.606,1.606,0,0,1,1.573-1.623c1.111-.02,2.222-.018,3.333,0a1.583,1.583,0,0,1,1.574,1.582c.013.645,0,1.291,0,1.936,0,.624.008,1.249,0,1.873a1.594,1.594,0,0,1-1.629,1.627q-1.6.018-3.206,0a1.61,1.61,0,0,1-1.648-1.679Q716.681,771.992,716.69,770.135Zm19.782,21.727q-5.129,0-10.259,0-3.875,0-7.75,0a1.638,1.638,0,0,1-1.777-1.779c0-3.494.019-6.988-.009-10.482a1.712,1.712,0,0,1,1.8-1.793c2.985.033,5.971.011,8.956.011h9.02a1.6,1.6,0,0,1,1.7,1.688q0,5.336,0,10.673A1.63,1.63,0,0,1,736.472,791.862Z" transform="translate(3.67 174.82)"/></g></svg>