<svg xmlns="http://www.w3.org/2000/svg" width="75" height="75" viewBox="0 0 75 75"><defs><style>.a{fill:#800040;}.b{fill:#fff;}</style></defs><g transform="translate(-694 -917)"><rect class="a" width="75" height="75" rx="37.5" transform="translate(694 917)"/><g transform="translate(714.604 936.995)"><path class="b" d="M36.615,22.189V19.882a.577.577,0,0,0-.577-.577h-7.5v-.577A1.736,1.736,0,0,0,26.808,17h-.577V15.844h2.885a1.736,1.736,0,0,0,1.731-1.731V3.731A1.736,1.736,0,0,0,29.115,2H9.5A1.736,1.736,0,0,0,7.769,3.731V14.114A1.736,1.736,0,0,0,9.5,15.844h2.885V17h-.577a1.736,1.736,0,0,0-1.731,1.731v.577h-7.5A.577.577,0,0,0,2,19.882v2.307a.577.577,0,0,0,.577.577H3.656l-1.65,13.2a.558.558,0,0,0,.138.45.566.566,0,0,0,.433.2H3.731a.577.577,0,0,0,.554-.415L8.2,22.766h1.875V24.5a.577.577,0,0,0,.577.577h1.731v1.154a.577.577,0,0,0,.577.577h4.615v3.461H13.538a.577.577,0,0,0-.577.577v2.411a1.731,1.731,0,1,0,1.154,0V31.419h4.615v1.834a1.731,1.731,0,1,0,1.154,0V31.419H24.5v1.834a1.731,1.731,0,1,0,1.154,0V30.842a.577.577,0,0,0-.577-.577H21.038V26.8h4.615a.577.577,0,0,0,.577-.577V25.074h1.731a.577.577,0,0,0,.577-.577V22.766h1.875L34.331,36.2a.577.577,0,0,0,.554.415h1.154a.566.566,0,0,0,.433-.2.558.558,0,0,0,.138-.45l-1.65-13.2h1.079A.577.577,0,0,0,36.615,22.189ZM3.3,35.457H3.229L4.815,22.766H7Zm6.779-13.844H3.154V20.459h6.923Zm2.308,2.307H11.231V18.728a.577.577,0,0,1,.577-.577h.577Zm1.154,11.537a.577.577,0,1,1,.577-.577A.577.577,0,0,1,13.538,35.457ZM25.077,34.3a.577.577,0,1,1-.577.577A.577.577,0,0,1,25.077,34.3Zm-5.769,1.154a.577.577,0,1,1,.577-.577A.577.577,0,0,1,19.308,35.457Zm.577-5.192H18.731V26.8h1.154Zm5.192-4.615H13.538V14.114a.577.577,0,0,1,.577-.577H24.5a.577.577,0,0,1,.577.577ZM15.846,12.383V11.229a3.462,3.462,0,0,1,6.923,0v1.154Zm8.654,0h-.577V11.229a4.615,4.615,0,0,0-9.231,0v1.154h-.577a1.736,1.736,0,0,0-1.731,1.731v.577H9.5a.577.577,0,0,1-.577-.577V3.731A.577.577,0,0,1,9.5,3.154H29.115a.577.577,0,0,1,.577.577V14.114a.577.577,0,0,1-.577.577H26.231v-.577A1.736,1.736,0,0,0,24.5,12.383ZM27.385,23.92H26.231V18.152h.577a.577.577,0,0,1,.577.577Zm8,11.537h-.069l-3.7-12.691H33.8Zm.075-13.844H28.538V20.459h6.923Z" transform="translate(-2 -2)"/><path class="b" d="M44.731,8.884h1.154V6.577A.577.577,0,0,0,45.308,6H43V7.154h1.731Z" transform="translate(-19.346 -3.693)"/><rect class="b" width="1.154" height="1.154" transform="translate(25.385 6.345)"/></g></g></svg>