<svg xmlns="http://www.w3.org/2000/svg" width="75" height="75" viewBox="0 0 75 75"><defs><style>.a{fill:#800040;}.b{fill:#fff;}</style></defs><g transform="translate(-694 -917)"><rect class="a" width="75" height="75" rx="37.5" transform="translate(694 917)"/><g transform="translate(48.107 880.811)"><g transform="translate(669.893 58.189)"><path class="b" d="M751.206,73.484c-.148-.9-.323-1.835-.453-2.775a49,49,0,0,1-.458-8.15,4.439,4.439,0,0,1,4.257-4.322q3.692-.1,7.388,0a4.491,4.491,0,0,1,4.257,4.41,49.978,49.978,0,0,1-.94,10.64,2.015,2.015,0,0,1-.056.2A36.084,36.084,0,0,0,751.206,73.484Z" transform="translate(-744.525 -58.189)"/><path class="b" d="M693.872,236.383c-.239,0-.43.013-.618,0a.5.5,0,0,1-.457-.734,9.06,9.06,0,0,1,.61-1.208.741.741,0,0,1,.514-.3c.724-.034,1.452-.038,2.176,0a.8.8,0,0,1,.53.332,8.36,8.36,0,0,1,.57,1.108.527.527,0,0,1-.507.806c-.166.006-.332,0-.552,0,0,.142,0,.267,0,.392,0,.833.006,1.667,0,2.5a2.809,2.809,0,0,1-2.811,2.82,1.582,1.582,0,0,1-.214,0,.649.649,0,0,0-.775.416,1.351,1.351,0,0,1-1.334.727q-2.356,0-4.713,0h-.344c-.1.334-.112.706-.3.905s-.562.225-.905.345v1.076c.609.117,1.22.2,1.813.355a5.968,5.968,0,0,1,3.635,2.343,1.125,1.125,0,0,1-.621,1.791.975.975,0,0,1-1.117-.364,4.478,4.478,0,0,0-3.05-1.722c-.208-.044-.422-.059-.686-.095,0,.354,0,.682,0,1.011a1.132,1.132,0,1,1-2.258-.011c0-.319,0-.637,0-1.006a5,5,0,0,0-3.636,1.7,1.113,1.113,0,0,1-1.147.481,1.075,1.075,0,0,1-.889-.823,1.145,1.145,0,0,1,.229-1.006,5.5,5.5,0,0,1,2.943-2.091c.8-.257,1.63-.4,2.479-.6v-1.1c-1.012-.113-1.037-.079-1.164-1.181h-.413c-1.523,0-3.047-.007-4.57,0a1.575,1.575,0,0,1-1.6-.961.409.409,0,0,0-.29-.177c-.342-.037-.693,0-1.029-.063a2.772,2.772,0,0,1-2.337-2.783c-.008-.939,0-1.878,0-2.877-.194,0-.366.005-.539,0a.529.529,0,0,1-.508-.827c.166-.355.356-.7.525-1.053a.622.622,0,0,1,.625-.381c.69.007,1.381.005,2.071,0a.606.606,0,0,1,.6.362c.179.362.371.718.542,1.084.212.453-.019.8-.526.818-.163,0-.327,0-.52,0,0,.97-.023,1.908.019,2.843a.8.8,0,0,0,.414.523,2.517,2.517,0,0,0,.694.09c.308.056.368-.2.5-.366a4.235,4.235,0,0,1,2.414-1.35,22.633,22.633,0,0,1,5.344-.566,34.8,34.8,0,0,1,5.733.281,7.644,7.644,0,0,1,2.947.9,2.943,2.943,0,0,1,.917.823c.293.441.669.276,1.012.249a.619.619,0,0,0,.576-.631C693.886,238.265,693.872,237.35,693.872,236.383Z" transform="translate(-669.893 -221.527)"/><path class="b" d="M846.6,476.191a1.128,1.128,0,1,1,1.128-1.1A1.135,1.135,0,0,1,846.6,476.191Z" transform="translate(-832.91 -444.192)"/><path class="b" d="M767.868,475.064a1.128,1.128,0,1,1-1.141-1.124A1.136,1.136,0,0,1,767.868,475.064Z" transform="translate(-758.765 -444.196)"/><path class="b" d="M926.453,473.941a1.128,1.128,0,1,1-1.124,1.1A1.136,1.136,0,0,1,926.453,473.941Z" transform="translate(-907.054 -444.197)"/></g></g></g></svg>