<svg xmlns="http://www.w3.org/2000/svg" width="75" height="74.176" viewBox="0 0 75 74.176"><defs><style>.a{fill:#800040;}.b{fill:#fff;}</style></defs><g transform="translate(-140 -1621)"><rect class="a" width="75" height="74.176" rx="37.088" transform="translate(140 1621)"/><g transform="translate(-1031.586 1604.047)"><g transform="translate(1192.586 37.953)"><path class="b" d="M1342.087,180.625q-2.389,0-4.779,0a1.531,1.531,0,0,1-1.7-1.7q0-1.128,0-2.257a3.5,3.5,0,0,1,3.523-3.552q2.953-.014,5.907,0a3.494,3.494,0,0,1,3.575,3.6c0,.774,0,1.549,0,2.323a1.509,1.509,0,0,1-1.613,1.589C1345.362,180.628,1343.724,180.625,1342.087,180.625Z" transform="translate(-1326.097 -164.116)"/><path class="b" d="M1528.087,420.391c-1.139,0-2.279,0-3.418,0a1.453,1.453,0,0,1-1.554-1.361,14.317,14.317,0,0,1,.019-2.485,3.361,3.361,0,0,1,3.227-3.126,26.014,26.014,0,0,1,3.646.017,3.431,3.431,0,0,1,3.1,3.436c0,.664,0,1.328,0,1.992a1.479,1.479,0,0,1-1.528,1.528C1530.41,420.394,1529.248,420.391,1528.087,420.391Z" transform="translate(-1501.09 -388.393)"/><path class="b" d="M1197.593,420.369c-1.151,0-2.3,0-3.451,0a1.477,1.477,0,0,1-1.535-1.554,19.056,19.056,0,0,1,.035-2.387,3.378,3.378,0,0,1,3.281-3.04,26.664,26.664,0,0,1,3.547.021,3.44,3.44,0,0,1,3.139,3.4c.014.675.012,1.35,0,2.025a1.507,1.507,0,0,1-1.567,1.536c-1.15,0-2.3,0-3.451,0Z" transform="translate(-1192.586 -388.372)"/><path class="b" d="M1211.835,278.836a4.006,4.006,0,1,1,4.019-4A4.01,4.01,0,0,1,1211.835,278.836Z" transform="translate(-1206.826 -255.337)"/><path class="b" d="M1542.477,278.861a4,4,0,1,1,4-3.979A4.013,4.013,0,0,1,1542.477,278.861Z" transform="translate(-1515.462 -255.363)"/><path class="b" d="M1381.308,41.962a3.994,3.994,0,1,1-3.959-4.009A4.009,4.009,0,0,1,1381.308,41.962Z" transform="translate(-1361.299 -37.953)"/><path class="b" d="M1370.113,317.006c-.671.67-1.3,1.31-1.937,1.933a1.489,1.489,0,0,1-2.4-.334,1.47,1.47,0,0,1,.283-1.8q1.141-1.159,2.3-2.3a.7.7,0,0,0,.23-.549c-.011-1.339-.01-2.678,0-4.016a1.53,1.53,0,0,1,1.253-1.538,1.489,1.489,0,0,1,1.646.942,2.151,2.151,0,0,1,.115.713q.016,1.925,0,3.85a.76.76,0,0,0,.242.611c.778.755,1.541,1.525,2.3,2.3a1.5,1.5,0,0,1-.842,2.558,1.47,1.47,0,0,1-1.319-.474C1371.376,318.283,1370.761,317.662,1370.113,317.006Z" transform="translate(-1354.086 -290.397)"/></g></g></g></svg>