<svg xmlns="http://www.w3.org/2000/svg" width="75" height="74.176" viewBox="0 0 75 74.176"><defs><style>.a{fill:#800040;}.b{fill:#fff;}</style></defs><g transform="translate(-140 -1621)"><rect class="a" width="75" height="74.176" rx="37.088" transform="translate(140 1621)"/><g transform="translate(154 1634)"><path class="b" d="M342.381,467.37l-.025.011a.7.7,0,1,0,.025-.011Zm0,0" transform="translate(-309.874 -423.507)"/><path class="b" d="M224.975,485.277h-.009a.7.7,0,1,0-.144,1.4h.009a.7.7,0,1,0,.144-1.4Zm0,0" transform="translate(-203.173 -439.778)"/><path class="b" d="M195.392,480.344l-.167.683.165-.683a.7.7,0,0,0-.331,1.367l.023.005a.7.7,0,1,0,.309-1.372Zm0,0" transform="translate(-176.285 -435.293)"/><path class="b" d="M166.678,471.69l-.009,0a.7.7,0,0,0-.494,1.317l.009,0a.7.7,0,0,0,.494-1.317Zm0,0" transform="translate(-150.183 -427.426)"/><path class="b" d="M284.818,483.763l.1.7-.1-.7a.7.7,0,0,0,.1,1.4.735.735,0,0,0,.1-.008l.022,0a.7.7,0,0,0-.225-1.388Zm0,0" transform="translate(-257.57 -438.401)"/><path class="b" d="M254.96,486.414h-.03a.7.7,0,0,0,.019,1.406h.021a.7.7,0,0,0-.01-1.406Zm0,0" transform="translate(-230.411 -440.813)"/><path class="b" d="M314.168,477.389l-.013,0a.7.7,0,0,0-.478.867.706.706,0,1,0,.491-.871Zm0,0" transform="translate(-284.246 -432.61)"/><path class="b" d="M284.8,14.571a.7.7,0,0,0,.231-1.387l-.023,0a.7.7,0,1,0-.208,1.391Zm0,0" transform="translate(-257.56 -11.938)"/><path class="b" d="M342.378,30.981l.025.01a.7.7,0,1,0,.538-1.3l-.282.644.28-.645a.7.7,0,0,0-.561,1.289Zm0,0" transform="translate(-309.897 -26.855)"/><path class="b" d="M224.908,13.163a.7.7,0,0,0,.073,0h.009a.7.7,0,1,0-.144-1.4h-.01a.7.7,0,0,0,.071,1.4Zm0,0" transform="translate(-203.187 -10.654)"/><path class="b" d="M195.241,18.12a.694.694,0,0,0,.156-.018l.014,0a.7.7,0,0,0-.322-1.369l.152.687-.156-.686a.7.7,0,0,0,.155,1.389Zm0,0" transform="translate(-176.301 -15.145)"/><path class="b" d="M314.123,20.941l.014,0a.7.7,0,1,0,.38-1.354l-.2.674.195-.676a.7.7,0,0,0-.389,1.351Zm0,0" transform="translate(-284.213 -17.729)"/><path class="b" d="M166.432,26.763A.7.7,0,1,0,166.2,25.4l-.018.006a.7.7,0,0,0,.247,1.362Zm0,0" transform="translate(-150.192 -22.977)"/><path class="b" d="M254.945,11.969h.03a.7.7,0,0,0,.014-1.406l-.023.7.021-.7a.7.7,0,1,0-.041,1.406Zm0,0" transform="translate(-230.425 -9.572)"/><path class="b" d="M29.715,342.953a.712.712,0,1,0-.013-.03Zm0,0" transform="translate(-26.869 -309.893)"/><path class="b" d="M16.662,195.057l-.006.026a.7.7,0,0,0,.542.834.714.714,0,0,0,.146.015.707.707,0,1,0-.682-.876Zm.825.2-.142-.034.158.038Zm0,0" transform="translate(-15.08 -176.281)"/><path class="b" d="M11.7,224.838a.7.7,0,0,0,.617.773.713.713,0,0,0,.083,0,.7.7,0,0,0,.7-.621l0-.03a.7.7,0,0,0-1.4-.127Zm0,0" transform="translate(-10.603 -203.182)"/><path class="b" d="M19.639,314.517a.7.7,0,1,0-.009-.031Zm0,0" transform="translate(-17.767 -284.198)"/><path class="b" d="M11.262,255.7h.021a.7.7,0,0,0,.683-.723v-.01a.7.7,0,0,0-.723-.678.706.706,0,0,0,.02,1.411Zm0,0" transform="translate(-9.569 -230.453)"/><path class="b" d="M14.623,284.862v-.011a.7.7,0,0,0-.8-.587.705.705,0,1,0,.8.6Zm0,0" transform="translate(-11.984 -257.608)"/><path class="b" d="M26.268,165.761a.7.7,0,0,0-.905.412l0,.009a.7.7,0,1,0,1.317.494l0-.009A.7.7,0,0,0,26.268,165.761Zm0,0" transform="translate(-22.941 -150.181)"/><path class="b" d="M478.129,315.037a.7.7,0,0,0,.672-.5l.009-.031a.7.7,0,1,0-.681.527Zm0,0" transform="translate(-432.667 -284.221)"/><path class="b" d="M487.852,254.979a.7.7,0,0,0-1.406-.039v.03a.7.7,0,0,0,1.406.009Zm-.6-.015-.1,0,.109,0Zm0,0" transform="translate(-440.841 -230.421)"/><path class="b" d="M472.977,166.186a.7.7,0,0,0-1.317.494l0,.009a.7.7,0,0,0,1.317-.494Zm0,0" transform="translate(-427.401 -150.193)"/><path class="b" d="M467.4,342.392a.7.7,0,0,0,1.285.57l.013-.03a.7.7,0,0,0-1.3-.54Zm0,0" transform="translate(-423.53 -309.903)"/><path class="b" d="M485.869,224.219a.708.708,0,0,0,.081,1.41l.063,0a.7.7,0,0,0,.639-.762l0-.03A.7.7,0,0,0,485.869,224.219Zm0,0" transform="translate(-439.756 -203.194)"/><path class="b" d="M484.634,284.23a.7.7,0,0,0-.8.592s0,.01,0,.011a.7.7,0,1,0,1.391.2l-.694-.112.7.1A.7.7,0,0,0,484.634,284.23Zm0,0" transform="translate(-438.467 -257.576)"/><path class="b" d="M481.662,195.083a.71.71,0,1,0,.007.031Zm0,0" transform="translate(-435.25 -176.307)"/><path class="b" d="M57.585,40.222a1.6,1.6,0,0,0,1.669,0l.78-.476a1.615,1.615,0,0,0,.77-1.371V36.286a1.745,1.745,0,0,0-1.742-1.743H57.777a1.745,1.745,0,0,0-1.742,1.743v2.089a1.615,1.615,0,0,0,.77,1.371Zm-.144-3.936a.337.337,0,0,1,.336-.337h1.285a.336.336,0,0,1,.335.337v2.089a.2.2,0,0,1-.1.171l-.78.476a.2.2,0,0,1-.205,0l-.78-.476a.2.2,0,0,1-.1-.171Zm0,0" transform="translate(-50.782 -31.305)"/><path class="b" d="M406.044,39.746l.665.405,0,0,.112.068a1.6,1.6,0,0,0,1.669,0l.78-.476a1.615,1.615,0,0,0,.77-1.371V36.286a1.745,1.745,0,0,0-1.742-1.743h-1.286a1.745,1.745,0,0,0-1.742,1.743v2.089A1.616,1.616,0,0,0,406.044,39.746Zm.636-3.46a.337.337,0,0,1,.335-.337H408.3a.337.337,0,0,1,.336.337v2.089a.2.2,0,0,1-.1.171h0l-.78.476a.2.2,0,0,1-.205,0l-.78-.476a.2.2,0,0,1-.1-.171Zm0,0" transform="translate(-367.279 -31.305)"/><path class="b" d="M57.777,383.781a1.745,1.745,0,0,0-1.742,1.743v2.089a1.615,1.615,0,0,0,.77,1.371l.78.476a1.6,1.6,0,0,0,1.669,0l.78-.476a1.615,1.615,0,0,0,.77-1.371v-2.089a1.745,1.745,0,0,0-1.742-1.743Zm1.621,1.743v2.089a.2.2,0,0,1-.1.171l-.78.475a.2.2,0,0,1-.205,0l-.78-.475a.2.2,0,0,1-.1-.171v-2.089a.337.337,0,0,1,.336-.337h1.285A.336.336,0,0,1,59.4,385.525Zm0,0" transform="translate(-50.782 -347.802)"/><path class="b" d="M40.37,32.741a7.594,7.594,0,0,0-4.82,1.721l-3.1-3.193a11.253,11.253,0,0,0,1.163-1.631,11.137,11.137,0,0,0-1.243-12.994l3.171-3.116a7.616,7.616,0,0,0,8.468.808.653.653,0,0,0,.086-.036.7.7,0,0,0,.145-.1,7.667,7.667,0,0,0,1.438-1.1A.715.715,0,0,0,45.786,13a7.63,7.63,0,1,0-11.249-.458l-3.164,3.108a11.227,11.227,0,0,0-1.736-1.255,11.143,11.143,0,0,0-12.659.956h0l-.011.009c-.115.093-.228.19-.339.287l-3.155-3.119a7.614,7.614,0,0,0,.862-8.533.657.657,0,0,0-.036-.085.679.679,0,0,0-.1-.145,7.628,7.628,0,0,0-10.5-2.679A.7.7,0,0,0,4.431,2.29a6.221,6.221,0,0,1,8.212,9.021,3.079,3.079,0,0,0-.3-.315,3.162,3.162,0,0,0-2.15-.812H5.08A3.158,3.158,0,0,0,2.932,11a3.072,3.072,0,0,0-.308.327,6.216,6.216,0,0,1,0-7.389A.7.7,0,1,0,1.492,3.1a7.624,7.624,0,0,0,.747,9.927.69.69,0,0,0,.1.1A7.666,7.666,0,0,0,3.765,14.2a.717.717,0,0,0,.129.089.706.706,0,0,0,.1.043,7.617,7.617,0,0,0,8.482-.818l3.16,3.125a11.147,11.147,0,0,0-2.769,7.8s0,0,0,.005h0a11.1,11.1,0,0,0,1.1,4.393l0,.008v0a11.067,11.067,0,0,0,1.738,2.589l-3.225,3.047A7.626,7.626,0,0,0,2.239,45.765a.675.675,0,0,0,.1.1,7.616,7.616,0,0,0,10.632-.051c.012-.011.025-.023.036-.036a9.472,9.472,0,0,0,1.21-1.564.707.707,0,1,0-1.178-.769,6.23,6.23,0,0,1-.4.612,3.082,3.082,0,0,0-.3-.318,3.162,3.162,0,0,0-2.15-.812H5.08a3.158,3.158,0,0,0-2.149.812,3.071,3.071,0,0,0-.308.327,6.222,6.222,0,1,1,11.228-3.693,6.338,6.338,0,0,1-.041.723.7.7,0,0,0,1.4.161,7.811,7.811,0,0,0,.051-.884,7.593,7.593,0,0,0-1.775-4.886l3.233-3.054a11.164,11.164,0,0,0,7.27,2.71q.266,0,.534-.013a11.166,11.166,0,0,0,6.943-2.853l3.084,3.173a7.613,7.613,0,0,0,.432,10.316.7.7,0,0,0,.1.1,7.609,7.609,0,0,0,10.591-.016.708.708,0,0,0,.111-.108,7.625,7.625,0,0,0-5.416-13ZM3.883,44.773a1.757,1.757,0,0,1,1.2-.442H10.2a1.76,1.76,0,0,1,1.2.441,1.551,1.551,0,0,1,.274.33,6.21,6.21,0,0,1-8.064.008A1.534,1.534,0,0,1,3.883,44.773ZM32.4,28.926A9.748,9.748,0,0,1,31,30.769l-.011.009c-.012.012-.023.025-.034.037a9.6,9.6,0,0,1-1.028.909,3.9,3.9,0,0,1-.647-2.786,2.565,2.565,0,0,1,1.059-1.466,3.521,3.521,0,0,0,1.432-2.186,3.873,3.873,0,0,0-.984-3,3.3,3.3,0,0,1-.857-2.086,4.108,4.108,0,0,1,1.388-2.624A9.731,9.731,0,0,1,32.4,28.926ZM36.345,12.37a1.526,1.526,0,0,1,.279-.337,1.755,1.755,0,0,1,1.2-.442h5.115a1.758,1.758,0,0,1,1.2.441,1.554,1.554,0,0,1,.273.328,6.205,6.205,0,0,1-8.063.01ZM40.37,1.406a6.219,6.219,0,0,1,5.013,9.9,3.082,3.082,0,0,0-.3-.315,3.162,3.162,0,0,0-2.15-.812H37.822A3.157,3.157,0,0,0,35.673,11a3,3,0,0,0-.308.327,6.219,6.219,0,0,1,5-9.917ZM3.6,12.37a1.534,1.534,0,0,1,.279-.337,1.757,1.757,0,0,1,1.2-.442H10.2a1.758,1.758,0,0,1,1.2.441,1.564,1.564,0,0,1,.273.328,6.2,6.2,0,0,1-8.063.01Zm12,6.7a9.7,9.7,0,0,1,1.874-2.3,6.2,6.2,0,0,0,2.611.97.7.7,0,0,0,.205-1.391,4.831,4.831,0,0,1-1.615-.5,9.736,9.736,0,0,1,11.636.745,5.482,5.482,0,0,0-1.792,3.55A4.56,4.56,0,0,0,29.637,23.1c.536.759.859,1.26.745,1.958-.094.58-.409.874-.958,1.343a3.913,3.913,0,0,0-1.519,2.236,5.3,5.3,0,0,0,.847,3.857,9.752,9.752,0,0,1-3.512,1.158,8.49,8.49,0,0,0-.1-1.244,4.618,4.618,0,0,0-1.452-3.1,4.3,4.3,0,0,0-2.908-.748,3.437,3.437,0,0,1-.825-.047,2.54,2.54,0,0,1,.266-.713c.25-.525.593-1.243.123-1.853-.555-.72-1.666-.468-2.031-.385a7.873,7.873,0,0,0-1.164.371,9.859,9.859,0,0,0-2.295,1.408,9.656,9.656,0,0,1-.528-2.225c.686-.033,1.488-.134,2.485-.261l.025,0c2.7-.344,5.027-.642,5.377-2.15a1.947,1.947,0,0,0-.4-1.56c.99.31,2.26.647,3.148-.06a2.571,2.571,0,0,0,.85-1.908,3.075,3.075,0,0,0-.807-2.341,2.237,2.237,0,0,0-1.865-.555.7.7,0,1,0,.105,1.4c.486-.036.638.023.778.159a1.719,1.719,0,0,1,.384,1.264,1.267,1.267,0,0,1-.321.878c-.365.29-1.38-.032-2.053-.245-.88-.279-1.711-.543-2.148.148-.387.613.094,1.2.445,1.633.2.239.558.685.517.866,0,.011-.077.282-1.113.562a24.923,24.923,0,0,1-3.078.511l-.02,0c-.967.123-1.74.221-2.369.251A9.708,9.708,0,0,1,15.6,19.074Zm-.14,9.605a8.33,8.33,0,0,1,2.228-1.448,5.053,5.053,0,0,1,1.415-.372c-.045.11-.106.237-.153.336a2.167,2.167,0,0,0-.227,2.012c.429.777,1.3.768,2.072.76a3.032,3.032,0,0,1,2.017.441,3.345,3.345,0,0,1,.937,2.209,7.067,7.067,0,0,1,.081,1.115,9.73,9.73,0,0,1-8.369-5.053Zm24.9,5.468a6.219,6.219,0,0,1,5.013,9.905,3.086,3.086,0,0,0-.3-.315,3.162,3.162,0,0,0-2.15-.812H37.822a3.157,3.157,0,0,0-2.148.812,3,3,0,0,0-.308.327,6.219,6.219,0,0,1,5-9.917ZM36.345,45.111a1.526,1.526,0,0,1,.279-.337,1.755,1.755,0,0,1,1.2-.442h5.115a1.762,1.762,0,0,1,1.2.441,1.564,1.564,0,0,1,.273.328,6.205,6.205,0,0,1-8.063.01Zm0,0" transform="translate(0 0)"/><path class="b" d="M406.044,388.985l.78.476a1.6,1.6,0,0,0,1.669,0l.78-.476a1.615,1.615,0,0,0,.77-1.371v-2.089a1.745,1.745,0,0,0-1.742-1.743h-1.286a1.745,1.745,0,0,0-1.742,1.743v2.089A1.616,1.616,0,0,0,406.044,388.985Zm.636-3.46a.337.337,0,0,1,.335-.337H408.3a.337.337,0,0,1,.336.337v2.089a.2.2,0,0,1-.1.171l-.78.475a.2.2,0,0,1-.205,0l-.78-.475a.2.2,0,0,1-.1-.171Zm0,0" transform="translate(-367.279 -347.802)"/><path class="b" d="M231.7,49.98a2.279,2.279,0,1,0,2.279-2.277A2.28,2.28,0,0,0,231.7,49.98Zm3.151,0a.872.872,0,1,1-.872-.871A.872.872,0,0,1,234.846,49.98Zm0,0" transform="translate(-209.974 -43.231)"/><path class="b" d="M233.974,414.9a2.277,2.277,0,1,0,2.279,2.277A2.28,2.28,0,0,0,233.974,414.9Zm0,3.148a.871.871,0,1,1,.872-.87A.872.872,0,0,1,233.974,418.046Zm0,0" transform="translate(-209.974 -376.002)"/><path class="b" d="M52.229,238.519A2.279,2.279,0,1,0,49.95,240.8,2.28,2.28,0,0,0,52.229,238.519Zm-3.151,0a.872.872,0,1,1,.872.871A.872.872,0,0,1,49.078,238.519Zm0,0" transform="translate(-43.203 -214.095)"/><path class="b" d="M415.719,238.519A2.278,2.278,0,1,0,418,236.242,2.28,2.28,0,0,0,415.719,238.519Zm3.15,0a.872.872,0,1,1-.872-.871A.872.872,0,0,1,418.869,238.519Zm0,0" transform="translate(-376.745 -214.095)"/></g></g></svg>