<svg xmlns="http://www.w3.org/2000/svg" xmlns:xlink="http://www.w3.org/1999/xlink" width="572.067" height="389.201" viewBox="0 0 572.067 389.201"><defs><style>.a{fill:#565661;}.b,.k,.n{opacity:0.1;}.c{fill:#bcbec9;}.d{fill:#efeff0;}.e{fill:#fff;}.f{fill:url(#a);}.g{fill:#a26565;}.h{fill:#454b69;}.i{opacity:0.05;}.j,.n{fill:#800340;}.l{fill:#a1616a;}.m{fill:#464353;}.o{fill:#535461;}.p{fill:#9d9cb5;}.q{fill:none;stroke:#535461;stroke-miterlimit:10;stroke-width:2px;}.r{fill:#dfe6f5;}.s{fill:#474157;}.t{fill:#4c4c78;}.u{fill:#c8cad7;}.v{fill:#ededf4;}</style><linearGradient id="a" x1="-0.03" y1="0.503" x2="0.97" y2="0.503" gradientUnits="objectBoundingBox"><stop offset="0" stop-color="gray" stop-opacity="0.251"/><stop offset="0.54" stop-color="gray" stop-opacity="0.122"/><stop offset="1" stop-color="gray" stop-opacity="0.102"/></linearGradient></defs><g transform="translate(-103.508 -69.57)"><rect class="a" width="184.671" height="42.762" transform="translate(201.626 211.896)"/><rect class="b" width="184.671" height="42.762" transform="translate(201.626 211.896)"/><path class="c" d="M384.37,427.03l1.3,114.159L367.9,586.029l-1.375-159Z" transform="translate(-160.649 -170.965)"/><path class="a" d="M362.99,371.84l179.8,1.082V404.77H362.99Z" transform="translate(-159.416 -151.734)"/><path class="c" d="M615.33,427.03l15.383,2.17V584.3l-15.383-47.44Z" transform="translate(-247.342 -170.965)"/><rect class="d" width="86.651" height="184.13" transform="translate(389.216 213.61)"/><rect class="a" width="72.785" height="141.538" transform="translate(396.148 218.724)"/><rect class="b" width="72.785" height="141.538" transform="translate(396.148 218.724)"/><rect class="a" width="72.785" height="31.412" transform="translate(396.148 221.624)"/><rect class="a" width="72.785" height="66.719" transform="translate(396.148 256.065)"/><rect class="a" width="72.785" height="66.719" transform="translate(396.148 326.902)"/><rect class="b" width="72.785" height="66.719" transform="translate(396.148 326.902)"/><ellipse class="a" cx="4.691" cy="5.994" rx="4.691" ry="5.994" transform="translate(394.493 397.74)"/><ellipse class="a" cx="4.691" cy="5.994" rx="4.691" ry="5.994" transform="translate(459.551 398.026)"/><path class="d" d="M356.334,564.179h6.281L360.889,364.32H351.35Z" transform="translate(-155.36 -149.114)"/><path class="d" d="M638.94,361.87V561.592h5.844V363.466Z" transform="translate(-255.569 -148.26)"/><path class="d" d="M366.46,419.38v7.154H544v-5.2Z" transform="translate(-160.625 -168.299)"/><path class="e" d="M372.651,341.26H597.725l32.708,10.829v6.281L349.69,356.207v-6.392Z" transform="translate(-154.782 -141.079)"/><path class="c" d="M349.69,354.39l280.743,2.274v6.281L349.69,360.782Z" transform="translate(-154.782 -145.654)"/><path class="f" d="M422.913,548.961l-1.3-.2V548.6c-.039-.306-.085-.606-.13-.912.534.423,1.042.847,1.512,1.271Z" transform="translate(-202.575 -265.738)"/><path class="g" d="M375.257,703.416c.847-.2,1.707-.358,2.567-.476a30.9,30.9,0,0,1,17.344,2.554c-.547,4.026-1.088,8.19.072,12.08.808,2.737,2.43,5.212,2.776,8.066a4.757,4.757,0,0,1,3.746,3.31,7.2,7.2,0,0,1,.371,2.319,12.38,12.38,0,0,1-.365,2.893,2.919,2.919,0,0,1-3.127,2.606c-5.043.573-9.988-1.414-14.68-3.362l-9.122-3.792c-1.069-.443-2.144-.893-3.167-1.44a17.35,17.35,0,0,1-5.076-4.15,2.313,2.313,0,0,1-.606-1.095c-.169-1.147,1.173-1.831,2.026-2.606a4.062,4.062,0,0,0,.652-.795c1.01-1.525,1.108-3.629,1.714-5.427,1.433-4.268,5.864-7.017,7.428-11.181.085-.228.163-.456.228-.691" transform="translate(-183.235 -319.587)"/><path class="b" d="M402.134,740.521a12.38,12.38,0,0,1-.365,2.893,2.919,2.919,0,0,1-3.127,2.606c-5.043.573-9.988-1.414-14.68-3.362l-9.122-3.792c-1.069-.443-2.144-.893-3.167-1.44a17.35,17.35,0,0,1-5.076-4.15,2.312,2.312,0,0,1-.606-1.095c-.169-1.147,1.173-1.831,2.026-2.606a4.063,4.063,0,0,0,.652-.8c2.515.541,5.636,2.124,7.558,2.737a22.957,22.957,0,0,1,5.5,2.3c2.4,1.538,4.124,3.909,6.157,5.864s4.659,3.734,7.493,3.492a12.386,12.386,0,0,0,4.261-1.473Z" transform="translate(-183.235 -328.838)"/><path class="h" d="M395.611,601.276a3.017,3.017,0,0,1-1.108,3.258c-.854.528-1.955.456-2.8,1.029-1.049.736-1.2,2.2-1.381,3.46-.652,4.346-2.808,8.288-4.652,12.282s-3.4,8.353-2.723,12.692c.463,2.945,1.909,6.086.554,8.737-.332.652-.827,1.231-1.205,1.863-1.857,3.1-.8,7.03-.873,10.64a2.1,2.1,0,0,1-.254,1.153,3.186,3.186,0,0,1-1.03.795,5.46,5.46,0,0,0-2.222,4.19,16.007,16.007,0,0,0,.586,4.861,2.893,2.893,0,0,0,.8,1.694,3,3,0,0,0,1.753.5,38.99,38.99,0,0,1,11.9,2.893c2.469,1.029,4.867,2.319,7.493,2.815a1.954,1.954,0,0,0,1.538-.163,2.117,2.117,0,0,0,.652-1.127c1.01-3.323,2.033-6.75,1.688-10.2-.15-1.485-.547-2.939-.652-4.424-.456-5.864,3.512-11.155,4.769-16.94.567-2.606.567-5.3.971-7.936,1.095-7.213,5.069-13.683,6.6-20.817a22.633,22.633,0,0,1,.99-3.909c1.14-2.763,3.779-5,3.838-7.995a3.115,3.115,0,0,0-.5-1.863,4.221,4.221,0,0,0-2.326-1.3,79.416,79.416,0,0,0-10.783-2.176,20.425,20.425,0,0,0-5.069-.352,14.92,14.92,0,0,0-6.2,2.189C393.448,598.663,395.064,599.035,395.611,601.276Z" transform="translate(-187.392 -282.186)"/><path class="i" d="M395.611,601.276a3.017,3.017,0,0,1-1.108,3.258c-.854.528-1.955.456-2.8,1.029-1.049.736-1.2,2.2-1.381,3.46-.652,4.346-2.808,8.288-4.652,12.282s-3.4,8.353-2.723,12.692c.463,2.945,1.909,6.086.554,8.737-.332.652-.827,1.231-1.205,1.863-1.857,3.1-.8,7.03-.873,10.64a2.1,2.1,0,0,1-.254,1.153,3.186,3.186,0,0,1-1.03.795,5.46,5.46,0,0,0-2.222,4.19,16.007,16.007,0,0,0,.586,4.861,2.893,2.893,0,0,0,.8,1.694,3,3,0,0,0,1.753.5,38.99,38.99,0,0,1,11.9,2.893c2.469,1.029,4.867,2.319,7.493,2.815a1.954,1.954,0,0,0,1.538-.163,2.117,2.117,0,0,0,.652-1.127c1.01-3.323,2.033-6.75,1.688-10.2-.15-1.485-.547-2.939-.652-4.424-.456-5.864,3.512-11.155,4.769-16.94.567-2.606.567-5.3.971-7.936,1.095-7.213,5.069-13.683,6.6-20.817a22.633,22.633,0,0,1,.99-3.909c1.14-2.763,3.779-5,3.838-7.995a3.115,3.115,0,0,0-.5-1.863,4.221,4.221,0,0,0-2.326-1.3,79.416,79.416,0,0,0-10.783-2.176,20.425,20.425,0,0,0-5.069-.352,14.92,14.92,0,0,0-6.2,2.189C393.448,598.663,395.064,599.035,395.611,601.276Z" transform="translate(-187.392 -282.186)"/><path class="a" d="M345.5,631.364H339.94L336.3,556.67l-.254-4.248,4.724-1.661.319,4.515Z" transform="translate(-150.029 -214.078)"/><path class="b" d="M341.093,555.275,336.3,556.67l-.254-4.248,4.724-1.661Z" transform="translate(-150.029 -214.078)"/><path class="a" d="M371.107,636.526l-9.167,1.108-42.234-95.851-11.389-.834-20,5.838-3.89,114.12h-9.167l3.61-118.29-21.951.56L217.743,640.69H209.41l41.2-113.964,1.59-4.391,61.4-2.1,15.305,8.581.2.5Z" transform="translate(-105.902 -203.44)"/><path class="b" d="M386.086,610.236c-13.194,3.974-26.89,8.314-26.89,8.314s-12.49,4.359-17.781,0a7.992,7.992,0,0,0-2.209-1.218,10.884,10.884,0,0,0,2.209,1.218L307.6,607.65l1.583-4.385,61.4-2.1,15.305,8.581Z" transform="translate(-162.894 -284.37)"/><path class="e" d="M332.206,583.088l25-5.558s59.735,11.116,64.178,15.559c0,0-47.785,9.721-53.063,13.031S331.646,613.092,332.206,583.088Z" transform="translate(-171.465 -276.136)"/><path class="j" d="M306.408,459.509c-1.955,6.2-7.291,11.78-13.787,12.047a2.4,2.4,0,0,1-1.375-.248,2.176,2.176,0,0,1-.5-2.606,11.279,11.279,0,0,0,1-2.671,1.749,1.749,0,0,0-.039-.58c-.169-.775-.8-1.466-1.544-1.3a2.606,2.606,0,0,0,.554-3.46,7.822,7.822,0,0,1-.795-1.069c-.541-1.108.3-2.352.652-3.538.723-2.606-1.114-5.212-1.264-7.929-.13-2.43,1.1-4.717,1.407-7.128.489-3.909-1.453-7.656-1.681-11.559a24.478,24.478,0,0,1,1.264-8.047,29.086,29.086,0,0,0,1.433-7.167c0-1.779-.306-3.538-.391-5.31a9.246,9.246,0,0,1,.854-4.717,3.773,3.773,0,0,1,2.144-1.831c2.137-.717,3.538.4,3.851,2.424.521,3.447.222,6.965.906,10.425a48.859,48.859,0,0,0,2.86,9.441c1.153,2.75,2.554,5.408,3.44,8.255a45.476,45.476,0,0,1,1.427,7.167C307.7,446.615,308.383,453.313,306.408,459.509Z" transform="translate(-156.418 -215.035)"/><path class="g" d="M524.851,722.832a10.105,10.105,0,0,1-7.121,4.2c-2.828.352-5.766-.358-8.509.417a2.606,2.606,0,0,0-1.955,1.505q-.1.794-.124,1.6c-.319,1.74-2.606,2.131-4.385,2.118l-7.337-.046c-1.525,0-3.212-.085-4.307-1.14a3.206,3.206,0,0,1-.065-4.222,2.652,2.652,0,0,1,.821-.652,2.606,2.606,0,0,1-1.759-2.092,7.78,7.78,0,0,1,.137-2.873c0-2.723.652-7.284,2.567-9.415,2.352-2.652,6.431-6.079,9.982-6.789a7.818,7.818,0,0,1,6.763,1.922c1.681,1.564,2.906,4.014,5.212,4.287,1.257.156,2.469-.437,3.714-.651a6.913,6.913,0,0,1,7.043,3.72,7.338,7.338,0,0,1,.652,2.039,8.47,8.47,0,0,1-1.329,6.079Z" transform="translate(-226.463 -320.655)"/><path class="b" d="M524.986,728.963a10.106,10.106,0,0,1-7.121,4.2c-2.828.352-5.766-.358-8.509.417a2.607,2.607,0,0,0-1.955,1.505q-.1.794-.124,1.6c-.319,1.74-2.606,2.131-4.385,2.118l-7.337-.046c-1.525,0-3.212-.085-4.307-1.14a3.206,3.206,0,0,1-.065-4.222c4.235-.176,8.4,0,12.621-.873,1.714-.345,3.4-.8,5.134-1.042,3.753-.534,7.747-.078,11.194-1.668a12.651,12.651,0,0,0,6.151-6.913A8.47,8.47,0,0,1,524.986,728.963Z" transform="translate(-226.597 -326.786)"/><path class="h" d="M435.389,654.426a16.322,16.322,0,0,1-8.946,3.766c-3.284.169-6.77-1.3-8.379-4.157-2.352-4.189-.267-10.014-3.147-13.859-.9-1.205-2.2-2.059-3.147-3.225s-1.5-2.919-.652-4.157c-1.023.391-2.1-.6-2.4-1.655a30.252,30.252,0,0,1-.293-3.258c-.476-2.834-3.258-4.652-4.593-7.167s-1.153-5.779-1.3-8.757a33.229,33.229,0,0,0-7.688-19.775c-.886-1.056-2.02-2.131-3.4-2.078a6.417,6.417,0,0,0-3.408-5.864,16.894,16.894,0,0,0-6.893-1.837c-24.062-2.372-49.134,6.574-72.108-.951-6.392-2.091-12.556-5.59-16.465-11.076a19.365,19.365,0,0,1-3.447-14.647v-.091c.906-4.626,3.349-5.766,7.4-7.877a88.771,88.771,0,0,1,14.588-6.118c9.773-3.056,20.3-4.157,30.382-1.916,4.711,1.055,9.252,2.8,13.969,3.825,1.857.4,3.727.691,5.61.932,2.925.365,5.864.606,8.809.945a133.262,133.262,0,0,1,27.665,6.222,36.23,36.23,0,0,1,9.558,4.483,21.176,21.176,0,0,1,8.5,13.982c.274,1.916.28,3.909.7,5.766a29.319,29.319,0,0,0,1.564,4.561,303.382,303.382,0,0,1,13.611,42.351,10.288,10.288,0,0,0,1.088,3.062c.834,1.349,2.267,2.254,3.108,3.6,1.955,3.18.072,7.617,1.8,10.927.6,1.147,1.6,2.052,2.2,3.2C441.611,647.343,438.725,651.839,435.389,654.426Z" transform="translate(-156.358 -262.55)"/><path class="b" d="M459.158,598.3a10.749,10.749,0,0,0,2.365-2.606,4.861,4.861,0,0,0,.717-3.369,9.637,9.637,0,0,1-2.535,8.288c-1.635,1.675-4.7,3.316-7.1,2.743C452.949,601.445,457.64,599.595,459.158,598.3Z" transform="translate(-213.422 -281.293)"/><path class="b" d="M361.541,547.088a4.372,4.372,0,0,1-2.893,2.984,12.053,12.053,0,0,1-4.294.5h-1.3c-17.1-.378-34.376-4.17-51.076-.554a36.989,36.989,0,0,0-5.9,1.74,26.651,26.651,0,0,0-6.783,3.909v-.091c.906-4.626,3.349-5.766,7.4-7.877a88.754,88.754,0,0,1,14.569-6.06c9.773-3.056,20.3-4.157,30.382-1.916,4.711,1.055,9.252,2.8,13.969,3.825,1.857.4,3.727.691,5.61.932A4.5,4.5,0,0,1,361.541,547.088Z" transform="translate(-156.514 -262.55)"/><path class="g" d="M360.528,540.51a4.365,4.365,0,0,1-2.893,2.991,11.9,11.9,0,0,1-4.294.5h-1.3c-17.1-.378-34.376-4.17-51.076-.554a37.647,37.647,0,0,0-5.9,1.733,26.845,26.845,0,0,0-7.069,4.17q-.749-2.059-1.492-4.124c-.6-1.642,1.3-2.007,1.668-3.479a7.928,7.928,0,0,0-.378-3.193,5.584,5.584,0,0,1-.1-.788,5.016,5.016,0,0,1,2.652-4.978c5.721-3.779,12.7-6.372,19.227-8.32a47.566,47.566,0,0,1,10.686-2.072,52.431,52.431,0,0,1,15.259,1.857,65.438,65.438,0,0,1,17.67,6.737c2.671,1.557,5.278,3.512,6.717,6.288a4.951,4.951,0,0,1,.632,3.238Z" transform="translate(-155.501 -256.903)"/><path class="b" d="M307.225,459.533c-1.955,6.2-7.291,11.78-13.787,12.047a2.4,2.4,0,0,1-1.375-.248,2.176,2.176,0,0,1-.5-2.606,11.271,11.271,0,0,0,1-2.671,1.746,1.746,0,0,0-.039-.58c3.447-4.861,6.789-9.773,8.112-15.527a8.3,8.3,0,0,0,.241-3.043,27.092,27.092,0,0,0-1.095-3.369,17.566,17.566,0,0,1-.143-6.209,57.337,57.337,0,0,0-4.457-26.772A25.119,25.119,0,0,1,293,404.294a3.772,3.772,0,0,1,2.144-1.831c2.137-.717,3.538.4,3.851,2.424.521,3.447.222,6.965.906,10.425a48.866,48.866,0,0,0,2.86,9.441c1.153,2.75,2.554,5.408,3.44,8.255a45.481,45.481,0,0,1,1.427,7.167C308.515,446.639,309.2,453.337,307.225,459.533Z" transform="translate(-157.235 -215.059)"/><path class="b" d="M361.229,540.5a4.365,4.365,0,0,1-2.893,2.991,11.9,11.9,0,0,1-4.294.5h-1.3a28.389,28.389,0,0,0-18.9-4.561,30.535,30.535,0,0,1-6.372.554c-4.294-.391-7.773-3.479-11.6-5.454a24.355,24.355,0,0,0-26.994,3.662l-.371.326a5.575,5.575,0,0,1-.1-.788,5.016,5.016,0,0,1,2.652-4.978c5.721-3.779,12.7-6.372,19.227-8.32a47.565,47.565,0,0,1,10.686-2.072,52.428,52.428,0,0,1,15.259,1.857,65.438,65.438,0,0,1,17.67,6.737c2.652,1.583,5.258,3.538,6.7,6.314a4.951,4.951,0,0,1,.632,3.238Z" transform="translate(-156.202 -256.89)"/><path class="j" d="M372.737,412.882l-.091.234c-1.459,3.786-4.144,6.985-5.864,10.673-2.17,4.672-2.7,9.91-3.186,15.044a78.158,78.158,0,0,0-.5,13.233c.834,10.868,6.144,21.176,7.565,31.835a35.388,35.388,0,0,1,.267,7.434,7.34,7.34,0,0,1-1.446,4.418c-1.043,1.16-3.069,1.616-4.19.5.5-.958,1.01-1.909,1.518-2.867-2.978-2.313-7.46-.652-10.94-2.1a17.615,17.615,0,0,1-4.04-2.873,28.329,28.329,0,0,0-21.1-6.164,30.11,30.11,0,0,1-6.372.56c-4.294-.4-7.773-3.479-11.6-5.454a24.368,24.368,0,0,0-26.994,3.655c-.912.847-2.137,1.837-3.258,1.3a2.711,2.711,0,0,1-1.01-1.1c-4.268-7.291-1.127-16.693,3.434-23.795s10.6-13.65,12.477-21.879a8.164,8.164,0,0,0,.241-3.043,27.076,27.076,0,0,0-1.095-3.369,17.568,17.568,0,0,1-.143-6.209,57.338,57.338,0,0,0-4.444-26.779c-1.043-2.43-2.28-4.893-2.28-7.532,0-4.157,2.978-7.6,5.441-10.946,2.834-3.844,5.212-8.1,8.8-11.259,3.4-3,8.327-4.841,12.536-3.316a78.148,78.148,0,0,1,21.866-2.131,16.748,16.748,0,0,1,7.4,1.616c2.385,1.3,4.1,3.623,6.444,5.01a35.122,35.122,0,0,0,5.551,2.222,22.941,22.941,0,0,1,11.963,10.7c2.606,5.05,3.258,10.855,3.831,16.51C374.066,402.34,374.588,407.872,372.737,412.882Z" transform="translate(-153.096 -200.647)"/><path class="b" d="M400.223,461.985c.834,10.868,6.144,21.176,7.565,31.835-2.841-2.4-6.8-4.822-7.323-7.617-.586-3.023-2.463-6.985-2.776-10.04s1.831-6.789-.417-8.887c-1.095-1.023,1.818-.736.749-1.785-2.4-2.339-3-5.942-3.147-9.285-.254-5.916.5-11.9-.593-17.716a89.162,89.162,0,0,0-3.1-10.5c-1.264-4.059-2.176-8.216-3.088-12.38a86.741,86.741,0,0,1-1.955-11.246c-.28-3.258-.15-6.711,1.3-9.682s4.391-5.382,7.688-5.336c11.024.143,9.122,15.09,11.546,22,.971,2.75,2.28,5.408,2.808,8.275a21.941,21.941,0,0,1,.313,3.4c-1.46,3.785-4.144,6.985-5.864,10.672-2.17,4.672-2.7,9.91-3.186,15.044A75.749,75.749,0,0,0,400.223,461.985Z" transform="translate(-190.218 -210.566)"/><path class="j" d="M407.79,411.055c.971,2.75,2.28,5.408,2.808,8.275.88,4.8-.482,9.9,1,14.556a25.339,25.339,0,0,1,.964,3.043,26.579,26.579,0,0,1-.039,4.5,25.69,25.69,0,0,0,1.44,7.1,126.816,126.816,0,0,1,4.528,24.212,30.355,30.355,0,0,0,1.036,6.516,21.653,21.653,0,0,1,.7,2.2,11.389,11.389,0,0,1,.124,3.017,57.385,57.385,0,0,0-.176,9.578,13.284,13.284,0,0,0,3.909,8.535c-2.137.463-4.4.925-6.483.241-2.932-.958-4.691-3.909-6.183-6.594-1.889-3.427-9.07-6.516-9.812-10.366-.58-3.017-2.456-6.978-2.769-10.04s1.824-6.783-.424-8.881c-1.088-1.023,1.824-.743.749-1.785-2.4-2.339-2.991-5.942-3.141-9.291-.254-5.91.489-11.891-.593-17.709a89.645,89.645,0,0,0-3.1-10.5c-1.264-4.053-2.176-8.21-3.088-12.38a85.827,85.827,0,0,1-1.955-11.246c-.28-3.258-.156-6.718,1.3-9.689s4.4-5.375,7.688-5.336C407.256,389.2,405.366,404.148,407.79,411.055Z" transform="translate(-190.618 -210.444)"/><path class="b" d="M368.912,424.413c1.029,1.205,2.352,2.528,3.909,2.293a.847.847,0,0,1-1.153.274,2.476,2.476,0,0,1-.867-1l-2.228-3.759c-.293-.489-2.313-3.336-2.808-1.694C365.569,421.227,368.41,423.827,368.912,424.413Z" transform="translate(-183.158 -221.255)"/><path class="b" d="M362.272,437.634a4.965,4.965,0,0,0-1.453-3.258,8.146,8.146,0,0,0-2.691-1.622,19.491,19.491,0,0,0-7.988-1.681c.964,1.407,4.059,2.248,5.61,3.043Q359.047,435.816,362.272,437.634Z" transform="translate(-177.717 -225.099)"/><path class="b" d="M367.125,476.923c-.45,3.336-3.18,5.864-5.942,7.819s-5.864,3.636-7.669,6.464c-1.251,1.955-1.811,4.222-2.873,6.261-1.173,2.248-2.925,4.137-4.326,6.248s-2.5,4.633-2.065,7.135a.841.841,0,0,0,.3.6.854.854,0,0,0,.828-.091c2.841-1.486,3.961-4.88,5.154-7.819a90.337,90.337,0,0,1,4.222-8.679,7.994,7.994,0,0,1,2.789-3.447,24.465,24.465,0,0,1,2.75-.958,9.246,9.246,0,0,0,3.395-2.665A22.375,22.375,0,0,0,368.9,472.6c-.039-1.166-.1-6.783-1.857-5.05S367.425,474.656,367.125,476.923Z" transform="translate(-175.631 -237.701)"/><path class="g" d="M351.615,283.217c5.6,2.443,10.425,7.819,10.249,13.911-.15,6.4-5.506,12.425-3.662,18.556,1.069,3.557,4.287,5.942,6.835,8.646,9.7,10.268,9.682,28.193-.052,38.442-3.727,3.909-8.516,6.691-12.458,10.425-13.9,13.1-14.491,35.751-7.05,53.336a86.736,86.736,0,0,1-17.344,1.955c-2.73,0-6.073-.463-7.063-3.01-.912-2.352.652-5.532-1.147-7.271a5.882,5.882,0,0,0-3.258-1.114c-7.336-1.186-13.357-7.043-16.106-13.943s-2.606-14.667-1.029-21.925c1.121-5.245,2.873-11.018.274-15.709-3.258-5.9-12.627-8.392-12.484-15.142.117-5.532,6.639-8.223,10.34-12.334,6.828-7.571,3.577-19.319,3.564-29.522,0-8.978,3.141-18.244,9.825-24.225C320.992,275.32,340.141,278.232,351.615,283.217Z" transform="translate(-155.827 -171.94)"/><g class="k" transform="translate(131.517 123.812)"><path d="M300.885,394.94c-2.86-5.16-10.373-7.714-12.119-12.79a7.225,7.225,0,0,0-1.407,4.079c-.143,6.75,9.213,9.239,12.484,15.149a12.308,12.308,0,0,1,1.3,6.789C302.175,403.632,303.081,398.9,300.885,394.94Z" transform="translate(-287.357 -331.869)"/><path d="M397.233,316.558c1.173-3.421,2.873-6.874,2.958-10.425a9.768,9.768,0,0,0-.033-1.153C398.849,308.9,396.842,312.707,397.233,316.558Z" transform="translate(-325.626 -304.98)"/><path d="M309.439,336.5c2.241-7.082.306-15.865.3-23.723,0-.951.039-1.909.111-2.86a37.624,37.624,0,0,0-1.16,9.291C308.7,324.821,309.687,330.907,309.439,336.5Z" transform="translate(-294.791 -306.701)"/><path d="M395.346,391.62c-3.727,3.909-8.516,6.691-12.458,10.425-7.037,6.626-10.653,15.7-11.559,25.326a37.248,37.248,0,0,1,10.516-18.9c3.909-3.714,8.731-6.483,12.458-10.425a27.685,27.685,0,0,0,7.265-17.631A26.46,26.46,0,0,1,395.346,391.62Z" transform="translate(-316.617 -331.267)"/><path d="M335.171,476.258c-2.73,0-6.073-.469-7.063-3.017-.912-2.346.652-5.525-1.147-7.271a5.9,5.9,0,0,0-3.258-1.114c-7.33-1.179-13.35-7.043-16.1-13.937a34.848,34.848,0,0,1-1.955-16.139c-.052.215-.1.43-.143.652-1.551,7.258-1.714,15.031,1.029,21.931s8.77,12.757,16.1,13.937a5.81,5.81,0,0,1,3.258,1.114c1.818,1.746.234,4.926,1.147,7.271.99,2.548,4.333,3.049,7.063,3.017a86.811,86.811,0,0,0,17.344-1.955,58.239,58.239,0,0,1-2.1-5.818A86.5,86.5,0,0,1,335.171,476.258Z" transform="translate(-293.293 -350.208)"/></g><path class="b" d="M384.37,452.391c1.609,1.212,3.356-3.408,2.359-4.561C386.462,448.13,384.123,452.221,384.37,452.391Z" transform="translate(-189.638 -230.943)"/><path class="b" d="M394.91,579.232c1.9-.652,3.909-1.3,5.147-2.867,1.023-1.258,1.863-6.248-.3-3.857C397.92,574.56,397.054,577.264,394.91,579.232Z" transform="translate(-193.317 -274.163)"/><path class="b" d="M423.23,571.366a7.485,7.485,0,0,1-1.74,4.242c-.2.208-.652.339-.71.059a16.475,16.475,0,0,0,3.362-2.372c2.2-2.183,2.5-7.558-.854-8.985C423.256,566.669,423.588,568.969,423.23,571.366Z" transform="translate(-202.331 -271.53)"/><path class="h" d="M445.692,556.757s-18.491-7.265-25.176-6.516,7.571,11.285,7.571,11.285l8.522,5.747s5.212-1.955,5.558-2.1S445.692,556.757,445.692,556.757Z" transform="translate(-201.617 -266.608)"/><path class="a" d="M264.84,439.012s13.891-8.053,32.226,1.955,21.391,68.9,21.391,68.9-7.5,60,21.417,46.651c0,0,52.776-16.387,58.06-12.777,0,0,5,0-5,2.222S344.3,560.429,344.3,560.429s-12.49,4.365-17.781,0-20.283.56-22.231-29.45a521.87,521.87,0,0,0-6.946-56.4L292.186,459.3Z" transform="translate(-147.995 -226.803)"/><path class="e" d="M259.426,532.4s6.112-60.842-3.909-82.793c-8.718-19.13,24.994-10.184,33.79-7.578a6.405,6.405,0,0,1,3.375,2.411c5.212,7.33,23.912,36.709,18.4,76.017,0,0-2.222,35.008,11.669,40.559l-42.8-13.787c-3.473-1.121-7-2.052-10.555-2.86C264.86,543.343,257.471,540.418,259.426,532.4Z" transform="translate(-144.249 -227.4)"/><path class="a" d="M694.53,633.364h5.558l3.642-74.694.248-4.248-4.724-1.661-.313,4.515Z" transform="translate(-274.939 -214.775)"/><path class="b" d="M701.3,557.275l4.789,1.394.248-4.248-4.724-1.661Z" transform="translate(-277.298 -214.775)"/><path class="g" d="M639.527,696.979a12.534,12.534,0,0,1-.782,2.984,5.272,5.272,0,0,1-2.378,2.971,6.283,6.283,0,0,1-2.4.476c-3.069.182-6.313.137-8.952-1.427a16.285,16.285,0,0,1-3.069-2.561,140.03,140.03,0,0,1-16.106-19.156c-.8-1.153-1.629-2.515-1.271-3.909a60.729,60.729,0,0,0,17.442-7.982,8.42,8.42,0,0,1,2.45-1.3,13.315,13.315,0,0,1,4.6-.169c1.479.241,1.544.287,2.111,1.955.938,2.821.782,5.864,1.837,8.685A26.906,26.906,0,0,0,635.441,682C638.165,686.554,640.256,691.93,639.527,696.979Z" transform="translate(-266.339 -307.234)"/><path class="b" d="M639.527,701.036a12.531,12.531,0,0,1-.782,2.984,5.272,5.272,0,0,1-2.378,2.971,6.283,6.283,0,0,1-2.4.475c-3.069.182-6.313.137-8.952-1.427a16.288,16.288,0,0,1-3.069-2.561,140.022,140.022,0,0,1-16.106-19.156c-.8-1.153-1.629-2.515-1.271-3.909a60.433,60.433,0,0,0,5.968-1.994l.1.072a21.891,21.891,0,0,1,4.867,5.48l4.561,6.418a18.9,18.9,0,0,0,2.86,3.453,19.136,19.136,0,0,0,4.424,2.658c2.144,1.036,4.287,2.072,6.516,2.906C635.3,699.987,637.735,700.214,639.527,701.036Z" transform="translate(-266.339 -311.29)"/><path class="h" d="M653.844,602.578a19.608,19.608,0,0,1-1.629,3.108,133.015,133.015,0,0,0-13.891,32.506c-.9-.2-1.407,1.023-1.4,1.955s0,2.1-.86,2.443c-.254.1-.541.1-.788.209-.547.248-.7.945-.782,1.544l-.769,5.642c-.267,1.955-.5,4.072.456,5.8a9.271,9.271,0,0,0,2.521,2.606l12.718,10.034c.521.41,1.166.847,1.792.619,1.427-.521.163-3.075,1.3-4.111.756-.71,1.955-.176,3-.261a3.4,3.4,0,0,0,2.75-2.684,12.767,12.767,0,0,0,.072-4.079,3.7,3.7,0,0,1,.208-1.831,4.444,4.444,0,0,1,1.557-1.492,16.719,16.719,0,0,0,6.848-14.1,7.817,7.817,0,0,1,.091-2.5,6.568,6.568,0,0,1,1.179-2.059,190.757,190.757,0,0,0,12.295-19.8c2.2-3.909,4.444-7.877,5.212-12.282a1.14,1.14,0,0,0-.938-1.564,44.326,44.326,0,0,0-5.825-1.394c-5.988-1.212-11.767-3.082-17.592-4.88S655.6,597.874,653.844,602.578Z" transform="translate(-276.448 -282.413)"/><path class="a" d="M587.5,638.526l9.174,1.108L638.9,543.783l11.389-.834,20.01,5.838,3.883,114.12h9.167l-3.61-118.29,21.951.56,39.172,97.512H749.2L708,528.726l-1.583-4.391-61.4-2.1-15.3,8.581-.2.5Z" transform="translate(-237.645 -204.137)"/><path class="b" d="M686.94,612.236c13.194,3.974,26.89,8.314,26.89,8.314s12.49,4.359,17.781,0a7.992,7.992,0,0,1,2.209-1.218,10.873,10.873,0,0,1-2.209,1.218l33.816-10.9-1.564-4.385-61.4-2.1-15.305,8.581Z" transform="translate(-295.072 -285.067)"/><path class="e" d="M735.1,585.088l-25-5.558s-59.735,11.116-64.178,15.559c0,0,47.785,9.721,53.063,13.031S735.659,615.092,735.1,585.088Z" transform="translate(-280.779 -276.833)"/><path class="g" d="M615.549,710.934c-1.505,2.867-5.212,3.675-8.47,3.72a35.762,35.762,0,0,1-13.24-2.365,76.989,76.989,0,0,0-7.213-2.8c-3.708-1.016-7.819-.932-11.077-2.971a13.03,13.03,0,0,1-4.163-4.515c-.189-.319-.371-.651-.541-.99a13.953,13.953,0,0,1-1.414-9.825c.867-3.271,4.014-6.874,7.662-6.822,4.333.065,9.5,2.118,13.683,3.18,5.212,1.3,10.425,2.808,15.031,5.564a22.484,22.484,0,0,1,9.083,9.715,16.464,16.464,0,0,1,.86,2.424A7.6,7.6,0,0,1,615.549,710.934Z" transform="translate(-253.998 -313.363)"/><path class="b" d="M616.5,719.837c-1.505,2.867-5.212,3.675-8.47,3.72a35.764,35.764,0,0,1-13.24-2.365,77.052,77.052,0,0,0-7.213-2.8c-3.707-1.016-7.819-.932-11.076-2.971a13.032,13.032,0,0,1-4.163-4.515c-.189-.319-.371-.651-.541-.99.651.052,1.251.117,1.577.15,4,.385,7.819,1.844,11.637,2.945a65.365,65.365,0,0,0,16.289,2.541c3.909.111,7.988-.176,11.4-2.085a29.943,29.943,0,0,1,3.167-1.74,16.443,16.443,0,0,1,.86,2.424A7.726,7.726,0,0,1,616.5,719.837Z" transform="translate(-254.953 -322.266)"/><path class="h" d="M635.952,533.656c-8.47-1.388-17.1-1.727-25.684-2.065l-10.5-.417a4.762,4.762,0,0,0-2.209.267,14.389,14.389,0,0,0-1.727,1.3,7.143,7.143,0,0,1-3.675.867,182.957,182.957,0,0,0-26.818,3.479c-4.561.932-9.3,2.15-12.725,5.3-3.623,3.329-5.212,8.405-5.336,13.318s1.166,9.741,2.528,14.458a65.865,65.865,0,0,1,2.847,17.5,32.74,32.74,0,0,0,.189,4.932,23.6,23.6,0,0,0,1.375,4.561l4.8,12.8c.424,1.121.84,2.235,1.3,3.329s.906,1.955,1.3,2.984c.586,1.407,1.049,2.867,1.512,4.32l3.193,10.027.417,1.3c1.153,3.61,2.332,7.284,4.509,10.386s5.545,5.6,9.33,5.792a28.566,28.566,0,0,1,3.662.1,14.8,14.8,0,0,1,3,1.088,22.917,22.917,0,0,0,8.972,1.753c2.834,0,5.981-.788,7.519-3.173a11.057,11.057,0,0,0,1.3-4.444c.41-3.088.808-6.313-.241-9.246-.652-1.753-1.746-3.258-2.5-4.984-1.055-2.352-1.4-4.952-2.085-7.434a28.393,28.393,0,0,0-8.666-13.787,135.9,135.9,0,0,1-3.258-17.84,15.7,15.7,0,0,0-.788-3.909c-.762-1.955-2.307-3.538-2.952-5.532-.606-1.85-.424-3.988-1.525-5.584,9.167,2.522,18.244,1.955,27.763,1.8a75.841,75.841,0,0,0,9.122-.521,28.676,28.676,0,0,1,4.274-.456c2.945,0,5.708,1.3,8.411,2.45,7.643,3.258,15.7,5.818,24,6.17,8.568.358,17.038-1.655,25.411-3.649,3.681-.88,7.506-1.831,10.425-4.248s4.561-6.776,2.763-10.093c-1.368-2.5-4.2-3.721-6.848-4.763-7.323-2.893-14.686-5.714-21.742-9.213C655.818,547.338,647.759,535.61,635.952,533.656Z" transform="translate(-246.405 -259.972)"/><path class="l" d="M656.813,482.2c-1.023,2.215-2.743,4.027-4.013,6.112a15.487,15.487,0,0,0-1.955,11.5,13.084,13.084,0,0,0,7.33,8.92,18.4,18.4,0,0,0,5.082,1.225c2.294.28,4.737.339,6.763-.769a9.875,9.875,0,0,0,3.6-3.766,38.182,38.182,0,0,0,3.662-9.526c1.688-6.073,3.128-12.3,2.919-18.6-.072-2.17-.5-4.613-2.3-5.864a7.733,7.733,0,0,0-3.023-.99l-8.594-1.538c-1.661-.3-4.561-1.518-6-.319s-1.551,4.743-1.8,6.4A27.043,27.043,0,0,1,656.813,482.2Z" transform="translate(-282.368 -237.994)"/><path class="l" d="M810.328,447.133l-2.248,18.843a86.688,86.688,0,0,0-.8,10.138c0,1.889.059,3.987-1.192,5.4a4.924,4.924,0,0,1-2.241,1.349c-2.73.847-5.708.091-8.314-1.075a6.876,6.876,0,0,1-3.772-3.114,7.739,7.739,0,0,1-.489-3.3c0-11.239,1.062-22.961,6.933-32.539a7.1,7.1,0,0,1,2.065-2.385c1.629-1.043,3.759-.749,5.6-.182,1.134.345,4.2.73,4.919,1.74S810.484,445.836,810.328,447.133Z" transform="translate(-331.419 -228.128)"/><circle class="l" cx="23.456" cy="23.456" r="23.456" transform="translate(395.816 103.953)"/><path class="l" d="M715.28,348.728a12.1,12.1,0,0,1-1.453,5.212q17.963-2.737,35.836-6.1a16.83,16.83,0,0,1-8.314-9.773,27.6,27.6,0,0,1-1.055-6.965,80.494,80.494,0,0,1,.215-11.213c-4.17.437-8.119,2-12.093,3.342a119.233,119.233,0,0,1-12.178,3.408c-1.987.443-3.988.821-5.994,1.173-2.346.417-3.473.41-1.844,2.469C712.771,335.781,715.892,341.372,715.28,348.728Z" transform="translate(-302.282 -186.363)"/><path class="j" d="M705.962,356.205c-3.095.463-6.34.984-8.809,2.9a33.242,33.242,0,0,0-2.678,2.574c-4.906,4.763-11.832,6.678-17.788,10.04a7.82,7.82,0,0,0-2.528,1.987c-.652.906-.984,2.059-1.668,2.958-.795,1.042-2.052,1.694-2.671,2.847a8.034,8.034,0,0,0-.547,3.6c-.15,2.691-1.166,5.245-1.955,7.819-3.616,12.321-1.635,26.062-7.108,37.7a5.3,5.3,0,0,0,2.88,3.01,16.351,16.351,0,0,0,4.274.919l12.125,1.505a9.573,9.573,0,0,0,5.154-.306,60.551,60.551,0,0,0-3.056,12.334,61.451,61.451,0,0,1-1.368,7.636c-1.668,5.734-5.864,10.51-10.835,13.774a4.007,4.007,0,0,0-1.531,1.414c-.651,1.3.313,2.763,1,4.04,1.987,3.7,1.714,8.144,1.688,12.34s.4,8.8,3.329,11.813c1.733,1.779,4.1,2.743,6.411,3.662l18.967,7.578a66.091,66.091,0,0,0,9.656,3.258c5,1.14,10.19,1.095,15.318.873q5.082-.215,10.151-.651a7.9,7.9,0,0,0,3.838-1.01,7.166,7.166,0,0,0,2.248-3.049c2.639-5.74,3.525-12.438,7.617-17.247,2.808-3.3,7.167-5.942,7.486-10.262.15-2.15-.808-4.242-.821-6.4,0-2.652,1.388-5.173,1.3-7.819-.176-4.307-4.235-7.591-4.88-11.852-1.642-10.8,3.844-21.593,7.213-31.985.606-1.857,1.388-3.909,3.173-4.7s4.3-.378,4.939-2.137a37.972,37.972,0,0,0,1.785-14.3c-.117-2.717-1.082-5.375-.971-8.1.078-1.916.691-3.779.854-5.688a24.149,24.149,0,0,0-1.3-8.542,13.38,13.38,0,0,0-1.016-2.88,13.677,13.677,0,0,0-1.694-2.326l-3.173-3.773c-1.486-1.766-3.056-3.6-5.212-4.489-.7-1.727-2.925-2.919-4.522-3.87a46.314,46.314,0,0,0-4.978-2.443l-17.944-7.923a7.347,7.347,0,0,0-2.131-.691,6.9,6.9,0,0,0-3.167.651C717.54,353.169,711.826,355.332,705.962,356.205Z" transform="translate(-285.759 -196.975)"/><path class="m" d="M699.393,295.966c-.691-2.43-2.456-4.528-2.723-7.043-.241-2.235.743-4.4,1.3-6.574s.541-4.835-1.186-6.281c-.287-.248-.652-.469-.756-.834-.208-.652.45-1.245.652-1.9.371-1.3-1.238-2.743-.652-3.994.332-.684,1.166-.925,1.9-1.14,2.789-.827,5.616-2.665,6.222-5.512,2.183.912,4.509-.8,6.183-2.463s3.733-3.558,6.04-3.056l-.515,1.049a16.68,16.68,0,0,1,11.031-.124h-1.095a15.129,15.129,0,0,1,8.724,2.952c-.28,0-.306.417-.2.652.912,2.131,3.258,3.258,5.519,3.786,1.362.326,2.841.56,3.838,1.538s1.016,3.017-.3,3.486a34.277,34.277,0,0,1,7.564,4.1c.652.476,1.388,1.121,1.3,1.955a6.371,6.371,0,0,1-.4,1.218,4.217,4.217,0,0,0,.137,2.085l.723,2.984c.795,3.316,1.42,7.31-1,9.715a8.92,8.92,0,0,1-1.57,10.529,4.339,4.339,0,0,1-3.258,5.61c.8,1.251.065,3.036-1.2,3.818a6.967,6.967,0,0,1-4.326.652,18.467,18.467,0,0,0-4.437-.248c-2.144.332-4.242,1.792-6.307,1.14a14.15,14.15,0,0,1-2.209-1.186,17.926,17.926,0,0,0-4.73-1.3,21.853,21.853,0,0,1-7.643-3.258,8.96,8.96,0,0,1-3.512-3.909c-1.433-3.623.977-8.372-1.557-11.324a4.477,4.477,0,0,0-6.092-.274c-.827.736-.938,2.287-1.8,2.841A11.369,11.369,0,0,1,699.393,295.966Z" transform="translate(-298.195 -164.479)"/><path class="b" d="M650.618,600.3a10.746,10.746,0,0,1-2.365-2.606,4.86,4.86,0,0,1-.717-3.369,9.637,9.637,0,0,0,2.535,8.288c1.635,1.674,4.7,3.317,7.1,2.743C656.827,603.445,652.136,601.595,650.618,600.3Z" transform="translate(-281.294 -281.99)"/><path class="a" d="M778.314,441.012s-13.891-8.053-32.226,1.955-21.391,68.9-21.391,68.9,7.5,60-21.417,46.651c0,0-52.776-16.387-58.06-12.777,0,0-5,0,5,2.222s48.639,14.465,48.639,14.465,12.49,4.365,17.781,0,20.283.56,22.231-29.45a521.9,521.9,0,0,1,6.945-56.4l5.154-15.279Z" transform="translate(-280.099 -227.5)"/><path class="e" d="M818.855,534.4s-6.112-60.842,3.909-82.793c8.718-19.13-24.994-10.184-33.79-7.578a6.4,6.4,0,0,0-3.375,2.411c-5.212,7.33-23.912,36.709-18.4,76.017,0,0,2.222,35.008-11.669,40.559l42.8-13.787c3.473-1.121,7-2.052,10.555-2.86C813.421,545.343,820.809,542.418,818.855,534.4Z" transform="translate(-318.972 -228.097)"/><ellipse class="n" cx="63.488" cy="10.197" rx="63.488" ry="10.197" transform="translate(548.599 404.223)"/><rect class="o" width="4.085" height="91.98" transform="translate(610.041 219.076)"/><path class="a" d="M1037.816,588.592l-.254,4.144-.365,5.864-.15,2.437-.359,5.864-.156,2.437-.365,5.864-4.118,66.5a11.272,11.272,0,0,1-11.246,10.529H999.387a11.258,11.258,0,0,1-11.233-10.568l-4.131-66.511-.358-5.864-.15-2.437-.371-5.864-.15-2.437-.358-5.864-.261-4.144a5.864,5.864,0,0,1,5.825-6.2H1032a5.864,5.864,0,0,1,5.818,6.242Z" transform="translate(-398.011 -277.815)"/><path class="p" d="M1002.746,517.36l-.365,5.844h-54.2l-.365-5.844Z" transform="translate(-363.196 -202.44)"/><path class="p" d="M1002.507,530.08l-.358,5.851H948.975l-.365-5.851Z" transform="translate(-363.471 -206.872)"/><path class="p" d="M1002.267,542.8l-.365,5.844H949.765L949.4,542.8Z" transform="translate(-363.747 -211.304)"/><path class="j" d="M945.143,494.371c23.795,17.214,33.7,44.136,33.7,44.136s-28.668-.984-52.47-18.2-33.7-44.13-33.7-44.13S921.355,477.164,945.143,494.371Z" transform="translate(-366.761 -240.821)"/><path class="q" d="M892.68,476.18s29.757,16.517,39.308,30.193,46.86,32.135,46.86,32.135" transform="translate(-366.761 -240.821)"/><path class="j" d="M981.519,445.584c12.953,9.363,18.348,24.023,18.348,24.023s-15.637-.541-28.558-9.9S953,435.68,953,435.68,968.572,436.214,981.519,445.584Z" transform="translate(-387.779 -226.709)"/><path class="q" d="M953,435.68s16.2,8.992,21.391,16.432S999.9,469.607,999.9,469.607" transform="translate(-387.779 -226.709)"/><path class="j" d="M1044.172,475.1c-14.875,16.348-18.022,37.712-18.022,37.712s20.974-5.147,35.836-21.5,18.022-37.712,18.022-37.712S1059.047,458.754,1044.172,475.1Z" transform="translate(-413.268 -232.953)"/><path class="q" d="M1080.021,453.61s-19.377,16.758-24.3,28.3-29.568,30.9-29.568,30.9" transform="translate(-413.268 -232.957)"/><path class="r" d="M568.382,412.05v1.486H524.33V412.33a14.808,14.808,0,0,0,3.4-1.811,14.471,14.471,0,0,0,6.046-11.767,14.277,14.277,0,0,0-.45-3.564,14.484,14.484,0,0,0-8-9.6h42.755a14.485,14.485,0,0,0-8,9.6,14.282,14.282,0,0,0-.443,3.564,14.465,14.465,0,0,0,6.04,11.767,14.9,14.9,0,0,0,2.7,1.531Z" transform="translate(-238.412 -209.256)"/><path class="b" d="M568.615,385.59a14.484,14.484,0,0,0-8,9.6H533.861a14.484,14.484,0,0,0-8-9.6Z" transform="translate(-238.945 -209.256)"/><path class="r" d="M446.92,373.94v8.366c0,4.613,3.375,8.359,7.545,8.359h129.6c4.17,0,7.552-3.746,7.552-8.359V373.94Z" transform="translate(-211.439 -205.196)"/><path class="b" d="M568.382,425.381v1.486H524.33v-1.205a14.81,14.81,0,0,0,3.4-1.811h37.947A14.907,14.907,0,0,0,568.382,425.381Z" transform="translate(-238.412 -222.587)"/><rect class="r" width="73.163" height="4.411" rx="2.206" transform="translate(271.362 201.725)"/><path class="s" d="M591.618,229.275a7.545,7.545,0,0,0-7.552-7.545h-129.6a7.539,7.539,0,0,0-7.545,7.545v93.257h144.7Z" transform="translate(-211.439 -152.16)"/><path class="t" d="M589.781,236.494v80.141a3.714,3.714,0,0,1-3.714,3.72H456.694a3.714,3.714,0,0,1-3.714-3.72V236.494a3.662,3.662,0,0,1,.5-1.857,3.714,3.714,0,0,1,3.219-1.857H586.067a3.714,3.714,0,0,1,3.714,3.714Z" transform="translate(-213.551 -156.01)"/><circle class="e" cx="1.74" cy="1.74" r="1.74" transform="translate(306.09 71.427)"/><circle class="e" cx="4.294" cy="4.294" r="4.294" transform="translate(303.536 173.161)"/><path class="u" d="M589.788,236.494H453a3.714,3.714,0,0,1,3.714-3.714h129.36a3.714,3.714,0,0,1,3.714,3.714Z" transform="translate(-213.558 -156.01)"/><circle class="v" cx="0.932" cy="0.932" r="0.932" transform="translate(242.211 77.695)"/><circle class="v" cx="0.932" cy="0.932" r="0.932" transform="translate(245 77.695)"/><circle class="v" cx="0.932" cy="0.932" r="0.932" transform="translate(247.789 77.695)"/></g></svg>