<svg xmlns="http://www.w3.org/2000/svg" xmlns:xlink="http://www.w3.org/1999/xlink" width="558.807" height="415.415" viewBox="0 0 558.807 415.415"><defs><style>.a{fill:#fff;}.b,.e{fill:none;stroke:#444053;stroke-miterlimit:10;}.c,.h,.l{fill:#800340;}.d{fill:#444053;}.e{stroke-width:0.75px;}.f,.h{opacity:0.1;}.g{fill:#ffd037;}.i{fill:#65617d;}.j{fill:#9d9cb5;}.k{fill:#eeeef1;}.l{opacity:0.2;}.m{fill:#3f3d56;}.n{fill:#e6e6e6;}.o{fill:#bebcd2;}.p{clip-path:url(#a);}.q{fill:#ff5252;}</style><clipPath id="a"><rect class="a" width="132.972" height="88.443" rx="8.85" transform="translate(0 0)"/></clipPath></defs><path class="b" d="M567.3,238.194s-7.591-15.912-.839-26.264" transform="translate(-294.517 -116.86)"/><g transform="translate(208.554 0)"><path class="b" d="M670.193,237.74s-8.352-5.616-7.368-12.16" transform="translate(-550.817 -123.437)"/><path class="b" d="M640.229,243.25s-11.917-4.332-13.119-21.3" transform="translate(-533.646 -121.688)"/><path class="b" d="M607.5,247.384a26.676,26.676,0,0,1-7.611-25.974" transform="translate(-520.159 -121.428)"/><path class="b" d="M675.575,212.82s-8.627,2.736-6.777,7.254" transform="translate(-553.609 -117.289)"/><path class="c" d="M584.774,143.966s-7.29-2.958-30.471,7.679-26.093,9.28-32.082,7.653-9.326-2.01-15.782-10.881c0,0-4.539-24.6-8.927-28.414s-23.057,2.171-23.057,2.171-22.378,5.135-26.642-24.771c0,0,3.026-22.544-1.093-29.46,0,0,8.29,3.591,22.041-2.2s24.709,6.217,24.709,6.217,3.461,8.964,3.109,14.305,1.829,7.347,8.378,4.767c0,0,3.212-4.575-1.342-12.134s-7.8-13.2-6.528-19.067,4.922-13.989,16.663-18.082,27.688-4.86,35.346-8.046S558.6,28.44,558.6,28.44s-4.72,4.736,6.394,24.74,4.026,28.694,4.026,28.694-5.907,14.072-31.968,12.953c0,0-25.113.917-11.4,11.57,0,0,8.772-1.788,21.88-5.953s22.575,13.031,24.922,25S584.774,143.966,584.774,143.966Z" transform="translate(-446.72 -28.44)"/><path class="d" d="M629.6,57.716l.14-.036c1.005,3.819-10.223,19.171-19.813,31.362l-.114-.088C623.349,71.747,630.38,60.654,629.6,57.716Z" transform="translate(-525.309 -42.53)"/><path class="d" d="M584.767,117.55l.057.155c-7.663,9.746-17.3,21.373-25.015,29.984-.736.824-1.466,1.684-2.171,2.565l-.218-.181c.7-.881,1.44-1.746,2.176-2.591C567.306,138.9,577.109,127.291,584.767,117.55Z" transform="translate(-500.064 -71.38)"/><path class="d" d="M541.189,179.88l.15.259c-14.041,17.528-14.969,44.745-15.026,44.983l-2.964-3.42C523.412,221.465,527.049,197.527,541.189,179.88Z" transform="translate(-483.646 -101.415)"/><path class="b" d="M580.112,179.629s-16.58-8.606-29.455-5.518S508.689,163.2,508.689,163.2s-12.337-5.015-14.813-10.725c0,0-8.461-8.943-8.943-13.575s-8.72-16.269-14.093-16.72" transform="translate(-458.343 -73.611)"/><path class="b" d="M651.013,182.61s-11.539,3.663-11.813,19.984" transform="translate(-539.472 -102.731)"/><path class="b" d="M621.917,175.34s-10.5,12.953-9.725,24.74" transform="translate(-526.438 -99.228)"/><path class="b" d="M586.909,185.15s-10.43,9.969-9.1,15.518" transform="translate(-509.833 -103.955)"/><path class="b" d="M572.97,177s-9.782,1.756-11.15-1.456" transform="translate(-502.184 -99.324)"/><path class="b" d="M558.81,155.56s4.943,6.544,6.217,5.078" transform="translate(-500.734 -89.696)"/><path class="b" d="M625.238,142.322S600.585,144.1,595,136.68" transform="translate(-518.173 -80.598)"/><path class="b" d="M548.8,91.91s11.57,24.834,19.968,27.979" transform="translate(-495.91 -59.025)"/><path class="b" d="M572.22,69.08s7.109,22.844,15.912,29.973" transform="translate(-507.196 -48.024)"/><path class="e" d="M645.48,111.1s-18.751,8.046-30.01-.093" transform="translate(-528.037 -68.229)"/><path class="e" d="M604.46,59.68s4.285,16.792,10.057,20.849" transform="translate(-522.731 -43.494)"/><path class="e" d="M654.461,74.89s-10.534,3.99-14.471.933" transform="translate(-539.852 -50.823)"/><path class="b" d="M537.684,166.15s0,14.637-3.984,15.678" transform="translate(-488.634 -94.799)"/><path class="b" d="M478.52,196.418s15.823,1.357,23.124-6.808" transform="translate(-462.044 -106.104)"/><path class="b" d="M520.123,132.78s-3.829,14.844-14.393,18.844" transform="translate(-475.156 -78.719)"/><path class="b" d="M460.2,166.971s11.2,3.9,20.834-6.021" transform="translate(-453.216 -92.294)"/><path class="b" d="M502.112,108.15s-1.036,12.606-7.912,18.507" transform="translate(-469.6 -66.85)"/><path class="b" d="M461,132.734s9.3.067,11.471-2.964" transform="translate(-453.601 -77.269)"/></g><path class="c" d="M749.869,678.54s3.072,4.016-1.42,10.083-8.191,11.186-6.694,14.969c0,0,6.772-11.264,12.29-11.4S755.937,685.312,749.869,678.54Z" transform="translate(-449.593 -373.798)"/><path class="f" d="M750.03,678.54a4.978,4.978,0,0,1,.627,1.259c5.383,6.321,8.249,12.223,3.078,12.368-4.819.14-10.6,8.756-11.984,10.927a4,4,0,0,0,.166.518s6.772-11.264,12.29-11.4S756.1,685.312,750.03,678.54Z" transform="translate(-449.753 -373.798)"/><path class="g" d="M768.095,687.579c0,1.414-.156,2.56-.352,2.56s-.352-1.145-.352-2.56.2-.746.394-.746S768.095,686.165,768.095,687.579Z" transform="translate(-462.108 -377.719)"/><path class="g" d="M770.284,690.753c-1.244.673-2.326,1.083-2.42.912s.839-.86,2.072-1.554.751-.186.845,0S771.522,690.074,770.284,690.753Z" transform="translate(-462.334 -379.203)"/><path class="c" d="M720,678.54s-3.073,4.016,1.415,10.083,8.2,11.186,6.7,14.969c0,0-6.777-11.264-12.29-11.4S713.93,685.312,720,678.54Z" transform="translate(-435.949 -373.798)"/><path class="f" d="M720,678.54a4.864,4.864,0,0,0-.632,1.259c-5.378,6.321-8.243,12.223-3.072,12.368,4.818.14,10.6,8.756,11.979,10.927a3.964,3.964,0,0,1-.161.518s-6.777-11.264-12.29-11.4S713.93,685.312,720,678.54Z" transform="translate(-435.949 -373.798)"/><path class="g" d="M715.38,687.584c0,1.414.161,2.56.358,2.56s.352-1.145.352-2.56-.2-.736-.389-.736S715.38,686.17,715.38,687.584Z" transform="translate(-437.046 -377.724)"/><path class="g" d="M710.9,690.753c1.244.673,2.326,1.083,2.42.912s-.839-.86-2.073-1.554-.751-.186-.845,0S709.657,690.074,710.9,690.753Z" transform="translate(-434.525 -379.203)"/><ellipse class="h" cx="32.124" cy="4.927" rx="32.124" ry="4.927" transform="translate(260.039 350.668)"/><path class="i" d="M743.226,714.71l-.155,1.254-.212,1.772-.093.741-.212,1.772-.093.741-.218,1.767-2.456,20.155c-.223,1.8-3.161,3.2-6.736,3.2H720.294c-3.549,0-6.482-1.4-6.7-3.2l-2.466-20.139-.212-1.767-.093-.741-.218-1.772-.088-.741-.218-1.772-.155-1.254c-.119-1.036,1.471-1.875,3.477-1.875h26.124C741.75,712.834,743.34,713.689,743.226,714.71Z" transform="translate(-434.52 -390.332)"/><path class="j" d="M714.781,700.32l-.212,1.772H682.238l-.218-1.772Z" transform="translate(-406.24 -374.688)"/><path class="j" d="M714.76,705.16l-.212,1.772H682.828l-.218-1.772Z" transform="translate(-406.525 -377.02)"/><path class="j" d="M714.743,710.01l-.218,1.772h-31.1l-.212-1.772Z" transform="translate(-406.814 -379.357)"/><g transform="translate(0 249.432)"><rect class="a" width="221.31" height="159.343" rx="6.61" transform="translate(0 0)"/><rect class="h" width="221.31" height="165.982" rx="6.61" transform="translate(0 0)"/><g transform="translate(11.065 8.852)"><rect class="a" width="198.756" height="148.338" rx="6.61"/><rect class="c" width="136.441" height="19.958" rx="6.03" transform="translate(30.983 32.437)"/><rect class="c" width="126.452" height="4.072" transform="translate(36.516 72.576)"/><rect class="c" width="173.896" height="4.072" transform="translate(12.172 85.938)"/><rect class="c" width="173.896" height="4.072" transform="translate(12.172 100)"/><rect class="c" width="173.896" height="4.072" transform="translate(12.172 114.063)"/></g></g><rect class="k" width="362.73" height="193.257" rx="12.49" transform="translate(81.885 85.663)"/><rect class="a" width="335.569" height="166.841" rx="10.19" transform="translate(95.163 98.942)"/><rect class="l" width="96.525" height="10.131" rx="3.86" transform="translate(262.459 115.352)"/><rect class="l" width="150.721" height="10.131" rx="3.86" transform="translate(262.459 143.718)"/><rect class="l" width="150.721" height="10.131" rx="3.86" transform="translate(262.459 160.284)"/><rect class="l" width="150.721" height="10.131" rx="3.86" transform="translate(262.459 176.85)"/><rect class="l" width="150.721" height="10.131" rx="3.86" transform="translate(262.459 193.416)"/><rect class="l" width="300.313" height="10.131" rx="3.86" transform="translate(112.868 211.682)"/><rect class="l" width="300.313" height="10.131" rx="3.86" transform="translate(112.868 228.247)"/><rect class="l" width="300.313" height="10.131" rx="3.86" transform="translate(112.868 244.814)"/><rect class="l" width="128.281" height="94.104" rx="8.5" transform="translate(122.127 110.008)"/><path class="m" d="M671.96,396.226a2.464,2.464,0,0,1-1-.213,1.209,1.209,0,0,1-.209-.119l-6.371-4.485h0a2.464,2.464,0,0,1-1.046-2.015v-6.116a2.465,2.465,0,0,1,1.045-2.015l6.371-4.485a1.217,1.217,0,0,1,.209-.119,2.465,2.465,0,0,1,3.466,2.252v14.848a2.465,2.465,0,0,1-2.465,2.465Z" transform="translate(-445.543 -239.164)"/><path class="m" d="M482.58,390.4H464.812c-3.625,0-6.563-2.346-6.567-5.238V373.451c0-2.892,2.942-5.235,6.567-5.238h17.815c3.6,0,6.516,2.33,6.52,5.2v11.745C489.143,388.05,486.206,390.394,482.58,390.4Z" transform="translate(-270.421 -232.132)"/><path class="n" d="M198.1,333.538a2.241,2.241,0,0,1-2.23,2.253H97.77a2.241,2.241,0,0,1-2.23-2.253v-67.01a2.241,2.241,0,0,1,2.23-2.253h98.1a2.241,2.241,0,0,1,2.23,2.253h0Z" transform="translate(39.287 -143.381)"/><path class="a" d="M204.1,339.468a2.179,2.179,0,0,1-2.179,2.179H106.1a2.179,2.179,0,0,1-2.179-2.179V274.684A2.179,2.179,0,0,1,106.1,272.5h95.827a2.179,2.179,0,0,1,2.174,2.179Z" transform="translate(32.132 -150.409)"/><path class="n" d="M35.873,145.48h90.039a1.293,1.293,0,0,1,1.293,1.293v60.679a1.293,1.293,0,0,1-1.293,1.293H35.873a1.293,1.293,0,0,1-1.293-1.293V146.773a1.293,1.293,0,0,1,1.293-1.293Z" transform="translate(105.3 -20.571)"/><path class="a" d="M43.673,155.44h87.662a1.293,1.293,0,0,1,1.293,1.293v57.441a1.293,1.293,0,0,1-1.293,1.293H43.673a1.293,1.293,0,0,1-1.293-1.293V156.733A1.293,1.293,0,0,1,43.673,155.44Z" transform="translate(98.639 -29.076)"/><path class="c" d="M519.96,459.226a2.464,2.464,0,0,1-1-.213,1.216,1.216,0,0,1-.209-.119l-6.371-4.484h0a2.465,2.465,0,0,1-1.046-2.015v-6.116a2.465,2.465,0,0,1,1.046-2.015l6.371-4.485a1.224,1.224,0,0,1,.209-.119,2.465,2.465,0,0,1,3.466,2.252v14.848a2.465,2.465,0,0,1-2.465,2.465Z" transform="translate(-315.752 -292.959)"/><path class="c" d="M330.58,453.4H312.812c-3.625,0-6.563-2.346-6.567-5.238V436.451c0-2.892,2.942-5.235,6.567-5.238h17.815c3.6,0,6.516,2.33,6.52,5.2v11.745C337.143,451.05,334.206,453.394,330.58,453.4Z" transform="translate(-140.631 -285.927)"/><circle class="m" cx="5.285" cy="5.285" r="5.285" transform="translate(216.317 172.128)"/><path class="a" d="M682.628,636.142l-4.212-2.432a.11.11,0,0,0-.164.095v4.864a.109.109,0,0,0,.164.095l4.212-2.432a.109.109,0,0,0,0-.189l-4.212-2.432a.11.11,0,0,0-.164.095v4.864a.109.109,0,0,0,.164.095l4.212-2.432a.109.109,0,0,0,0-.19Z" transform="translate(-458.282 -458.824)"/><path class="o" d="M9.628,0H164.1a9.628,9.628,0,0,1,9.628,9.628V185.006a9.628,9.628,0,0,1-9.628,9.628H9.628A9.628,9.628,0,0,1,0,185.006V9.628A9.628,9.628,0,0,1,9.628,0Z" transform="translate(385.079 204.064)"/><rect class="a" width="152.084" height="174.78" rx="6.61" transform="translate(396.732 214.26)"/><rect class="c" width="133.034" height="7.347" transform="translate(406.257 346.37)"/><rect class="c" width="133.034" height="7.347" transform="translate(406.257 362.393)"/><rect class="c" width="133.034" height="7.347" transform="translate(406.257 330.48)"/><g class="p" transform="translate(406.257 227.801)"><path class="c" d="M381.67,601.074,418.8,558.536a7.39,7.39,0,0,1,10.458-.684l10.385,9.172a7.39,7.39,0,0,0,9.646.114l31.774-26.7a7.39,7.39,0,0,1,10.23.679l38.99,42.915a7.389,7.389,0,0,1,1.892,4.317l1.5,16.926a7.39,7.39,0,0,1-7.362,8.046H387.241a7.39,7.39,0,0,1-7.385-7.165h0A7.39,7.39,0,0,1,381.67,601.074Z" transform="translate(-389.069 -513.442)"/></g><ellipse class="q" cx="8.233" cy="8.233" rx="8.233" ry="8.233" transform="translate(414.034 233.746)"/></svg>