<svg xmlns="http://www.w3.org/2000/svg" width="532.386" height="291.196" viewBox="0 0 532.386 291.196"><defs><style>.a{fill:#263238;}.b{fill:#455a64;}.c{fill:#800040;}.d{opacity:0.4;}.e{fill:#fafafa;}.f{opacity:0.3;}.g{fill:#ffbe9d;}.h{fill:#eb996e;}.i{fill:#597380;}.j{fill:#f5f5f5;}.k{fill:#fff;}</style></defs><g transform="translate(-748.614 -888)"><g transform="translate(748.614 888)"><g transform="translate(329.955 161.446)"><path class="a" d="M457.322,328.6A14.97,14.97,0,0,1,471.9,316.037c31.527-.42,111.8-1.145,116.11,2.275,5.365,4.261,8.17,6.442,7.75,13.2-.386,6.211-7.158,113.453-7.158,113.453H438.366Z" transform="translate(-438.366 -315.67)"/><g transform="translate(132.158 8.29)"><path class="b" d="M584.11,445.815a1.571,1.571,0,0,1-.043-.316c-.02-.234-.047-.54-.079-.929-.062-.846-.15-2.046-.261-3.576-.118-1.553-.239-3.455-.309-5.666s-.219-4.727-.221-7.513q-.023-2.091-.049-4.371c-.013-1.521.038-3.1.056-4.739.014-3.275.193-6.771.348-10.451.415-7.353,1.115-15.426,2.241-23.853,1.166-8.424,2.649-16.393,4.214-23.592.833-3.588,1.595-7.006,2.457-10.167.42-1.584.794-3.121,1.212-4.582l1.215-4.2c.747-2.685,1.555-5.073,2.221-7.183s1.282-3.913,1.81-5.379l1.207-3.377.325-.874a1.647,1.647,0,0,1,.126-.292,1.489,1.489,0,0,1-.08.308l-.28.89-1.122,3.4c-.5,1.474-1.1,3.282-1.733,5.4s-1.426,4.508-2.151,7.2q-.566,2.01-1.184,4.2c-.409,1.462-.773,3-1.185,4.583-.844,3.162-1.59,6.578-2.411,10.163-1.539,7.194-3.007,15.152-4.171,23.563-1.125,8.413-1.836,16.472-2.275,23.813-.166,3.674-.361,7.164-.391,10.435-.026,1.635-.086,3.214-.083,4.732s.013,2.975.018,4.366c-.019,2.782.1,5.3.151,7.507s.138,4.111.227,5.666c.074,1.532.131,2.732.172,3.58.014.39.025.7.033.932A1.575,1.575,0,0,1,584.11,445.815Z" transform="translate(-583.146 -324.752)"/></g><g transform="translate(28.621 40.397)"><g transform="translate(15.867 13.809)"><path class="a" d="M491.249,375.193c0-.016.074-.046.229-.089a2.2,2.2,0,0,1,.7-.039,3.178,3.178,0,0,1,2.2,1.3,3.6,3.6,0,0,1,.222,3.742,4.668,4.668,0,0,1-1.469,1.76,4.477,4.477,0,0,1-2.328.812,3.751,3.751,0,0,1-2.4-.624,3.031,3.031,0,0,1-1.244-1.954,4.079,4.079,0,0,1,1.151-3.6c1.688-1.44,3.182-1.491,3.15-1.349-.008.017-.083.008-.231.042a4.161,4.161,0,0,0-.634.216,6.564,6.564,0,0,0-2.049,1.33,3.788,3.788,0,0,0-.957,3.272,2.6,2.6,0,0,0,1.081,1.659,3.332,3.332,0,0,0,2.1.531,4.069,4.069,0,0,0,2.086-.717,4.292,4.292,0,0,0,1.345-1.573,3.275,3.275,0,0,0-.1-3.354,3.122,3.122,0,0,0-1.951-1.312A8.776,8.776,0,0,0,491.249,375.193Z" transform="translate(-487.102 -375.054)"/></g><g transform="translate(22.962)"><path class="a" d="M515.492,360.251a39.359,39.359,0,0,0-4.035.043A18.5,18.5,0,0,0,496.3,370.91a39.023,39.023,0,0,0-1.419,3.777,4.2,4.2,0,0,1,.167-1.082A16.014,16.014,0,0,1,496,370.77a17.989,17.989,0,0,1,15.434-10.811,16.058,16.058,0,0,1,2.987.079A4.161,4.161,0,0,1,515.492,360.251Z" transform="translate(-494.875 -359.926)"/></g><g transform="translate(0 20.501)"><path class="a" d="M469.724,390.112a2.621,2.621,0,0,1,.351-.775,12.122,12.122,0,0,1,1.324-1.9,14.1,14.1,0,0,1,13.862-4.724,12.131,12.131,0,0,1,2.21.7,2.624,2.624,0,0,1,.75.4c-.033.082-1.132-.433-3.025-.769a14.651,14.651,0,0,0-13.544,4.616C470.356,389.079,469.8,390.158,469.724,390.112Z" transform="translate(-469.72 -382.385)"/></g><g transform="translate(22.212 21.295)"><path class="a" d="M500.918,393.92a5.6,5.6,0,0,1-1.545-1.116,17.221,17.221,0,0,1-4.932-7.68,5.661,5.661,0,0,1-.372-1.869,24.4,24.4,0,0,0,6.85,10.665Z" transform="translate(-494.053 -383.254)"/></g></g><g transform="translate(79.356 41.667)"><g transform="translate(15.866 13.81)"><path class="a" d="M546.83,376.584c0-.016.073-.046.228-.089a2.205,2.205,0,0,1,.7-.039,3.18,3.18,0,0,1,2.2,1.3,3.6,3.6,0,0,1,.222,3.742,4.677,4.677,0,0,1-1.469,1.76,4.477,4.477,0,0,1-2.328.811,3.753,3.753,0,0,1-2.4-.623,3.03,3.03,0,0,1-1.243-1.954,4.078,4.078,0,0,1,1.15-3.6c1.688-1.44,3.183-1.491,3.151-1.349-.008.017-.084.008-.232.042a4.161,4.161,0,0,0-.633.216,6.564,6.564,0,0,0-2.049,1.33,3.787,3.787,0,0,0-.957,3.272,2.6,2.6,0,0,0,1.08,1.659,3.329,3.329,0,0,0,2.1.53,4.06,4.06,0,0,0,2.086-.717,4.3,4.3,0,0,0,1.346-1.573,3.274,3.274,0,0,0-.1-3.354,3.115,3.115,0,0,0-1.95-1.312A8.772,8.772,0,0,0,546.83,376.584Z" transform="translate(-542.683 -376.445)"/></g><g transform="translate(22.961)"><path class="a" d="M571.073,361.642a39.049,39.049,0,0,0-4.035.043A18.5,18.5,0,0,0,551.883,372.3a39.639,39.639,0,0,0-1.419,3.777,4.182,4.182,0,0,1,.168-1.083,16.014,16.014,0,0,1,.946-2.834,17.988,17.988,0,0,1,15.434-10.811,15.991,15.991,0,0,1,2.988.079A4.124,4.124,0,0,1,571.073,361.642Z" transform="translate(-550.455 -361.316)"/></g><g transform="translate(0 20.502)"><path class="a" d="M525.3,391.5a2.63,2.63,0,0,1,.35-.775,12.2,12.2,0,0,1,1.324-1.9A14.1,14.1,0,0,1,540.84,384.1a12.145,12.145,0,0,1,2.211.7,2.59,2.59,0,0,1,.749.4c-.032.082-1.131-.433-3.025-.769a14.653,14.653,0,0,0-13.544,4.616C525.936,390.47,525.38,391.549,525.3,391.5Z" transform="translate(-525.301 -383.776)"/></g><g transform="translate(22.211 21.294)"><path class="a" d="M556.5,395.311a5.614,5.614,0,0,1-1.545-1.116,17.227,17.227,0,0,1-4.931-7.68,5.6,5.6,0,0,1-.372-1.87,24.4,24.4,0,0,0,6.849,10.666Z" transform="translate(-549.634 -384.644)"/></g></g></g><g transform="translate(336.347 91.655)"><path class="c" d="M601.682,288.7c-40.444-39.956-90.795-49.487-90.795-49.487-29.939,17.849-50.141,47.815-65.52,83.787,25.8,23.87,58.971,46.747,87.356,48.853C577.615,360.5,601.682,288.7,601.682,288.7Z" transform="translate(-445.368 -239.214)"/><g class="d"><path d="M601.682,288.7c-40.444-39.956-90.795-49.487-90.795-49.487-29.939,17.849-50.141,47.815-65.52,83.787,25.8,23.87,58.971,46.747,87.356,48.853C577.615,360.5,601.682,288.7,601.682,288.7Z" transform="translate(-445.368 -239.214)"/></g><g transform="translate(51.267 10.893)"><path class="c" d="M592.165,321.468a1.659,1.659,0,0,1-.1-.276c-.063-.2-.148-.475-.257-.824l-.966-3.209c-.832-2.83-2.037-6.925-3.555-12.078l.181.1-19.837,6.432.126-.122a.462.462,0,0,1-.055.1.219.219,0,0,1-.243.068.256.256,0,0,1-.127-.128.66.66,0,0,1-.034-.145l-.021-.213-.018-.406-.014-.807V308.33q.007-1.639.015-3.331c.009-2.255.008-4.576-.026-6.957s-.1-4.821-.236-7.308a64.7,64.7,0,0,0-.784-7.561l.281.184-18.033,4.191-10.994,2.55-.238.056-.047-.241c-1.626-8.52-3.172-16.617-4.6-24.082l.268.167a162.6,162.6,0,0,1-28.806,5.037l-.146.012-.017-.144c-.757-6.205-1.357-11.136-1.772-14.539-.2-1.675-.346-2.973-.451-3.875-.045-.425-.08-.756-.106-1a2.282,2.282,0,0,1-.022-.341,2,2,0,0,1,.065.336c.036.243.084.571.147.994.123.9.3,2.194.529,3.865.447,3.4,1.1,8.325,1.911,14.522l-.163-.132a165.955,165.955,0,0,0,28.718-5.15l.224-.061.044.229c1.438,7.462,3,15.557,4.636,24.075l-.284-.185,10.992-2.553,18.036-4.18.238-.055.043.239a65.072,65.072,0,0,1,.779,7.619c.133,2.5.193,4.942.222,7.326s.023,4.709.007,6.965q-.012,1.691-.026,3.331,0,.819,0,1.624l.01.8.016.39.016.183.006.038c-.019.021.048-.014-.046.03-.078.049-.088.006-.112.051,0,.05,0-.044-.041-.023-.146-.093-.114-.068-.114-.068l-.1-.05.229-.073,19.87-6.326.141-.045.039.141c1.462,5.168,2.625,9.276,3.428,12.114.386,1.395.686,2.477.894,3.231.094.353.166.628.221.834A1.639,1.639,0,0,1,592.165,321.468Z" transform="translate(-501.532 -251.147)"/></g><g transform="translate(36.893 25.797)"><path class="e" d="M583.056,335.6a1.158,1.158,0,0,1-.092-.214c-.059-.162-.138-.371-.238-.643q-.316-.886-.9-2.52c-.782-2.233-1.916-5.474-3.357-9.594l.154.083-23.644,6.312-.218.058-.028-.224c-.563-4.348-1.191-9.019-1.882-13.939s-1.434-10.1-2.384-15.423l.281.184-17.307,4.022-11.72,2.717-.238.056-.047-.24c-1.626-8.522-3.171-16.618-4.6-24.083l.267.167a162.533,162.533,0,0,1-28.806,5.036l-.146.012-.017-.143c-.757-6.208-1.357-11.139-1.773-14.542-.194-1.674-.345-2.971-.45-3.873-.045-.424-.08-.756-.106-1a2.125,2.125,0,0,1-.022-.34,1.949,1.949,0,0,1,.064.335c.036.242.085.571.147.994.123.9.3,2.193.529,3.863.447,3.4,1.1,8.324,1.911,14.524l-.163-.131a165.982,165.982,0,0,0,28.719-5.15l.224-.061.044.228c1.438,7.463,3,15.556,4.637,24.075l-.284-.184,11.718-2.722,17.31-4.012.238-.056.043.241c.947,5.342,1.668,10.522,2.361,15.445s1.293,9.6,1.84,13.95l-.246-.166,23.68-6.179.117-.03.038.113,3.242,9.633.837,2.541.206.654A1.227,1.227,0,0,1,583.056,335.6Z" transform="translate(-485.784 -267.475)"/></g><g transform="translate(23.301 43.551)"><path class="c" d="M565.932,356.977s0-.257.04-.755q.063-.778.179-2.2c.172-1.954.422-4.792.742-8.42l.151.122-24.517,8.146-.209.07-.041-.217c-1.935-10.037-4.225-21.911-6.7-34.769l.283.186-15,3.484-14.031,3.253-.238.055-.046-.239c-1.628-8.529-3.172-16.622-4.6-24.083l.265.165a162.639,162.639,0,0,1-28.806,5.037l-.143.012-.017-.142c-.758-6.216-1.359-11.147-1.774-14.548-.2-1.674-.346-2.97-.451-3.869-.045-.424-.08-.755-.106-1a2.1,2.1,0,0,1-.022-.34,2.074,2.074,0,0,1,.064.334l.146.993c.123.9.3,2.19.528,3.859.446,3.4,1.094,8.321,1.911,14.53l-.162-.131a165.842,165.842,0,0,0,28.72-5.15l.222-.06.043.226c1.437,7.458,3,15.549,4.638,24.075l-.283-.184,14.029-3.26,15-3.477.237-.055.046.241c2.449,12.862,4.711,24.739,6.622,34.779l-.25-.147,24.566-8,.17-.056-.017.178c-.367,3.622-.654,6.457-.853,8.409q-.153,1.421-.238,2.2C565.977,356.723,565.932,356.977,565.932,356.977Z" transform="translate(-470.894 -286.924)"/></g><g transform="translate(12.197 62.736)"><path class="e" d="M532.233,377.7a.725.725,0,0,1-.059-.173l-.142-.518-.52-2.026c-.445-1.8-1.083-4.4-1.891-7.681-.788-3.318-1.739-7.326-2.826-11.907-1.051-4.6-2.272-9.757-3.362-15.43l.256.168-29.021,6.762-.24.056-.047-.243L493.9,344.2c-1.44-7.532-2.826-14.784-4.123-21.57l.281.176a162.477,162.477,0,0,1-28.808,5.039l-.159.013-.019-.156c-.743-6.115-1.342-11.045-1.759-14.475-.194-1.683-.346-3-.452-3.916-.045-.429-.079-.766-.106-1.018a1.906,1.906,0,0,1-.02-.348,1.985,1.985,0,0,1,.068.342l.151,1.011.539,3.905c.451,3.425,1.1,8.35,1.906,14.456l-.177-.143a166.359,166.359,0,0,0,28.717-5.148l.236-.064.046.24c1.3,6.784,2.7,14.036,4.147,21.565.164.86.329,1.717.481,2.511l-.287-.186,29.033-6.711.215-.05.041.218c1.067,5.658,2.265,10.83,3.286,15.429l2.729,11.926c.76,3.3,1.359,5.9,1.776,7.709q.294,1.31.458,2.04c.045.217.08.389.109.526A.679.679,0,0,1,532.233,377.7Z" transform="translate(-458.729 -307.941)"/></g><g transform="translate(44.83 112.209)"><path class="c" d="M519.928,379.159a7.441,7.441,0,0,1-.34-1.265l-.781-3.519c-.643-2.992-1.513-7.172-2.473-11.909l.285.186-2.728.636c-5.346,1.241-10.193,2.338-13.705,3.109l-4.165.889a9.8,9.8,0,0,1-1.542.263,9.765,9.765,0,0,1,1.5-.443l4.131-1.037c3.493-.854,8.327-2,13.673-3.245l2.729-.631.236-.055.048.242c.943,4.735,1.755,8.922,2.317,11.929.26,1.447.476,2.638.639,3.547A7.562,7.562,0,0,1,519.928,379.159Z" transform="translate(-494.479 -362.139)"/></g><g transform="translate(17.556 94.854)"><path class="c" d="M483.663,360.869a7.1,7.1,0,0,1-.341-1.29c-.2-.925-.452-2.117-.758-3.548-.619-3-1.442-7.152-2.322-11.743-.054-.281-.108-.56-.157-.82l.295.184c-4.338,1.173-8.282,2.013-11.14,2.53-1.429.259-2.587.445-3.387.556a6.346,6.346,0,0,1-1.251.124,6.789,6.789,0,0,1,1.22-.3l3.355-.7c2.837-.6,6.757-1.491,11.08-2.666l.247-.068.048.252c.05.259.1.539.157.82.881,4.59,1.651,8.751,2.186,11.768.246,1.443.45,2.645.609,3.577A7.226,7.226,0,0,1,483.663,360.869Z" transform="translate(-464.601 -343.127)"/></g><g transform="translate(1.94 80.508)"><path class="c" d="M448.3,333.2a18,18,0,0,1-.733-5.787,18.007,18.007,0,0,1,.733,5.787Z" transform="translate(-447.494 -327.411)"/></g><g transform="translate(64.194 0.801)"><path class="e" d="M600.218,307.161a1.074,1.074,0,0,1-.057-.224c-.033-.169-.077-.387-.132-.666q-.17-.92-.478-2.6c-.407-2.3-1-5.639-1.742-9.859l.153.11-13.8,2.212-.178.028-.03-.18c-1.385-8.29-3.052-18.269-4.883-29.226l.278.183-18.831,4.378-9.593,2.225-.227.053-.055-.225c-2.037-8.288-3.932-16.141-5.357-23.382l.243.17L517.52,254.46l-.142.022-.017-.141c-.541-4.488-.969-8.043-1.266-10.5-.136-1.2-.242-2.131-.316-2.786-.031-.3-.055-.537-.072-.717a1.152,1.152,0,0,1-.012-.245,1.2,1.2,0,0,1,.049.24l.11.712.388,2.777c.326,2.455.8,6,1.393,10.486l-.158-.119,27.991-4.454.2-.032.04.2c1.442,7.215,3.353,15.068,5.4,23.348l-.282-.173,9.592-2.228,18.834-4.363.239-.056.039.238c1.8,10.967,3.431,20.955,4.79,29.252l-.208-.152,13.81-2.117.132-.02.021.131c.693,4.231,1.24,7.572,1.618,9.881q.264,1.688.409,2.613c.04.282.072.5.1.673A1.158,1.158,0,0,1,600.218,307.161Z" transform="translate(-515.693 -240.091)"/></g><g transform="translate(88.655 48.807)"><path class="a" d="M605.635,292.685a1.133,1.133,0,0,1-.253.095l-.755.233c-.657.22-1.659.437-2.892.9a59.122,59.122,0,0,0-10.153,4.514,70.8,70.8,0,0,0-13.311,9.681,91.661,91.661,0,0,0-13.221,15.222,137.253,137.253,0,0,0-10.131,17.485c-2.739,5.585-4.94,10.742-6.729,15.1s-3.179,7.9-4.15,10.35l-1.126,2.816-.3.728a1.2,1.2,0,0,1-.119.242,1.173,1.173,0,0,1,.073-.259l.26-.746,1.042-2.847c.918-2.469,2.261-6.036,4.011-10.411s3.924-9.552,6.648-15.161a134.088,134.088,0,0,1,10.134-17.563,90.518,90.518,0,0,1,13.317-15.276,69.721,69.721,0,0,1,13.443-9.651,56.1,56.1,0,0,1,10.258-4.4c1.247-.433,2.259-.622,2.926-.812l.767-.187A1.112,1.112,0,0,1,605.635,292.685Z" transform="translate(-542.49 -292.683)"/></g></g><g transform="translate(0 23.776)"><g transform="translate(1.477)"><g transform="translate(8.572 116.532)"><path class="a" d="M121.334,418.148a.971.971,0,0,1-.939-.726L87.941,293.732a.972.972,0,1,1,1.88-.494l32.454,123.69a.971.971,0,0,1-.694,1.188A.926.926,0,0,1,121.334,418.148Z" transform="translate(-87.909 -292.513)"/></g><g transform="translate(0 119.592)"><path class="a" d="M111.943,421.5a.97.97,0,0,1-.939-.726L78.55,297.085a.972.972,0,1,1,1.88-.494l32.454,123.691a.972.972,0,0,1-.694,1.188A.927.927,0,0,1,111.943,421.5Z" transform="translate(-78.518 -295.865)"/></g><g transform="translate(2.367 2.135)"><path class="a" d="M82.671,280.5l-1.56-1.161,83.332-112.147,76.013,14.564-.366,1.91-74.815-14.334Z" transform="translate(-81.11 -167.191)"/></g><g transform="translate(9.56 5.675)"><g transform="translate(0)"><rect class="a" width="137.752" height="1.945" transform="matrix(0.595, -0.804, 0.804, 0.595, 0, 110.708)"/></g></g><g transform="translate(83.328)"><path class="c" d="M170.1,172.138a5.511,5.511,0,1,0,3.443-6.991A5.511,5.511,0,0,0,170.1,172.138Z" transform="translate(-169.804 -164.852)"/></g><g transform="translate(134.205 2.067)"><g transform="translate(22.552)"><path class="c" d="M251.607,175.479l-1.362-7.922,5.867-.441.424,7.652Z" transform="translate(-250.245 -167.116)"/></g><g class="f" transform="translate(22.552)"><path d="M251.607,175.479l-1.362-7.922,5.867-.441.424,7.652Z" transform="translate(-250.245 -167.116)"/></g><g transform="translate(0 5.81)"><path class="c" d="M244.654,175.487l-5.419,29.394-13.7,38.841,77.172-11.131-31.145-33.9-13-25.207-13.907,2.006" transform="translate(-225.539 -173.481)"/></g></g></g><g transform="translate(0 112.605)"><path class="c" d="M76.9,294.334a6.123,6.123,0,1,0,6.123-6.123A6.123,6.123,0,0,0,76.9,294.334Z" transform="translate(-76.899 -288.211)"/></g><g transform="translate(18.982 241.195)"><path class="c" d="M97.756,454.8c-.02-.409-.062-.812-.062-1.225a24.493,24.493,0,0,1,48.987,0c0,.414-.041.816-.062,1.225Z" transform="translate(-97.694 -429.082)"/></g></g><g transform="translate(144.225)"><g transform="translate(0 237.733)"><path class="g" d="M244.05,447.213c-.3.06-1.582,1.365.252,3.439s12.891,7.74,14.934,4.352-2.884-5.741-2.884-5.741Z" transform="translate(-235.634 -403.425)"/><g transform="translate(0 6.158)"><path class="g" d="M255.462,439.965s11.411-1.261,16.067-.664c5.054.648,10.407-1.905,13.586-5.389a18.226,18.226,0,0,0,4.01-8.066l7.261-5.081s.784-17.261-10.723-14.472l-13.449.471s-26.456,4.383-30.554,7.679c0,0-4.984,4.842-6.435,6.719-.547.707-1.018,7.82,4.037,10.246,0,0-2.979,3.813-.354,5.961l1.236.937s-1.708,3.8-.1,4.89,14.3,4.942,17.909,2.432-.571-5.408-2.487-5.662" transform="translate(-234.898 -405.989)"/></g><g transform="translate(5.216 30.9)"><path class="h" d="M241.739,433.1a10.483,10.483,0,0,1,1.494.161c.958.123,2.344.292,4.063.417.86.063,1.8.11,2.814.133s2.1-.014,3.256.078A6.749,6.749,0,0,1,256.858,435a3.872,3.872,0,0,1,1.706,3.519,3.016,3.016,0,0,1-1.02,1.806,5.309,5.309,0,0,1-1.726.959,15.771,15.771,0,0,1-3.575.66,32.1,32.1,0,0,1-6.1-.118c-1.725-.181-3.107-.412-4.061-.573a8.781,8.781,0,0,1-1.471-.309,9.393,9.393,0,0,1,1.5.126c.961.1,2.348.285,4.066.421a34.143,34.143,0,0,0,6.027.016,15.738,15.738,0,0,0,3.458-.663,4.865,4.865,0,0,0,1.57-.875,2.544,2.544,0,0,0,.863-1.523,3.429,3.429,0,0,0-1.513-3.073,6.385,6.385,0,0,0-3.251-1.045c-1.12-.1-2.21-.071-3.23-.12s-1.967-.108-2.831-.192c-1.725-.169-3.112-.39-4.063-.57A8.025,8.025,0,0,1,241.739,433.1Z" transform="translate(-240.613 -433.093)"/></g><g transform="translate(4.752 22.653)"><path class="h" d="M240.769,424.067a10.246,10.246,0,0,1,1.488.168c.953.126,2.333.309,4.044.456s3.753.264,6.022.264a7.926,7.926,0,0,1,3.6.54,2.878,2.878,0,0,1,1.372,1.468,3.648,3.648,0,0,1,.188,2.044,4.886,4.886,0,0,1-2.307,3.163,7.891,7.891,0,0,1-3.464,1.128,34.873,34.873,0,0,1-6.072-.282l-4.057-.412a9.126,9.126,0,0,1-1.482-.215,8.983,8.983,0,0,1,1.5.031l4.07.262a37.841,37.841,0,0,0,6,.18,7.508,7.508,0,0,0,3.261-1.084,4.451,4.451,0,0,0,2.089-2.855,2.69,2.69,0,0,0-1.307-3.014,7.675,7.675,0,0,0-3.39-.516,60.137,60.137,0,0,1-6.053-.367c-1.715-.192-3.094-.424-4.04-.608A8.152,8.152,0,0,1,240.769,424.067Z" transform="translate(-240.104 -424.059)"/></g><g transform="translate(9.162 19.479)"><path class="h" d="M247.078,424.771a84.888,84.888,0,0,0-2.131-4.182c.089-.087.909.657,1.518,1.86A3.961,3.961,0,0,1,247.078,424.771Z" transform="translate(-244.935 -420.582)"/></g><g transform="translate(3.308)"><path class="g" d="M281.443,406.42l-10.788-1.436s-30.491-6.215-30.788-5.412-1.8,1.085-.674,4.35,18.723,6.17,19.506,7.207,1.346,7.1,8.254,9.873,11.188,1.847,11.188,1.847" transform="translate(-238.545 -399.265)"/><path class="h" d="M278.119,422.827a.751.751,0,0,1-.233.064c-.156.03-.39.068-.7.1a15.823,15.823,0,0,1-2.712,0,25.56,25.56,0,0,1-9.53-2.809,12.23,12.23,0,0,1-4.751-4.965,27.733,27.733,0,0,1-1.468-3.547,2.217,2.217,0,0,0-.2-.4.823.823,0,0,0-.322-.2,9.258,9.258,0,0,0-.926-.326c-.641-.2-1.3-.372-1.971-.548-2.682-.7-5.521-1.37-8.426-2.225-1.452-.427-2.924-.9-4.383-1.487a14.965,14.965,0,0,1-2.145-1.063,5.069,5.069,0,0,1-.981-.771,2.118,2.118,0,0,1-.375-.561,4.931,4.931,0,0,1-.2-.593,4.463,4.463,0,0,1-.15-2.487,2.906,2.906,0,0,1,.662-1.083,1.737,1.737,0,0,0,.3-.418c.023-.035-.021.016.072-.118a.3.3,0,0,1,.178-.107.912.912,0,0,1,.2-.032c.11,0,.215-.005.317,0,1.595.1,3.1.372,4.6.605,2.984.492,5.85,1.025,8.579,1.54,5.455,1.036,10.356,2.025,14.468,2.871,1.028.2,2.009.435,2.931.59l2.643.37,4.233.6,2.673.4.694.117a.886.886,0,0,1,.235.056.947.947,0,0,1-.241-.008l-.7-.069-2.686-.312-4.247-.525-2.652-.334c-.945-.146-1.913-.364-2.947-.558l-14.484-2.77c-2.728-.5-5.595-1.026-8.572-1.512-1.484-.228-3.016-.5-4.536-.592-.094,0-.184,0-.269,0a.553.553,0,0,0-.092.012c-.009-.015.009.034-.023-.033-.051-.079-.012-.075-.045-.11a.086.086,0,0,0-.04-.025c.361.136.095.049.173.086l-.019.041a2.159,2.159,0,0,1-.375.539,2.424,2.424,0,0,0-.568.915,4.036,4.036,0,0,0,.152,2.213,2.1,2.1,0,0,0,.473.964,4.588,4.588,0,0,0,.885.693,14.434,14.434,0,0,0,2.072,1.026c1.433.581,2.892,1.051,4.336,1.479,2.888.855,5.719,1.537,8.405,2.247.672.179,1.335.359,1.986.562a9.662,9.662,0,0,1,.971.348,1.179,1.179,0,0,1,.493.346,2.453,2.453,0,0,1,.241.483,27.954,27.954,0,0,0,1.431,3.524,11.923,11.923,0,0,0,4.574,4.859,23.387,23.387,0,0,0,5.2,2.094,24.2,24.2,0,0,0,4.173.82,18.171,18.171,0,0,0,2.688.089c.308-.013.541-.035.7-.049A1.153,1.153,0,0,1,278.119,422.827Z" transform="translate(-238.523 -399.243)"/></g><g transform="translate(6.338 39.573)"><path class="h" d="M252.745,442.617a3.527,3.527,0,0,1,1.123.054,10.641,10.641,0,0,1,2.944.874,9.637,9.637,0,0,1,1.842,1.091A3.234,3.234,0,0,1,260,446.753a2.632,2.632,0,0,1-1.354,2.414,5.077,5.077,0,0,1-2.895.6,54.286,54.286,0,0,1-9.967-1.468,30.272,30.272,0,0,1-2.919-.9,4.7,4.7,0,0,1-1.028-.447,5.579,5.579,0,0,1,1.085.271c.689.2,1.691.468,2.94.748a65.035,65.035,0,0,0,9.9,1.319,4.67,4.67,0,0,0,2.633-.519,2.2,2.2,0,0,0,1.163-1.977,2.865,2.865,0,0,0-1.163-1.851,9.731,9.731,0,0,0-1.739-1.094A16.032,16.032,0,0,0,252.745,442.617Z" transform="translate(-241.842 -442.595)"/></g></g><g transform="translate(46.169 111.715)"><path class="b" d="M335.918,364.483s13.52-22.255,16.559-36.943,18.74-37.987,23.805-44.065,25.324-13.169,25.324-13.169l7.471-4.028,57.866-5.088s38.493,4.052,50.142,14.688,20.767,34.947,20.767,47.1,11.763,117.425,11.763,117.425l-142.6-.189,3.2-51.9S393,376.669,388.438,366.54s-2.026-5.065-2.026-5.065-16.166,34.368-21.737,38.419-70.328,23.926-70.328,23.926l-8.869-33.985Z" transform="translate(-285.477 -261.19)"/></g><g transform="translate(172.246 129.777)"><path class="b" d="M516.314,281.847c-1.563.485-20.874,50.37-22.235,54.909s0,33.126,0,33.126l6.353,11.8s-1.816,8.623-.454,12.706l-28.59,5.445s-7.261-4.991-14.067,0l-33.727,2.852s9.9.114,6.953,15.3c-2.889,14.877-5.084,18.15-5.084,18.15L544,433.426s13.167-.651,11.159-25.974-7.658-95.168-7.658-95.168S538.855,274.856,516.314,281.847Z" transform="translate(-423.595 -280.977)"/></g><g transform="translate(235.308 149.684)"><path class="a" d="M499.834,367.794a3.562,3.562,0,0,1-.281-.613l-.718-1.8c-.314-.78-.686-1.74-1.051-2.877s-.847-2.411-1.235-3.864c-.42-1.444-.881-3.026-1.264-4.754-.443-1.713-.784-3.573-1.157-5.526a93.935,93.935,0,0,1-1-25.792c.236-1.976.425-3.858.745-5.6.15-.872.267-1.719.43-2.523s.331-1.573.487-2.31c.284-1.477.665-2.785.959-3.942s.588-2.143.852-2.942c.247-.763.446-1.375.6-1.84a3.525,3.525,0,0,1,.239-.631,3.622,3.622,0,0,1-.148.66c-.129.471-.3,1.09-.511,1.863-.236.805-.51,1.794-.771,2.956s-.626,2.469-.888,3.946q-.218,1.1-.456,2.307c-.153.8-.26,1.648-.4,2.518-.3,1.736-.476,3.611-.7,5.579a97.609,97.609,0,0,0,.992,25.675c.36,1.947.686,3.8,1.11,5.512.365,1.724.806,3.305,1.2,4.75.366,1.454.818,2.734,1.164,3.873s.686,2.109.972,2.9l.634,1.826A3.71,3.71,0,0,1,499.834,367.794Z" transform="translate(-492.68 -302.785)"/></g><g transform="translate(247.442 243.708)"><path class="i" d="M542.234,430.873a1.688,1.688,0,0,1-.3-.348l-.793-1.048c-.334-.461-.75-1.021-1.268-1.643s-1.065-1.364-1.753-2.116c-.666-.77-1.4-1.608-2.243-2.458-.811-.881-1.751-1.748-2.722-2.677a62.248,62.248,0,0,0-14.345-9.921c-1.213-.581-2.356-1.155-3.466-1.6-1.093-.489-2.137-.88-3.092-1.232-.947-.378-1.831-.634-2.6-.894s-1.436-.456-1.985-.607l-1.261-.372a1.687,1.687,0,0,1-.432-.161,1.631,1.631,0,0,1,.455.068l1.285.287c.559.123,1.239.29,2.015.532s1.675.471,2.633.831c.969.334,2.026.709,3.132,1.186,1.125.435,2.282,1,3.509,1.573a59.2,59.2,0,0,1,14.447,9.993c.97.946,1.907,1.829,2.71,2.728.836.867,1.56,1.724,2.214,2.512.675.77,1.211,1.526,1.707,2.171s.9,1.219,1.208,1.7l.722,1.1A1.678,1.678,0,0,1,542.234,430.873Z" transform="translate(-505.972 -405.788)"/></g><g transform="translate(268.178 252.119)"><path class="i" d="M554.194,425.024c-.068.064-1.118-1.133-3.094-2.742a31.457,31.457,0,0,0-3.663-2.556,31.216,31.216,0,0,0-10.176-3.86,31.611,31.611,0,0,0-4.437-.517c-2.547-.107-4.125.093-4.134,0a5.113,5.113,0,0,1,1.1-.187,11.511,11.511,0,0,1,1.306-.111c.51-.018,1.094-.068,1.737-.036a28.179,28.179,0,0,1,4.506.422,29.42,29.42,0,0,1,10.324,3.916,28.239,28.239,0,0,1,3.652,2.673c.5.4.906.827,1.275,1.18a11.616,11.616,0,0,1,.9.949A5.036,5.036,0,0,1,554.194,425.024Z" transform="translate(-528.689 -415.003)"/></g><g transform="translate(252.804 239.794)"><path class="i" d="M541.767,407.165c-.06.085-1.458-1.027-4.012-2.289a21.469,21.469,0,0,0-2.131-.93c-.769-.331-1.629-.576-2.525-.861a28.981,28.981,0,0,0-12.108-.829c-.926.16-1.811.285-2.619.508a21.656,21.656,0,0,0-2.238.632c-2.7.9-4.238,1.814-4.287,1.721a6.209,6.209,0,0,1,1.066-.65,10.839,10.839,0,0,1,1.312-.654,17.9,17.9,0,0,1,1.8-.734,20.15,20.15,0,0,1,2.253-.7,26.348,26.348,0,0,1,2.65-.559,27.9,27.9,0,0,1,12.295.842,26.507,26.507,0,0,1,2.549.916,20.076,20.076,0,0,1,2.136,1,17.753,17.753,0,0,1,1.682.972,10.882,10.882,0,0,1,1.21.827A6.143,6.143,0,0,1,541.767,407.165Z" transform="translate(-511.846 -401.501)"/></g><g transform="translate(204.801 250.156)"><path class="i" d="M467.858,445.568a42.235,42.235,0,0,0,.843-5.079,33.217,33.217,0,0,0-.045-5.574,44.462,44.462,0,0,0-1.192-6.725,45.9,45.9,0,0,0-2.273-6.444,34.284,34.284,0,0,0-2.713-4.871,46.461,46.461,0,0,0-3.216-4.022,7.815,7.815,0,0,1,1.044.922,10.786,10.786,0,0,1,1.114,1.2l.664.78c.221.287.435.6.671.93a31.766,31.766,0,0,1,2.834,4.88,43,43,0,0,1,2.334,6.5,41.863,41.863,0,0,1,1.169,6.809,30.859,30.859,0,0,1-.057,5.642q-.067.594-.127,1.14l-.2,1a11.148,11.148,0,0,1-.385,1.591A7.743,7.743,0,0,1,467.858,445.568Z" transform="translate(-459.259 -412.853)"/></g><g transform="translate(185.929 144.766)"><path class="i" d="M446.183,401.244a1.135,1.135,0,0,1-.058-.263c-.032-.2-.073-.459-.124-.78l-.431-3.005c-.37-2.611-.857-6.394-1.419-11.075-1.125-9.361-2.465-22.32-3.514-36.669s-1.6-27.372-1.84-36.8c-.124-4.713-.19-8.528-.2-11.164,0-1.292-.006-2.308-.009-3.035l.01-.79a1.141,1.141,0,0,1,.019-.269,1.129,1.129,0,0,1,.029.268c.01.2.022.465.037.789.024.728.057,1.743.1,3.034.085,2.668.205,6.471.354,11.156.33,9.418.937,22.427,1.978,36.773s2.335,27.3,3.375,36.665c.532,4.657.965,8.437,1.268,11.09.146,1.283.26,2.293.342,3.017l.078.786A1.135,1.135,0,0,1,446.183,401.244Z" transform="translate(-438.584 -297.397)"/></g><g transform="translate(130.116 177.751)"><path class="i" d="M394.291,368.436a9.254,9.254,0,0,1-.621-1.395c-.363-.911-.908-2.222-1.595-3.834-1.373-3.226-3.418-7.615-5.859-12.377L379.9,338.658c-.794-1.565-1.428-2.837-1.847-3.725a9.347,9.347,0,0,1-.612-1.4,9.442,9.442,0,0,1,.776,1.315l1.98,3.653c1.662,3.09,3.993,7.343,6.44,12.112s4.45,9.2,5.746,12.465c.648,1.633,1.147,2.965,1.458,3.9A9.584,9.584,0,0,1,394.291,368.436Z" transform="translate(-377.441 -333.533)"/></g><g transform="translate(120.7 186.386)"><path class="i" d="M386.1,352.394a2.893,2.893,0,0,1-.826-.159c-.525-.129-1.275-.349-2.193-.648a54.036,54.036,0,0,1-13.488-6.679c-.794-.549-1.424-1.012-1.844-1.351s-.646-.535-.627-.561a28.141,28.141,0,0,1,2.655,1.631c1.627,1.021,3.914,2.366,6.538,3.667s5.08,2.3,6.877,2.977A28.2,28.2,0,0,1,386.1,352.394Z" transform="translate(-367.126 -342.992)"/></g><g transform="translate(100.538 216.868)"><path class="i" d="M371.939,386.48a5.294,5.294,0,0,1-.98-.6c-.607-.414-1.5-.991-2.623-1.673a54.079,54.079,0,0,0-19.088-7.147c-1.293-.223-2.348-.375-3.078-.462a5.314,5.314,0,0,1-1.131-.194,5.419,5.419,0,0,1,1.148.009c.738.03,1.8.133,3.113.314a47.729,47.729,0,0,1,19.214,7.195c1.106.723,1.977,1.345,2.553,1.808A5.371,5.371,0,0,1,371.939,386.48Z" transform="translate(-345.038 -376.386)"/></g><g transform="translate(185.962 111.795)"><path class="i" d="M478.79,261.277a4.291,4.291,0,0,1-.052.742q-.09.791-.242,2.118c-.237,1.835-.566,4.494-1.124,7.758a99.352,99.352,0,0,1-2.557,11.352,53.06,53.06,0,0,1-5.741,13.038,40.491,40.491,0,0,1-4.758,6.1l-.186.2-.169-.225a24.115,24.115,0,0,0-8.664-7.187,23.629,23.629,0,0,0-4.56-1.681,20.74,20.74,0,0,0-4.153-.558,17.2,17.2,0,0,0-5.92.833c-1.327.464-2.024.81-2.044.766a2.844,2.844,0,0,1,.5-.266,12.786,12.786,0,0,1,1.493-.654,16.563,16.563,0,0,1,5.979-.98,20.609,20.609,0,0,1,4.23.51,23.609,23.609,0,0,1,4.654,1.665,24.289,24.289,0,0,1,8.862,7.274l-.355-.024a40.587,40.587,0,0,0,4.691-6.028,53.66,53.66,0,0,0,5.722-12.91,105.429,105.429,0,0,0,2.645-11.284c.6-3.25.978-5.9,1.271-7.725.139-.88.248-1.58.331-2.1A4.325,4.325,0,0,1,478.79,261.277Z" transform="translate(-438.621 -261.277)"/></g><g transform="translate(177.509 100.715)"><path class="b" d="M478.76,260.793l-8.793-11.654-9.554.3-31.054,16.4Z" transform="translate(-429.36 -249.139)"/></g><g transform="translate(164.279 120.1)"><path class="i" d="M436.55,295.326a2.025,2.025,0,0,1-.5-.011,10.328,10.328,0,0,1-1.43-.236,17.836,17.836,0,0,1-4.9-2.095,10.533,10.533,0,0,0-3.335-1.382,9.792,9.792,0,0,0-4.119-.006,9.633,9.633,0,0,0-6.893,5.994l-.5,1.338.038-1.429c.01-.353.02-.734.03-1.116.112-7.188.118-13.712.412-18.425.131-2.357.32-4.261.514-5.568.086-.655.186-1.159.258-1.5a2.242,2.242,0,0,1,.132-.514c.046.008-.083.726-.207,2.036s-.274,3.209-.362,5.562c-.208,4.707-.16,11.217-.273,18.42-.01.384-.02.767-.03,1.122l-.46-.091a10.015,10.015,0,0,1,7.25-6.251,10.222,10.222,0,0,1,7.706,1.525,19.111,19.111,0,0,0,4.783,2.206C435.86,295.239,436.556,295.279,436.55,295.326Z" transform="translate(-414.867 -270.376)"/></g><g transform="translate(128.96)"><g transform="translate(16.625 7.873)"><path class="g" d="M466.919,183.822v69.983a16.961,16.961,0,0,1-3.989,10.926h0a51.261,51.261,0,0,1-14.053,11.641l-14.117,7.95L423.083,273.9a16.987,16.987,0,0,1-5.653-12c-.2-5.1-.2-10.235-.2-10.235s-19.785-1.42-21.642-20.929c-.875-9.187-1.151-28-1.2-45.339a37.95,37.95,0,0,1,34.828-37.91l.558-.047A36.268,36.268,0,0,1,466.919,183.822Z" transform="translate(-394.388 -147.43)"/><g transform="translate(22.786 94.614)"><path class="h" d="M419.35,260.423s12.425-.017,24.862-9.343c0,0-4.855,14.553-24.488,14.407Z" transform="translate(-419.35 -251.08)"/></g></g><g transform="translate(21.555 37.362)"><g transform="translate(0 11.06)"><g transform="translate(0 1.882)"><g transform="translate(1.642 5.893)"><path class="a" d="M401.59,203.126a2.8,2.8,0,0,0,2.923,2.591,2.677,2.677,0,0,0,2.666-2.752,2.8,2.8,0,0,0-2.919-2.593A2.68,2.68,0,0,0,401.59,203.126Z" transform="translate(-401.587 -200.37)"/></g><path class="a" d="M399.845,197.322c.375.335,2.359-1.4,5.361-1.644,2.995-.284,5.325,1.078,5.62.684.147-.176-.26-.8-1.276-1.422a7.676,7.676,0,0,0-4.537-1,7.371,7.371,0,0,0-4.23,1.762C399.919,196.49,399.66,197.174,399.845,197.322Z" transform="translate(-399.788 -193.914)"/></g><g transform="translate(29.547)"><g transform="translate(0.649 6.566)"><path class="a" d="M432.872,201.8a2.8,2.8,0,0,0,2.923,2.591,2.676,2.676,0,0,0,2.666-2.752,2.8,2.8,0,0,0-2.92-2.593A2.679,2.679,0,0,0,432.872,201.8Z" transform="translate(-432.869 -199.045)"/></g><path class="a" d="M432.213,195.26c.376.335,2.362-1.4,5.362-1.644,2.994-.283,5.325,1.079,5.62.684.146-.175-.257-.8-1.277-1.421a7.672,7.672,0,0,0-4.537-1,7.376,7.376,0,0,0-4.23,1.763C432.289,194.428,432.03,195.112,432.213,195.26Z" transform="translate(-432.157 -191.852)"/></g><g transform="translate(12.716 1.448)"><path class="a" d="M421.556,218.557c0-.172-1.892-.34-4.947-.476-.772-.016-1.511-.109-1.683-.621a3.917,3.917,0,0,1,.324-2.314l1.783-6.023c2.46-8.569,4.173-15.589,3.827-15.685s-2.62,6.771-5.08,15.34q-.882,3.167-1.685,6.05a4.453,4.453,0,0,0-.148,3.041,1.926,1.926,0,0,0,1.353,1.016,5.224,5.224,0,0,0,1.316.074C419.67,218.871,421.558,218.729,421.556,218.557Z" transform="translate(-413.719 -193.438)"/></g><g transform="translate(20.651 27.911)"><path class="a" d="M431.317,222.43c-.49.012-.227,3.27-2.824,5.813s-6.094,2.472-6.081,2.929c-.028.208.825.569,2.294.487a8.138,8.138,0,0,0,5.093-2.26,7.091,7.091,0,0,0,2.159-4.857C431.969,223.169,431.538,222.392,431.317,222.43Z" transform="translate(-422.411 -222.429)"/></g></g><g transform="translate(27.828)"><path class="a" d="M430.3,182.507c.364.791,3.328.157,6.884.289,3.559.062,6.484.857,6.89.087.18-.367-.379-1.094-1.593-1.789a11.974,11.974,0,0,0-10.494-.287C430.739,181.436,430.141,182.13,430.3,182.507Z" transform="translate(-430.274 -179.735)"/></g><g transform="translate(0.339 4.006)"><path class="a" d="M400.261,187.692c.584.637,2.593-.241,5.076-.48,2.475-.326,4.629.078,5.055-.676.184-.363-.2-1.019-1.178-1.588a7.383,7.383,0,0,0-8.163.931C400.231,186.653,400,187.378,400.261,187.692Z" transform="translate(-400.16 -184.124)"/></g></g><g transform="translate(66.18 11.646)"><path class="a" d="M448.676,164.522l.113.076a15.416,15.416,0,0,1,6.533,9.461c.03.137.059.267.087.39,1.225,5.507,1.556,11.185,2.834,16.68s1.042,9.693,6.546,10.932a7.328,7.328,0,0,0,7.664-3.114,4.781,4.781,0,0,0,.485-2.61c-.073-13.536,2.65-18.793,1.461-32.855a11.9,11.9,0,0,0-5.719-9.243c-3.12-1.867-6.9-3.757-10.04-1.938s-6.876,8.3-9.2,11.1" transform="translate(-448.676 -151.564)"/></g><g transform="translate(83.303 52.629)"><path class="g" d="M467.434,197.478c.321-.172,13.091-5.08,13.769,8.308s-12.9,11.306-12.944,10.924S467.434,197.478,467.434,197.478Z" transform="translate(-467.434 -196.46)"/><g transform="translate(4.646 4.248)"><path class="h" d="M472.535,211.836c.057-.046.242.152.644.312a2.337,2.337,0,0,0,1.745-.053c1.388-.591,2.465-2.9,2.407-5.313a7.709,7.709,0,0,0-.822-3.305,2.7,2.7,0,0,0-1.845-1.7,1.19,1.19,0,0,0-1.345.709c-.16.383-.061.646-.131.673-.036.036-.3-.21-.219-.768a1.5,1.5,0,0,1,.485-.866,1.765,1.765,0,0,1,1.272-.406,3.282,3.282,0,0,1,2.541,1.953,7.926,7.926,0,0,1,1,3.691c.05,2.7-1.2,5.3-3.109,5.953a2.5,2.5,0,0,1-2.151-.246C472.575,212.158,472.489,211.863,472.535,211.836Z" transform="translate(-472.524 -201.114)"/></g></g><path class="a" d="M452.941,153.218c2.844-5.613-6.8-12.538-13.558-14.069s-15.176,2.4-21.554,5.116c-4.025,1.714-7.989,3.971-12.361,4.151-2.93.121-5.806-.709-8.642-1.456s-5.781-1.419-8.681-.979-5.775,2.24-6.658,5.037,1.01,6.373,3.939,6.537c-3.863-1.725-8.988,1.386-9.242,5.608s4.455,7.928,8.5,6.686c-2.018-1.282-4.732,1.336-4.3,3.688s2.723,3.9,4.983,4.675c5.77,1.984,12.2.666,17.8-1.75s10.7-5.88,16.238-8.436,14.8-7.084,20.7-5.537c4.346,1.139,7.705,5.982,10,4.662a8.191,8.191,0,0,0,3.729-6.353,23.729,23.729,0,0,0-.892-7.58" transform="translate(-376.175 -138.805)"/><g transform="translate(7.604 3.744)"><path class="b" d="M384.511,157.677c.106-.076.77.931,2.333,2.371a18.47,18.47,0,0,0,7.814,4.162,16.974,16.974,0,0,0,12.69-1.569c4.373-2.408,7.921-6.8,12.077-11.008,4.141-4.238,9.173-7.538,14.41-8.451,5.2-.933,10.211.59,13.134,3.365a11.694,11.694,0,0,1,3.743,8.38,9.119,9.119,0,0,1-.372,2.5c-.2.545-.327.816-.369.8a21.8,21.8,0,0,0,.226-3.287,11.525,11.525,0,0,0-3.858-7.7c-2.761-2.466-7.429-3.793-12.285-2.858-4.882.917-9.649,4.048-13.694,8.187-4.079,4.113-7.738,8.625-12.423,11.139a18.218,18.218,0,0,1-21.453-3.291,12.451,12.451,0,0,1-1.564-1.965C384.614,157.968,384.473,157.7,384.511,157.677Z" transform="translate(-384.505 -142.907)"/></g><g transform="translate(74.107 18.51)"><path class="b" d="M469.908,193.356c-.046.049-.606-.319-1.2-1.338a9.011,9.011,0,0,1-1.066-4.784c-.06-4.327,3.361-9.258,3.353-15.241a13.469,13.469,0,0,0-2.137-7.848,10.233,10.233,0,0,0-5.317-3.875,8.713,8.713,0,0,0-4.508-.237c-1.058.259-1.615.557-1.672.455-.036-.052.434-.511,1.524-.948a8.339,8.339,0,0,1,4.906-.171,10.8,10.8,0,0,1,6.062,4.073,14.21,14.21,0,0,1,2.465,8.567,24.4,24.4,0,0,1-1.879,8.628,25.407,25.407,0,0,0-1.864,6.649A10.334,10.334,0,0,0,469.908,193.356Z" transform="translate(-457.36 -159.083)"/></g></g><g transform="translate(208.984 57.452)"><rect class="a" width="6.87" height="15.909" rx="2.138" transform="matrix(0.734, 0.68, -0.68, 0.734, 10.812, 0)"/></g><g transform="translate(170.359 176.511)"><path class="i" d="M549.81,332.174s.024.179.052.531.067.886.119,1.573c.1,1.4.242,3.45.429,6.121.362,5.366.89,13.2,1.559,23.141s1.454,21.988,2.364,35.744q.34,5.159.7,10.633c.136,1.821.2,3.681.288,5.563a27.632,27.632,0,0,1-.023,2.843,28.236,28.236,0,0,1-.162,2.877q-.177,1.44-.355,2.9-.31,1.438-.621,2.894c-.275.954-.6,1.9-.9,2.86-.419.914-.769,1.869-1.261,2.759-1.911,3.555-4.9,6.876-9.049,8.246l-.018.006H542.9l-89.3-.019-28.318-.016h-.31l.083-.3q1.3-4.623,2.571-9.171.638-2.274,1.27-4.528a31.931,31.931,0,0,0,1.058-4.5,19.607,19.607,0,0,0-.786-8.968,11.114,11.114,0,0,0-2.131-3.852,6.3,6.3,0,0,0-3.639-2.139l-1.871-.291,1.869-.158,33.728-2.833-.1.039a11.517,11.517,0,0,1,7.265-2.233,14.555,14.555,0,0,1,7.036,2.238l-.148-.031,28.594-5.418-.128.218a12.243,12.243,0,0,1-.492-3.361,29.073,29.073,0,0,1,.09-3.266,52.357,52.357,0,0,1,.867-6.163l.015.1-6.334-11.809-.015-.026v-.029c-.449-10.522-.606-18.818-.531-24.48.031-2.831.139-5,.29-6.462a11.353,11.353,0,0,1,.243-1.644c.079-.364.128-.546.128-.546s-.026.189-.093.554a12.631,12.631,0,0,0-.207,1.642c-.128,1.457-.214,3.628-.223,6.457-.031,5.658.166,13.95.653,24.466l-.016-.056c1.95,3.607,4.063,7.516,6.372,11.789l.026.047-.011.055a52.506,52.506,0,0,0-.845,6.126,29.151,29.151,0,0,0-.081,3.23,11.96,11.96,0,0,0,.484,3.265l.059.183-.187.036-28.583,5.473-.075.015-.073-.046a14.187,14.187,0,0,0-6.83-2.158,11.1,11.1,0,0,0-7,2.163l-.048.035-.057,0-33.725,2.87,0-.449a6.7,6.7,0,0,1,3.944,2.285,11.556,11.556,0,0,1,2.227,4.008,20.051,20.051,0,0,1,.811,9.179,32.415,32.415,0,0,1-1.067,4.564l-1.268,4.529-2.568,9.172-.226-.3,28.318.011,89.3.069-.05.005a13.605,13.605,0,0,0,5.179-3.195,19.348,19.348,0,0,0,3.607-4.829c.486-.874.83-1.814,1.243-2.711.3-.946.62-1.878.893-2.818q.309-1.438.617-2.858.179-1.445.356-2.871a59.4,59.4,0,0,0,.194-5.676c-.081-1.869-.145-3.714-.278-5.54q-.349-5.474-.678-10.637c-.872-13.76-1.635-25.805-2.266-35.753s-1.105-17.782-1.44-23.15c-.159-2.673-.28-4.728-.363-6.126q-.056-1.031-.085-1.574C549.81,332.355,549.81,332.174,549.81,332.174Z" transform="translate(-421.527 -332.174)"/></g><g transform="translate(246.057 126.77)"><path class="i" d="M531.19,277.685c.019.037-.578.367-1.626,1.01a37.958,37.958,0,0,0-4.225,3.026A49.642,49.642,0,0,0,514.4,294.811a108.647,108.647,0,0,0-7.3,15.535c-.781,2-1.422,3.65-1.895,4.862l-.529,1.317a1.9,1.9,0,0,1-.215.448,1.972,1.972,0,0,1,.125-.481l.445-1.348c.4-1.167.987-2.851,1.754-4.917a97.646,97.646,0,0,1,7.209-15.659,47.584,47.584,0,0,1,11.136-13.11,32.561,32.561,0,0,1,4.341-2.924c.532-.314.974-.508,1.262-.655A1.975,1.975,0,0,1,531.19,277.685Z" transform="translate(-504.455 -277.683)"/></g><g class="f" transform="translate(218.951 161.626)"><path d="M492.871,315.867a60.475,60.475,0,0,0-5.1,27.3c.342,9.28,1.458,18.584.549,27.826s-4.121,18.674-11.014,24.9a8.973,8.973,0,0,0-2.224,2.472,2.517,2.517,0,0,0,.426,3.058,3.64,3.64,0,0,0,2.867.3c6.606-1.147,13.283-1.965,19.889-3.114,1.415-.246,6.177-1.176,6.177-1.176a25.789,25.789,0,0,1-.4-5.429c.21-1.653.856-7.277.856-7.277a9.89,9.89,0,0,0-1.265-2.35,54.165,54.165,0,0,1-5.475-14.048c-2.255-4.615-3.267-9.251-4.311-13.56-2.9-11.963-2.814-23.748-.969-38.9" transform="translate(-474.76 -315.867)"/></g><g class="f" transform="translate(164.597 141.409)"><path d="M415.318,300.312q.813,2.055,1.626,4.11a1.653,1.653,0,0,0,.79,1.037c.811.313,1.461-.687,1.846-1.466a10.554,10.554,0,0,1,8.1-5.692c2.774-.319,5.622.486,8.356-.083a37.334,37.334,0,0,0-7.539-3.753,12.554,12.554,0,0,0-8.277-.078,7.637,7.637,0,0,0-5,6.238" transform="translate(-415.215 -293.72)"/></g><g class="f" transform="translate(186.754 124.092)"><path d="M440,295.2a44.892,44.892,0,0,1,9.668.867,15.085,15.085,0,0,1,8.278,4.77c2.206,2.692,3.032,6.218,3.921,9.583.171.646.483,1.415,1.147,1.488a1.641,1.641,0,0,0,1.094-.435c5.456-4.009,9.068-10.156,11.041-16.633s2.429-13.315,2.539-20.086c-2.608,4.662-3.743,9.977-5.464,15.035s-4.267,10.153-8.739,13.073a4.381,4.381,0,0,0-1.019-3.206,9.677,9.677,0,0,0-2.66-2.174,25.368,25.368,0,0,0-20.32-2.487" transform="translate(-439.488 -274.749)"/></g><g transform="translate(105.334 243.759)"><path class="g" d="M418.036,414.145H406.86s-25.221-9.113-30.407-8.242c-4.671.784-21.771,12.144-25.121,14.392a2.125,2.125,0,0,0-.812,1.033h0a3.667,3.667,0,0,0,2.039,4.66l.354.146-.153.509a6.064,6.064,0,0,0-.256,2.041,2.465,2.465,0,0,0,4.581,1.064l-.645,1.146a2.814,2.814,0,0,0-.357,1.532l.057,1.04a2.805,2.805,0,0,0,1.932,2.512h0a2.793,2.793,0,0,0,2.936-.77c2.169-2.385,6.853-7.164,10.023-7.691A74.342,74.342,0,0,1,381.383,427a3.509,3.509,0,0,1,3.254,2.241h0c-1.881.134-14.985,6.968-19.623,9.415a4.959,4.959,0,0,0-2.7,3.732c-.17,1.451.564,2.973,3.435,2.3,6.162-1.439,17.251-6.537,17.251-6.537s5.72-1.635,9.425.98c5.212,3.677,7.6,5.026,12.077,3.542a37.867,37.867,0,0,0,7.776-3.614l8.818-.88S429.437,417.339,418.036,414.145Z" transform="translate(-350.292 -405.845)"/><g transform="translate(6.511 11.47)"><path class="h" d="M385.354,419.5c-.021.1-1.789-.471-4.738-.658a24.462,24.462,0,0,0-20.385,8.7c-1.906,2.257-2.719,3.926-2.8,3.875a5.785,5.785,0,0,1,.56-1.167,21.388,21.388,0,0,1,1.984-2.923,23.716,23.716,0,0,1,20.669-8.821,21.3,21.3,0,0,1,3.482.591A5.784,5.784,0,0,1,385.354,419.5Z" transform="translate(-357.426 -418.41)"/></g><g transform="translate(2.62 5.205)"><path class="h" d="M382.311,412.776a20.766,20.766,0,0,0-4.932-.86,21.513,21.513,0,0,0-11.471,3.249,46.2,46.2,0,0,0-9.244,7.82l-2.533,2.692a7.5,7.5,0,0,1-.968.956,7.454,7.454,0,0,1,.829-1.078c.558-.673,1.377-1.637,2.425-2.8a42.457,42.457,0,0,1,9.245-8,20.991,20.991,0,0,1,11.73-3.177,14.008,14.008,0,0,1,3.661.67,8.377,8.377,0,0,1,.944.363C382.21,412.705,382.318,412.761,382.311,412.776Z" transform="translate(-353.163 -411.547)"/></g></g></g><g transform="translate(128.561 201.457)"><path class="a" d="M248.779,449.242,218.491,373.21a9.939,9.939,0,0,1,9.2-13.708h94.359a9.938,9.938,0,0,1,9.411,6.745l26.019,76.691,30.384.146c2.468.011,4.463,3.622,4.463,6.09h0l-33.445-.385Z" transform="translate(-217.739 -359.502)"/><g transform="translate(62.391 41.878)"><path class="j" d="M298.346,411.509a6.129,6.129,0,1,1-6.129-6.129A6.129,6.129,0,0,1,298.346,411.509Z" transform="translate(-286.088 -405.38)"/></g></g><g transform="translate(3.099 290.506)"><path class="a" d="M609.581,457.293c0,.131-118.494.238-264.631.238-146.187,0-264.656-.107-264.656-.238s118.469-.237,264.656-.237C491.087,457.056,609.581,457.163,609.581,457.293Z" transform="translate(-80.294 -457.056)"/></g><g transform="translate(68.575 198.706)"><g transform="translate(3.845 3.386)"><path class="c" d="M170.316,417.5c-8.927-5.176-13.7-17.216-14.059-27.069S160,370.3,168.084,364.652c8.512-5.951,20.634-5.843,29.38-.242s13.869,16.172,13.474,26.549-6.053,20.289-14.419,26.442" transform="translate(-156.235 -360.199)"/></g><g transform="translate(29.617 4.334)"><path class="k" d="M187.024,418.546a11.767,11.767,0,0,1-.165-2.254c-.046-1.612-.1-3.675-.173-6.146-.133-5.189-.337-12.354-.684-20.264s-.775-15.068-1.1-20.248c-.148-2.468-.27-4.529-.367-6.138a11.7,11.7,0,0,1-.033-2.259,11.728,11.728,0,0,1,.358,2.232c.178,1.442.394,3.533.632,6.12.475,5.174.994,12.335,1.345,20.257s.457,15.1.438,20.293c-.008,2.6-.041,4.7-.091,6.152A11.594,11.594,0,0,1,187.024,418.546Z" transform="translate(-184.469 -361.237)"/></g><g transform="translate(0.216 30.643)"><path class="a" d="M158.551,390.806c-.019.23-1.442.3-3.179.159s-3.13-.445-3.112-.675,1.442-.3,3.18-.158S158.57,390.576,158.551,390.806Z" transform="translate(-152.26 -390.058)"/></g><g transform="translate(1.843 20.206)"><path class="a" d="M159.195,380.969c-.094.212-1.322-.129-2.743-.759s-2.5-1.313-2.4-1.524,1.321.129,2.743.759S159.288,380.758,159.195,380.969Z" transform="translate(-154.043 -378.624)"/></g><g transform="translate(6.42 11.745)"><path class="a" d="M164.181,373.6c-.12.193-1.5-.458-2.935-1.649s-2.336-2.422-2.17-2.575,1.31.782,2.7,1.931S164.307,373.4,164.181,373.6Z" transform="translate(-159.056 -369.355)"/></g><g transform="translate(13.864 4.834)"><path class="a" d="M169.467,366.747c-.211.093-.873-.94-1.477-2.309s-.924-2.554-.713-2.647.873.94,1.478,2.309S169.678,366.654,169.467,366.747Z" transform="translate(-167.212 -361.785)"/></g><g transform="translate(21.483)"><path class="a" d="M177.372,361.892c-.205.1-.918-1-1.391-2.53s-.514-2.834-.29-2.872.63,1.157,1.089,2.623S177.585,361.794,177.372,361.892Z" transform="translate(-175.558 -356.489)"/></g><g transform="translate(33.786 0.446)"><path class="a" d="M190.525,356.983c.217.077.084,1.017-.3,2.1s-.868,1.9-1.086,1.821-.085-1.017.3-2.1S190.307,356.906,190.525,356.983Z" transform="translate(-189.037 -356.978)"/></g><g transform="translate(41.019 4.231)"><path class="a" d="M200.1,361.156c.157.17-.413.952-1.272,1.748s-1.684,1.3-1.841,1.133.413-.951,1.273-1.747S199.942,360.987,200.1,361.156Z" transform="translate(-196.959 -361.123)"/></g><g transform="translate(48.391 9.265)"><path class="a" d="M208.625,366.687c.13.191-.566.888-1.553,1.556s-1.891,1.055-2.021.864.565-.888,1.553-1.557S208.5,366.5,208.625,366.687Z" transform="translate(-205.036 -366.638)"/></g><g transform="translate(52.307 16.78)"><path class="a" d="M214.552,374.936c.091.213-1,.884-2.446,1.5s-2.684.94-2.774.728,1-.884,2.446-1.5S214.462,374.724,214.552,374.936Z" transform="translate(-209.326 -374.871)"/></g><g transform="translate(54.639 24.851)"><path class="a" d="M216.961,383.919c.029.23-1.085.556-2.488.73s-2.562.129-2.591-.1,1.086-.556,2.489-.73S216.932,383.69,216.961,383.919Z" transform="translate(-211.88 -383.713)"/></g><g transform="translate(55.882 32.941)"><path class="a" d="M218.218,394.8c-.091.212-1.279-.1-2.651-.7s-2.411-1.252-2.319-1.464,1.279.1,2.652.7S218.31,394.591,218.218,394.8Z" transform="translate(-213.243 -392.575)"/></g><g transform="translate(54.355 40.239)"><path class="a" d="M217.071,404.175c-.073.211-1.575-.146-3.143-1.177s-2.5-2.256-2.34-2.407c.17-.167,1.31.742,2.8,1.706S217.156,403.952,217.071,404.175Z" transform="translate(-211.57 -400.571)"/></g><g transform="translate(51.252 47.365)"><path class="a" d="M212.258,412.754c-.138.179-1.333-.523-2.479-1.762s-1.763-2.478-1.575-2.6,1.085.852,2.187,2.033S212.4,412.569,212.258,412.754Z" transform="translate(-208.17 -408.378)"/></g><g transform="translate(6.451 52.624)"><path class="a" d="M165.087,414.183c.107.205-1.148,1.07-2.8,1.931s-3.082,1.394-3.188,1.189,1.147-1.069,2.8-1.931S164.98,413.978,165.087,414.183Z" transform="translate(-159.09 -414.139)"/></g><g transform="translate(3.684 45.46)"><path class="a" d="M160.905,406.355c.1.211-.91.873-2.246,1.478s-2.5.927-2.593.717.911-.872,2.247-1.478S160.81,406.145,160.905,406.355Z" transform="translate(-156.059 -406.29)"/></g><g transform="translate(0 39.022)"><path class="a" d="M157.673,399.413c.033.229-1.206.594-2.766.815s-2.851.215-2.884-.014,1.206-.593,2.766-.814S157.641,399.185,157.673,399.413Z" transform="translate(-152.023 -399.238)"/></g><g transform="translate(9.45 35.606)"><path class="a" d="M168.023,395.6c.068.215-1.14.779-2.751.958s-2.915-.1-2.9-.32,1.276-.334,2.8-.511S167.954,395.374,168.023,395.6Z" transform="translate(-162.376 -395.495)"/></g><g transform="translate(18.444 27.769)"><path class="a" d="M176.728,387.043c.068.215-.893.7-2.19.827s-2.334-.16-2.309-.384,1.022-.326,2.227-.448S176.662,386.817,176.728,387.043Z" transform="translate(-172.229 -386.91)"/></g><g transform="translate(20.064 20.038)"><path class="a" d="M178.383,380.049c-.075.219-1.116.057-2.324-.361s-2.127-.933-2.051-1.151,1.115-.057,2.324.361S178.458,379.831,178.383,380.049Z" transform="translate(-174.003 -378.441)"/></g><g transform="translate(25.468 12.32)"><path class="a" d="M181.776,372.987c-.161.16-.876-.311-1.386-1.2s-.562-1.74-.343-1.8.611.6,1.068,1.381S181.946,372.824,181.776,372.987Z" transform="translate(-179.924 -369.985)"/></g><g transform="translate(19.983 41.079)"><path class="a" d="M177.784,401.632c.055.225-.847.637-2.013.922a7.645,7.645,0,0,1-1.691.249l-.165-.487c.3-.055.5-.043.536.047s-.084.242-.329.426l-.165-.487a7.681,7.681,0,0,1,1.616-.56C176.739,401.456,177.73,401.407,177.784,401.632Z" transform="translate(-173.915 -401.491)"/></g><g transform="translate(20.025 52.239)"><path class="a" d="M179.405,413.786c.084.215-1.065.867-2.567,1.458s-2.788.895-2.873.679,1.065-.867,2.567-1.458S179.32,413.571,179.405,413.786Z" transform="translate(-173.961 -413.717)"/></g><g transform="translate(12.907 47.268)"><path class="a" d="M169.86,408.385c.075.219-.692.677-1.712,1.024s-1.907.451-1.981.233.692-.677,1.712-1.024S169.786,408.167,169.86,408.385Z" transform="translate(-166.162 -408.271)"/></g><g transform="translate(11.783 22.803)"><path class="a" d="M170.431,383.475c-.053.222-1.387.09-2.929-.458s-2.663-1.283-2.564-1.488,1.346.171,2.843.7S170.486,383.248,170.431,383.475Z" transform="translate(-164.931 -381.47)"/></g><g transform="translate(34.904 22.308)"><path class="a" d="M194.091,380.975c.127.193-.624.912-1.678,1.607s-2.012,1.1-2.139.909.623-.913,1.678-1.607S193.963,380.782,194.091,380.975Z" transform="translate(-190.26 -380.927)"/></g><g transform="translate(36.201 33.314)"><path class="a" d="M195.381,393.162c.047.226-.742.581-1.764.793s-1.886.2-1.933-.026.743-.581,1.764-.793S195.334,392.936,195.381,393.162Z" transform="translate(-191.682 -392.985)"/></g><g transform="translate(36.522 43.76)"><path class="a" d="M196.767,406.682c-.1.21-1.234-.11-2.539-.715s-2.285-1.264-2.188-1.474,1.233.11,2.539.715S196.865,406.472,196.767,406.682Z" transform="translate(-192.034 -404.428)"/></g><g transform="translate(35.696 54.955)"><path class="a" d="M193.819,419.942c-.178.147-.916-.456-1.649-1.348s-1.181-1.732-1-1.879.916.457,1.649,1.349S194,419.8,193.819,419.942Z" transform="translate(-191.129 -416.692)"/></g><g transform="translate(34.936 14.096)"><path class="a" d="M193.16,371.99c.141.179-.346.793-1.182,1.211s-1.619.445-1.678.225.549-.591,1.3-.972S193.017,371.8,193.16,371.99Z" transform="translate(-190.296 -371.931)"/></g><g transform="translate(43.69 25.278)"><path class="a" d="M204.509,384.291c.077.213-.9.748-2.226.93s-2.412-.062-2.4-.288,1.042-.365,2.281-.541S204.432,384.068,204.509,384.291Z" transform="translate(-199.886 -384.181)"/></g><g transform="translate(41.389 15.24)"><path class="a" d="M202.194,373.25c.1.2-.863.891-2.236,1.328s-2.558.44-2.592.215,1.032-.592,2.337-1.012S202.09,373.039,202.194,373.25Z" transform="translate(-197.365 -373.184)"/></g><g transform="translate(43.546 39.653)"><path class="a" d="M206.79,401.28c0,.225-1.654.372-3.647.006s-3.488-1.074-3.412-1.286,1.638.119,3.562.464S206.8,401.043,206.79,401.28Z" transform="translate(-199.728 -399.928)"/></g><g transform="translate(42.359 51.302)"><path class="a" d="M202.77,417.04c-.139.179-1.356-.537-2.569-1.759s-1.926-2.437-1.746-2.576,1.163.809,2.34,1.986S202.915,416.855,202.77,417.04Z" transform="translate(-198.428 -412.69)"/></g><g transform="translate(12.015 3.382)"><path class="k" d="M182.7,360.2c.124.18-3.335,1.582-7.334,5.795a35.8,35.8,0,0,0-9.134,20.19,45.358,45.358,0,0,0,.551,12.371,94.655,94.655,0,0,0,2.317,9.928c.8,2.8,1.54,5.033,2.035,6.586a15.457,15.457,0,0,1,.7,2.436,14.013,14.013,0,0,1-1.011-2.328c-.59-1.522-1.415-3.736-2.294-6.524a83.7,83.7,0,0,1-2.51-9.966,44.413,44.413,0,0,1-.623-12.6,35.2,35.2,0,0,1,9.539-20.5,26.217,26.217,0,0,1,5.471-4.275,16.392,16.392,0,0,1,1.674-.87A1.932,1.932,0,0,1,182.7,360.2Z" transform="translate(-165.186 -360.194)"/></g><g transform="translate(28.89 3.727)"><path class="k" d="M195.714,418.073c-.182-.09,1.88-3.264,3.759-8.983a50.837,50.837,0,0,0,2.247-23.1,43.476,43.476,0,0,0-3.561-12.318,29.077,29.077,0,0,0-6.075-8.459,22.1,22.1,0,0,0-5.951-3.761c-1.547-.645-2.474-.8-2.461-.867a2.016,2.016,0,0,1,.684.053,12.536,12.536,0,0,1,1.894.51,20.58,20.58,0,0,1,6.225,3.62,28.619,28.619,0,0,1,6.379,8.571,42.8,42.8,0,0,1,3.7,12.534,49.116,49.116,0,0,1-2.518,23.41c-.473,1.444-1.08,2.683-1.534,3.8-.539,1.079-.983,2.017-1.391,2.759A15.79,15.79,0,0,1,195.714,418.073Z" transform="translate(-183.673 -360.571)"/></g><g transform="translate(8.53 59.251)"><path class="b" d="M161.368,421.4h46.109l.283,9.228H161.368Z" transform="translate(-161.368 -421.399)"/></g><g transform="translate(12.448 63.865)"><path class="b" d="M165.66,426.453l2.649,28.172h33.709l2.707-27.864Z" transform="translate(-165.66 -426.453)"/></g><g transform="translate(8.542 68.172)"><path class="a" d="M207.761,431.59c0,.231-10.383.418-23.188.418s-23.192-.187-23.192-.418,10.382-.418,23.192-.418S207.761,431.359,207.761,431.59Z" transform="translate(-161.381 -431.172)"/></g><g transform="translate(14.658 74.375)"><path class="a" d="M203.66,440.764a6.94,6.94,0,0,1-.987,1.76,25.51,25.51,0,0,1-3.576,4.223l-.213.2-.209-.22a66.393,66.393,0,0,0-9.036-7.91l.509-.022-4.006,3.516-4.736,4.123-.262.228-.263-.221-7.7-6.473.448-.048-3.983,4.86a11.309,11.309,0,0,1-1.564,1.712,11.385,11.385,0,0,1,1.287-1.928l3.764-5.031.192-.257.256.208,7.814,6.334-.524.007,4.718-4.143,4.019-3.5.247-.215.263.193a59.02,59.02,0,0,1,8.992,8.166l-.421-.017A46.862,46.862,0,0,0,203.66,440.764Z" transform="translate(-168.081 -437.967)"/></g></g></g></g></svg>