<svg xmlns="http://www.w3.org/2000/svg" width="34" height="34" viewBox="0 0 34 34"><defs><style>.a{fill:#fff;}.b{fill:#2d142c;}</style></defs><rect class="a" width="34" height="34" rx="17"/><path class="b" d="M20.309,11.936a6.832,6.832,0,0,1-1.972.54,3.44,3.44,0,0,0,1.51-1.9,6.873,6.873,0,0,1-2.18.834,3.436,3.436,0,0,0-5.85,3.131,9.749,9.749,0,0,1-7.077-3.587A3.438,3.438,0,0,0,5.8,15.539a3.424,3.424,0,0,1-1.555-.43c0,.014,0,.029,0,.043A3.436,3.436,0,0,0,7,18.519a3.452,3.452,0,0,1-.9.12,3.4,3.4,0,0,1-.646-.062,3.437,3.437,0,0,0,3.207,2.384,6.928,6.928,0,0,1-5.083,1.422,9.764,9.764,0,0,0,15.032-8.226q0-.223-.01-.445A6.954,6.954,0,0,0,20.309,11.936Z" transform="translate(5.266 -0.126)"/></svg>